<?xml version="1.0" encoding="utf-8"?>
<!-- Generator: Adobe Illustrator 25.3.1, SVG Export Plug-In . SVG Version: 6.00 Build 0)  -->
<svg version="1.1" id="Camada_1" xmlns="http://www.w3.org/2000/svg" xmlns:xlink="http://www.w3.org/1999/xlink" x="0px" y="0px"
	 viewBox="0 0 800 800" style="enable-background:new 0 0 800 800;" xml:space="preserve">
<style type="text/css">
	.st0{fill:#A2AF89;}
	.st1{fill:none;stroke:#000000;stroke-width:3;stroke-miterlimit:10;}
</style>
<g>
	<g>
		<path class="st0" d="M643.97,103.39c0.38,0.03,0.75,0.05,1.13,0.08c0.94,1.33,1.98,2.57,3.26,3.59c0.91-0.36,1.24,0.6,1.89,0.83
			c0.91,1.34,1.97,2.55,3.23,3.57c1.57-0.67,1.54,1.38,2.62,1.55c1.32,1.92,3.06,3.44,4.71,5.04c2.69,0.48,3.4,3.4,5.57,4.51
			c3.28,3.87,6.86,7.44,10.72,10.72c1.15,2.14,4.02,2.89,4.51,5.56c1.59,1.66,3.12,3.38,5.02,4.7c0.29,1.02,2.13,1.09,1.58,2.61
			c1.28,1.47,2.66,2.84,4.27,3.97c0.05,0.23,0.09,0.47,0.14,0.7c0.88,1.81,2.67,2.88,3.72,4.56l-0.05-0.07
			c0.81,1.59,2.49,2.51,3.18,4.19c0.85,1.32,2.35,2.12,2.93,3.66c0.66,1.08,1.68,1.77,2.69,2.47l-0.01-0.06
			c0.07,1.23,0.82,2.06,1.64,2.84c0.57,1.17,1.41,2.14,2.31,3.07c0.58,1.25,1.46,2.24,2.65,2.94l0-0.04
			c0.09,1.3,1.07,2.16,1.63,3.23c0.46,0.81,1.13,1.4,1.93,1.84l0.23,0.18l-0.07,0.28c-0.17,1.1,0.93,1.54,1.26,2.38
			c0.67,1.09,1.47,2.09,2.31,3.06c0.3,0.33,0.59,0.65,0.89,0.98c0.03,1.4,1.24,2.18,1.74,3.33c0.61,0.76,1.09,1.62,1.79,2.31
			c1.02,1.53,2.04,3.05,3.06,4.58c0.35,1.93,1.54,3.38,2.71,4.85c0.44,0.74,1.08,1.4,0.87,2.38c1.41,1.56,2.19,3.58,3.7,5.07
			l-0.05-0.06c0.49,1.85,1.64,3.38,2.44,5.08c1.53,2.61,2.92,5.3,4.36,7.96c0.4,1.06,0.77,2.14,1.46,3.07
			c0.47,1,0.79,2.07,1.49,2.96c0.45,0.99,0.78,2.05,1.46,2.93c0.47,0.98,0.74,2.08,1.52,2.9c0.45,0.68,0.66,1.45,0.88,2.22
			c1.04,1.65,1.74,3.49,2.75,5.16c0.08,0.99,0.45,1.88,1.03,2.69c0.8,1.56,1.18,3.35,2.46,4.66l-0.06-0.08
			c0.17,1.79,1.12,3.31,1.67,4.96c0.25,0.92,0.73,1.72,1.3,2.48l0.16,0.21l-0.12,0.24c-0.05,1.3,0.8,2.21,1.43,3.21
			c0.07,1.32,1.85,1.92,1.43,3.45c0.33,1.35,0.27,2.84,1.49,3.85c0.8,0.46,0.73,1.24,0.72,1.99c0.34,1.33,0.22,2.82,1.44,3.82
			c0.2,0.12,0.24,0.29,0.11,0.48c-0.15,1.5,0.32,2.79,1.34,3.88c0.22,0.12,0.26,0.29,0.13,0.5c-0.16,1.5,0.32,2.79,1.33,3.89
			c0.22,0.13,0.26,0.3,0.14,0.52c-0.23,1.41,0.51,2.59,0.9,3.85c0.2,0.82,0.51,1.58,1.13,2.19c0.02,0.28,0.04,0.55,0.06,0.83
			c0.03,1.57,1.2,2.76,1.43,4.27c0.12,0.3,0.22,0.61,0.3,0.93c0.25,1.13,0.61,2.23,0.85,3.36c0.45,1.28,0.68,2.62,1.03,3.93
			c-0.05,1.79,0.7,3.35,1.46,4.9c0.41,1.12,0.35,2.37,0.94,3.44c0.38,0.76,0.61,1.57,0.6,2.43c0.17,1.29,0.25,2.59,1.01,3.72
			c0.14,0.3,0.23,0.62,0.25,0.96c-0.07,2.19,0.59,4.28,0.97,6.4c0.31,1.16,0.31,2.4,0.8,3.52c0.1,0.34,0.16,0.68,0.19,1.03
			c0.47,2.22,0.58,4.5,1.31,6.67c0.22,0.69,0.41,1.38,0.41,2.11c-0.18,1.84,0.67,3.57,0.54,5.4c0.63,3.41,1.2,6.82,1.44,10.28
			c-0.05,1.14,0.08,2.25,0.48,3.33c0.24,1.1,0.22,2.21,0.24,3.32c0.03,1.23-0.12,2.49,0.36,3.68c0.29,1.04,0.36,2.13,0.69,3.17
			c0.08,0.38,0.1,0.76,0.09,1.14c-0.24,3.9,0.69,7.76,0.35,11.66c0.04,2.52-0.25,5.07,0.62,7.52c0.19,9.17,0.21,18.34,0,27.5
			c-0.71,2.09-0.65,4.25-0.62,6.41c-0.05,2.32,0.1,4.64-0.16,6.95c-0.56,1.54-0.65,3.14-0.58,4.75c-0.03,1.38,0.04,2.76-0.19,4.13
			c-0.46,1.26-0.61,2.57-0.55,3.9c-0.02,0.92-0.02,1.85-0.23,2.76c-0.6,1.54-0.63,3.1-0.1,4.67c0.11,0.72,0.08,1.43-0.12,2.13
			c-1.33,2.52-1.32,5.28-1.37,8.03c0.05,0.52,0.01,1.04-0.1,1.55c-1.08,2.47-1.34,5.11-1.53,7.76c0,0.32-0.05,0.64-0.14,0.95
			c-0.43,0.81-0.93,1.61-0.85,2.6c0.05,1.61-0.72,3.14-0.45,4.76c-0.01,0.34-0.06,0.67-0.16,0.99c-1,1.79-1.04,3.85-1.57,5.77
			c-0.03,0.34-0.1,0.67-0.19,1.01c-0.66,1.77-0.67,3.69-1.27,5.47c-0.44,1.93-1.12,3.8-1.15,5.81c-0.03,0.33-0.1,0.65-0.2,0.96
			c-0.9,1.54-1.14,3.31-1.71,4.97c-0.44,1.03-0.56,2.1-0.4,3.21c-0.06,1.01-0.33,1.96-0.81,2.85c-1.39,2.12-1.7,4.64-2.56,6.95
			c-0.61,1.54-0.88,3.14-0.95,4.79c-0.21,1.54-0.69,2.99-1.43,4.36c-1.45,1.93-1.79,4.34-2.76,6.47c-0.55,1.22-1.01,2.47-1.34,3.77
			c-0.47,1.09-0.61,2.26-0.79,3.42c-0.2,0.83-0.54,1.6-0.95,2.35c-1.22,1.56-1.95,3.36-2.46,5.26c-0.1,0.64-0.24,1.28-0.5,1.88
			c-0.9,1.49-1.8,2.99-2.06,4.76c-0.1,0.31-0.23,0.61-0.39,0.89c-1.1,1.61-2,3.31-2.53,5.2c-1.29,3.49-3.79,6.47-4.29,10.29
			c-0.17,0.66-0.48,1.26-0.87,1.82c-0.93,1.1-1.75,2.27-1.98,3.74c-0.2,0.79-0.56,1.49-1.11,2.09c-0.79,0.71-1.5,1.47-1.92,2.47
			c-0.35,0.69-0.66,1.39-1,2.08c-0.71,1.41-1.53,2.77-1.79,4.36c-0.29,1.13-0.78,2.15-1.58,3.01c-1.12,0.89-1.82,2.06-2.2,3.43
			c-0.11,0.3-0.25,0.58-0.41,0.85c-0.94,1.24-1.94,2.44-2.73,3.79c-0.81,1.15-1.37,2.45-2.03,3.68c-0.74,1.2-1.56,2.36-2.31,3.55
			c-0.63,0.89-1.08,1.88-1.63,2.81c-0.71,1.01-1.4,2.04-2.07,3.08c-0.78,1.15-1.6,2.28-2.09,3.6c-0.14,0.29-0.31,0.56-0.5,0.81
			c-0.97,1.06-1.89,2.15-2.38,3.53c-0.14,0.3-0.31,0.57-0.51,0.84c-0.97,1.09-1.99,2.15-2.32,3.66c-0.23,0.64-0.58,1.2-1.1,1.64
			c-1.11,0.69-1.88,1.7-2.57,2.79c-0.68,1.06-1.6,1.94-2.27,3.01c-0.52,0.77-1.12,1.47-1.69,2.21c-0.74,0.98-1.44,1.99-2.2,2.95
			c-0.89,1.27-1.9,2.45-2.77,3.74c-0.63,0.88-1.36,1.7-1.72,2.75c-0.25,0.6-0.6,1.14-1.09,1.57c-1.17,0.83-2.27,1.74-3.03,2.98
			c-0.78,1.2-2,2.1-2.48,3.51c-0.37,0.92-0.95,1.68-1.73,2.28c-1.14,0.77-2.31,1.51-2.72,2.95c-0.5,1.24-1.39,2.16-2.43,2.95
			c-1.69,1.18-3.37,2.37-4.16,4.41c-1.07,2.15-2.92,3.61-4.65,5.16c-4.86,3.96-9.15,8.49-13.3,13.17c-1.13,1.54-2.39,2.94-4.12,3.84
			c-2.53,1.11-4.11,3.26-5.74,5.34c-0.44,0.51-0.98,0.9-1.57,1.22c-2.03,0.73-3.22,2.53-4.78,3.85c-0.24,0.22-0.49,0.41-0.76,0.59
			c-1.43,0.76-2.43,2.03-3.63,3.07c-0.24,0.22-0.5,0.41-0.76,0.59c-1.38,0.8-2.56,1.88-3.86,2.8c-1.21,1-2.42,2.02-3.7,2.94
			c-0.88,0.68-1.65,1.5-2.55,2.16c-1.39,0.85-2.57,1.97-3.91,2.87c-0.77,0.56-1.51,1.16-2.29,1.7c-0.93,0.58-1.7,1.37-2.6,2.01
			c-1.06,0.66-2.1,1.37-3.13,2.09c-0.63,0.47-1.23,0.98-1.85,1.46c-0.25,0.2-0.51,0.37-0.79,0.53c-0.94,0.58-1.85,1.19-2.74,1.83
			c-0.76,0.54-1.48,1.12-2,1.93c-0.33,0.38-0.72,0.65-1.2,0.82c-1.39,0.19-2.37,0.98-3.14,2.09c-0.33,0.39-0.73,0.68-1.22,0.85
			c-1.33,0.2-2.45,0.87-3.56,1.56c-1.26,0.65-2.41,1.48-3.58,2.27c-0.91,0.62-1.89,1.14-2.84,1.7c-1.11,0.61-2.14,1.38-3.25,1.99
			c-1.68,0.97-3.33,1.97-4.96,3c-1.67,1.09-3.51,1.87-5.22,2.88c-2.95,1.93-6.3,3.15-9.17,5.22c-0.27,0.18-0.57,0.31-0.88,0.4
			c-1.07,0.17-2.05,0.6-2.99,1.13c-0.98,0.48-1.94,0.97-2.91,1.47c-1.29,0.6-2.55,1.25-3.79,1.96c-0.28,0.17-0.57,0.31-0.87,0.44
			c-2.76,1.46-5.66,2.58-8.48,3.91c-0.29,0.17-0.59,0.31-0.89,0.44c-1.49,0.72-3.05,1.27-4.55,1.94c-1.66,0.74-3.33,1.47-5.02,2.14
			c-0.92,0.35-1.82,0.78-2.77,1.06c-1.51,0.63-3.03,1.23-4.54,1.85c-1.2,0.52-2.45,0.9-3.63,1.46c-0.29,0.16-0.6,0.28-0.91,0.39
			c-1.86,0.73-3.78,1.29-5.65,1.98c-1.26,0.35-2.5,0.74-3.64,1.39c-2.3,1.31-4.79,2.04-7.4,2.43c-0.83,0.03-1.57,0.42-2.36,0.64
			c-1.29,0.35-2.54,0.83-3.79,1.29c-1.32,0.32-2.58,0.9-3.94,1.07c-1.27,0.44-2.62,0.6-3.88,1.06c-0.79,0.25-1.59,0.45-2.37,0.72
			c-2.08,0.42-4.1,0.99-6.01,1.95c-0.3,0.14-0.61,0.24-0.92,0.32c-1.23,0.3-2.57,0.12-3.68,0.93c-0.6,0.32-1.24,0.51-1.92,0.54
			c-2.06-0.23-4,0.35-5.93,0.94c-2.02,0.52-4.09,0.78-6.1,1.34c-1.18,0.14-2.31,0.42-3.33,1.08c-0.86,0.27-1.71,0.2-2.57,0.02
			c-1.91,0.18-3.79,0.57-5.64,1.08c-1.42,0.31-2.92,0.14-4.3,0.74c-0.92,0.22-1.85,0.22-2.79,0.26c-2.52,0.61-5.18,0.44-7.65,1.35
			c-0.91,0.36-1.84,0.55-2.83,0.46c-2.51-0.45-4.94,0.74-7.45,0.4c-3.52,0.91-7.2,0.35-10.71,1.23c-1.81,0.34-3.65,0.12-5.47,0.31
			c-2.98,0.7-6.09-0.84-9.03,0.52c-3.5,0.25-7,0.08-10.5,0.14c-3.14-0.01-6.28-0.01-9.41,0c-3.57-0.07-7.14,0.13-10.7-0.15
			c-2.47-0.9-5.05-0.52-7.59-0.59c-1.87-0.04-3.75,0.07-5.62-0.17c-1.52-0.57-3.11-0.63-4.71-0.57c-1.38-0.03-2.76,0.04-4.13-0.2
			c-1.1-0.35-2.21-0.62-3.39-0.53c-1.15-0.02-2.31,0.01-3.45-0.12c-1.78-0.66-3.68-0.57-5.52-0.82c-1.16-0.36-2.33-0.65-3.57-0.49
			c-0.81,0.14-1.62,0.36-2.45,0.11c-0.96-0.43-1.85-1.12-3.01-0.83c-0.64,0.1-1.28,0.12-1.92-0.04c-1.49-0.89-3.22-0.71-4.82-1.07
			c-1.09-0.43-2.27-0.43-3.4-0.69c-1.08-0.41-2.18-0.47-3.31-0.16c-0.5,0.04-0.99-0.03-1.46-0.21c-0.97-0.71-2.12-0.89-3.27-1.06
			c-2.06-0.56-4.17-0.84-6.24-1.33c-1.87-0.69-3.89-0.71-5.77-1.35c-1.07-0.09-2.02-0.63-3.08-0.77c-1.05-0.12-1.99-0.66-3.05-0.75
			c-1.21-0.21-2.34-0.73-3.58-0.85c-1.68-0.56-3.43-0.85-5.12-1.4c-1.63-0.64-3.37-0.88-5.02-1.46c-1.26-0.48-2.54-0.88-3.82-1.3
			c-1.3-0.24-2.59-0.57-3.94-0.56c-3.58-0.79-7.03-1.94-10.38-3.43c-0.85-0.48-1.58-1.18-2.52-1.52c-1.12-0.54-2.29-0.96-3.51-1.22
			c-1.03-0.33-2.12-0.41-3.13-0.79c-1.02-0.75-2.12-1.36-3.34-1.71c-1.01-0.41-1.96-0.95-3.02-1.23c-0.3-0.08-0.58-0.2-0.86-0.32
			c-0.95-0.48-1.93-0.82-3.01-0.84c-0.32-0.06-0.62-0.18-0.9-0.34c-1.02-0.87-2.24-1.35-3.49-1.75c-1.76-0.85-3.51-1.74-5.46-2.09
			c-0.63-0.21-1.21-0.5-1.78-0.84c-1.05-0.73-2.11-1.45-3.31-1.92c-1.77-0.76-3.56-1.46-5.36-2.13c-0.31-0.1-0.6-0.23-0.88-0.39
			c-1.17-0.81-2.39-1.53-3.69-2.12c-0.98-0.51-1.97-1-2.97-1.47c-1.4-0.77-2.84-1.46-4.28-2.15c-0.86-0.46-1.69-0.97-2.52-1.49
			c-1.79-1.17-3.72-2.05-5.73-2.77c-0.31-0.13-0.6-0.29-0.88-0.47c-1.14-0.94-2.31-1.82-3.68-2.41c-1.88-0.97-3.58-2.22-5.48-3.16
			c-1.05-0.73-2.1-1.47-3.19-2.14c-0.93-0.65-1.99-1.04-3.02-1.47c-0.3-0.15-0.57-0.33-0.82-0.53c-1.39-1.4-3.09-2.34-4.81-3.23
			c-1.28-1.02-2.75-1.66-4.3-2.16c-1.64-0.8-3.19-1.76-4.51-3.03c-0.71-1.04-1.51-1.96-2.79-2.31c-0.42-0.23-0.79-0.52-1.13-0.86
			c-0.92-1.09-2.11-1.85-3.3-2.6c-1-0.74-1.88-1.65-3.1-2.05c-0.59-0.29-1.11-0.67-1.58-1.12c-0.83-0.99-1.88-1.75-2.88-2.55
			c-1.4-1.03-2.74-2.15-4.2-3.1c-0.74-0.57-1.45-1.19-2.36-1.5c-0.61-0.25-1.15-0.59-1.58-1.09c-0.55-0.79-1.17-1.51-2.12-1.84
			c-0.61-0.26-1.14-0.62-1.58-1.11c-0.73-1.05-1.5-2.06-2.77-2.51c-0.61-0.27-1.16-0.62-1.6-1.12c-0.75-1.07-1.52-2.12-2.84-2.56
			c-0.94-0.39-1.71-0.99-2.33-1.79c-1.16-1.67-2.36-3.29-4.34-4.09c-1.58-0.69-2.71-1.91-3.75-3.22c-2.31-3.09-5.02-5.77-8.08-8.11
			c-2.43-1.15-3.95-3.19-5.33-5.38c-2.41-3.07-5.12-5.84-8.28-8.15c-1.08-0.86-2.02-1.85-2.65-3.1c-0.71-1.95-2.3-3.1-3.88-4.27
			c-0.51-0.44-0.89-0.97-1.21-1.56c-0.73-2.04-2.53-3.22-3.86-4.78c-0.22-0.24-0.41-0.5-0.59-0.76c-0.77-1.42-2.05-2.44-2.92-3.77
			c-0.83-1.35-2.07-2.37-2.94-3.69c-0.87-1.29-1.88-2.47-2.78-3.73c-0.76-0.97-1.64-1.85-2.34-2.88c-0.66-1.04-1.52-1.93-2.2-2.94
			c-0.65-1.03-1.51-1.91-2.18-2.94c-0.5-0.77-1.03-1.52-1.55-2.28c-0.67-1.06-1.57-1.94-2.25-2.98c-0.68-1.09-1.5-2.06-2.35-3.01
			c-0.2-0.26-0.36-0.54-0.51-0.83c-0.41-1.22-1.22-2.21-1.89-3.29c-0.5-0.76-1.01-1.52-1.62-2.2c-0.3-0.34-0.56-0.72-0.78-1.12
			c-0.42-0.96-1-1.83-1.58-2.7C75.75,606,75.05,605,74.37,604c-0.62-0.9-1.12-1.85-1.67-2.79c-0.6-1.09-1.35-2.09-2.04-3.12
			c-0.8-1.18-1.41-2.47-2.11-3.7c-0.63-1.27-1.5-2.4-2.17-3.64c-0.43-0.85-1-1.62-1.52-2.42c-0.78-1.43-1.46-2.92-2.31-4.33
			c-1.87-3.01-3.38-6.21-5.01-9.35c-0.68-1.52-1.43-3.01-2.22-4.48c-0.69-1.52-1.45-2.99-2.24-4.46c-1.1-2.45-2.43-4.8-3.55-7.24
			c-0.36-0.93-0.61-1.9-1.09-2.79c-0.74-1.49-1.31-3.04-1.97-4.56c-0.81-1.78-1.46-3.64-2.68-5.21c-0.62-1.19-1.09-2.44-1.61-3.68
			c-0.37-1.45-0.73-2.91-1.43-4.25c-0.13-0.31-0.23-0.62-0.31-0.94c-0.64-2.69-1.61-5.25-2.96-7.66c-0.16-0.29-0.27-0.59-0.35-0.91
			c-0.33-1.91-0.95-3.73-1.78-5.49c-0.76-2.09-1.78-4.09-2.3-6.27c-0.01-1.23-0.53-2.33-0.82-3.49c-0.41-1.15-0.77-2.32-1.19-3.46
			c-0.47-2.06-0.92-4.13-1.62-6.14c-0.52-1.66-0.81-3.39-1.42-5.03c-0.49-1.6-0.79-3.26-1.37-4.84c-0.23-0.62-0.39-1.25-0.5-1.9
			c-0.14-1.11-0.39-2.21-0.53-3.33c-0.51-1.55-0.58-3.2-1.06-4.76c-0.28-0.93-0.31-1.92-0.8-2.79c-0.28-0.6-0.48-1.23-0.51-1.9
			c0.05-1.97-0.49-3.85-0.92-5.74c-0.32-1.09-0.2-2.29-0.78-3.33c-0.28-0.63-0.48-1.27-0.51-1.97c0.14-1.76-0.63-3.41-0.59-5.16
			c-0.84-2.09-0.38-4.42-1.19-6.51c-0.21-0.95-0.2-1.91-0.24-2.88c-0.73-2.64-0.46-5.44-1.23-8.07c-0.39-1.93,0.07-3.97-0.74-5.86
			c-0.26-1.39-0.19-2.79-0.22-4.19c0.06-1.4-0.05-2.77-0.55-4.1c-0.25-1.63-0.16-3.27-0.19-4.91c0-2.1,0.16-4.21-0.6-6.23
			c-0.27-3.57-0.08-7.15-0.15-10.72c0.01-6.42,0-12.83,0-19.25c0-1.34,0-2.67,0-4.01c0.06-2.59-0.11-5.19,0.16-7.78
			c0.76-1.98,0.57-4.05,0.58-6.1c0.03-1.42-0.04-2.84,0.19-4.24c0.59-1.49,0.59-3.05,0.55-4.62c0.02-1.16-0.01-2.33,0.21-3.48
			c0.48-1.25,0.58-2.56,0.53-3.89c0.02-1.13-0.01-2.25,0.22-3.37c0.34-1.05,0.59-2.11,0.52-3.23c0-0.55,0.01-1.1,0.07-1.65
			c0.59-1.74,0.64-3.57,0.89-5.37c0.36-1,0.56-2.03,0.53-3.1c0.02-0.52,0.05-1.04,0.16-1.55c0.22-0.99,0.62-1.95,0.62-2.99
			c0.04-0.51,0.15-1.01,0.28-1.51c0.38-0.97,0.42-2,0.43-3.03c0.02-0.36,0.08-0.71,0.16-1.06c0.46-2.32,1.06-4.62,1.31-6.98
			c0.68-2.11,0.89-4.33,1.62-6.42c0.59-1.12,0.91-2.32,1.21-3.54c0.5-2,0.96-4.01,1.07-6.08c-0.37-1.16,0.8-1.87,0.84-2.91
			c1.15-1.58,0.79-3.77,2.14-5.27l-0.01-0.27c-0.49-1.92,0.46-3.41,1.48-4.87l-0.13-0.14l0.12-0.15c-0.55-1.1,0.3-2.01,0.42-3.02
			c0.48-1.32,0.95-2.65,1.4-3.98c0-1.11,0.43-2.07,1.13-2.91c0.02-2.33,0.4-4.53,2.19-6.23c0.08-1.94,0.61-3.75,1.47-5.48
			c0.03-0.46,0.06-0.91,0.09-1.37c1.08-1.07,1.12-2.71,2.1-3.82c-0.5-0.87-0.57-1.56,0.72-1.64c-0.59-1.72,1.3-2.79,1.13-4.4
			c0.27-1.18,1.01-2.16,1.41-3.28c0.16-1.38,1.19-2.37,1.59-3.65c0.61-1.7,1.16-3.42,2.09-4.98c0.58-1.8,1.63-3.44,1.81-5.37
			c0.27-0.45,0.53-0.91,0.8-1.36c1.01-1.21,1.53-2.68,2.17-4.08c-0.21-0.67,0.09-1.12,0.65-1.45c0.85-1.51,1.36-3.2,2.27-4.68
			c0.05-0.3,0.11-0.59,0.16-0.89c0.76-0.82,1.22-1.82,1.72-2.8c0.37-0.89,0.85-1.72,1.3-2.56c0.42-0.72,0.62-1.54,1.07-2.24
			c1.51-2.52,2.92-5.1,3.82-7.92c0.25-0.41,0.51-0.82,0.76-1.23c1.21-0.69,1.46-2,2.03-3.1c0.63-0.94,0.95-2.07,1.85-2.83
			c0.18-0.48,0.36-0.96,0.55-1.43c1.12-1.61,2.23-3.24,2.87-5.12l-0.06,0.09c1.51-1.52,2.47-3.43,3.71-5.15
			c0.04-0.3,0.09-0.59,0.13-0.89c0.67-0.73,1.23-1.55,1.8-2.35c1.06-1.64,2.17-3.25,3.2-4.91c0.28-0.5,0.56-1,0.84-1.49
			c0.83-1.27,1.89-2.36,2.81-3.56c0.05-0.28,0.1-0.57,0.15-0.85c0.96-1.09,1.7-2.37,2.77-3.38c0.3-0.58,0.6-1.17,0.9-1.75
			c0.88-1.13,1.83-2.22,2.48-3.51c0.84-0.93,1.71-1.83,2.24-3c0.88-0.89,1.69-1.83,2.23-2.98c0.77-0.81,1.54-1.6,2.06-2.6
			c0.61-1.18,1.93-1.72,2.59-2.85c0.02-0.37,0.04-0.74,0.06-1.11c1.04-0.75,2.15-1.44,2.88-2.55c0.03-0.38,0.06-0.76,0.08-1.13
			c1.33-0.93,2.56-1.98,3.58-3.26c0.03-0.38,0.06-0.76,0.09-1.14c1.33-0.94,2.57-1.96,3.57-3.27c-0.41-0.94,0.71-1.19,0.85-1.88
			c1.62-1.12,2.98-2.51,4.29-3.97c0.14-1.3,0.89-2.09,2.09-2.5c2.24-2.66,4.63-5.18,7.39-7.32c1.9-4.17,5.57-6.71,8.86-9.6
			c3.02-2.02,4.98-5.21,8-7.24c0.62-1.18,1.18-2.43,2.53-3c2.23-0.46,3.04-2.74,4.81-3.77c0.06-0.23,0.12-0.46,0.18-0.7
			c2.29-0.39,3.21-2.59,4.94-3.73c0.1-0.19,0.21-0.39,0.31-0.58c1.91-0.32,2.66-2.16,4.09-3.12c0.1-0.18,0.21-0.36,0.31-0.55
			c1.6-0.08,2.2-1.61,3.35-2.33c0.1-0.2,0.21-0.4,0.31-0.6c1.5,0.04,1.85-1.3,2.61-2.15l-0.05-0.01c1.77-0.13,2.65-1.77,4.1-2.44
			c0.83-0.49,1.42-1.28,2.27-1.75c1.36-0.72,2.29-2.15,3.93-2.43c0.02-0.45,0.26-0.69,0.71-0.71c1.08-1.47,2.73-2.21,4.15-3.23
			c0.71-0.34,1.12-1.19,2.01-1.25c0.75-0.72,1.51-1.44,2.26-2.16c1.37,0.17,1.99-1.44,3.31-1.4c0.33-0.54,0.65-1.08,0.98-1.62
			c1.27-0.26,2.44-0.76,3.45-1.59c1.52-1.17,3.04-2.34,4.55-3.51c1.3-0.15,2.35-0.9,3.51-1.41l-0.06,0.08
			c1.07-1.64,3.35-1.8,4.33-3.54c0.64-0.31,1.28-0.62,1.92-0.93c2.35-0.36,3.91-2.46,6.24-2.87c0.01-0.26,0.03-0.51,0.04-0.77
			c2.41-0.78,4.61-1.94,6.53-3.61c1.53-0.24,1.99-2.28,3.71-2.21c4.34-0.87,7.74-3.89,11.88-5.23c0.19-0.22,0.37-0.43,0.56-0.65
			c1.51-0.36,2.9-1.08,4.39-1.48c0.1-0.3,0.19-0.6,0.29-0.9c2.33,0.08,3.99-2,6.3-1.99c0.08-0.3,0.15-0.61,0.23-0.91
			c2.28-0.17,4.19-1.53,6.37-2.03c0.22-0.76,0.85-0.74,1.46-0.78c2.48-1.35,5.16-2.23,7.77-3.26c1.29-0.48,2.59-0.89,3.95-1.09
			c0.06-1.38,1.05-1.5,2.1-1.55c1.39,0.1,2.57-0.55,3.81-1.02c1.16-0.68,2.51-0.73,3.75-1.17c2.36-0.98,4.73-1.96,7.09-2.93
			c1.64,0.01,3.12-0.72,4.7-1.02c1.11-0.35,2.24-0.64,3.34-1.03c1.28-0.49,2.67-0.58,3.92-1.15c1.61-0.59,3.34-0.77,4.93-1.4
			c1.67-0.74,3.67-0.54,5.13-1.86c0.29-0.01,0.59-0.03,0.88-0.04c2.1,0.13,3.98-0.88,6-1.16c1.65-0.71,3.56-0.44,5.14-1.4
			c1.48,0.25,2.81-0.89,4.31-0.42c1.28-1.02,2.97-0.77,4.38-1.38c2.25-0.13,4.42-0.69,6.6-1.17c1.26,0.11,2.44-0.22,3.6-0.66
			c1.38-0.29,2.83,0.23,4.19-0.34c0.51-0.04,1.03-0.07,1.54-0.11c2.88-1.21,5.96-1.24,9.01-1.46c0.72-0.22,1.43-0.44,2.15-0.67
			c2.53,0.12,4.99-0.65,7.52-0.6c3.85-0.78,7.81-0.53,11.66-1.26c2.12-0.11,4.26,0.12,6.36-0.39c2.62-0.16,5.26,0.26,7.85-0.37
			c9.8-0.03,19.6-0.01,29.39-0.01c2.87,0.49,5.76,0.53,8.64,0.1c1.68,0.73,3.46,0.62,5.23,0.67c1.51,0.51,3.08,0.24,4.62,0.34
			c1.33,0.26,2.67,0.42,4.02,0.37c1.12,0.38,2.28,0.33,3.43,0.37c1.31,0.33,2.65,0.37,3.99,0.38c1.6,0.7,3.29,0.76,4.99,0.71
			c1.05,0.36,2.15,0.32,3.24,0.42c0.84,0.3,1.71,0.31,2.58,0.31c1.14,0.35,2.31,0.4,3.49,0.3c0.44,0.02,0.88,0.04,1.32,0.05
			c0.95,0.8,2.06,0.75,3.19,0.63c0.4,0.03,0.8,0.07,1.2,0.1c0.76,0.71,1.79,0.64,2.69,0.95c1.61-0.1,3.11,0.95,4.75,0.46
			c0.23,0.04,0.46,0.07,0.69,0.11c1.72,1.41,4.28,0.51,5.92,2.15c0.08-1.03,0.72-0.9,1.4-0.68c1.11,0.98,2.44,1.15,3.84,1.08
			c1.88,0.41,3.65,1.2,5.57,1.44c1.7,0.43,3.42,0.75,5.06,1.36c1.02,0.09,2,0.35,2.94,0.74c1.29-0.26,2.33,1.32,3.69,0.51
			c0.29,0,0.57,0,0.86,0c1.11,0.99,2.39,1.47,3.89,1.32l0.26-0.13l0.19,0.22c1.29,0.92,2.89,1.09,4.29,1.74
			c1.06-0.22,1.91,0.88,3,0.47c0.75-0.12,1.45-0.09,1.94,0.61c1.53,0.79,3.07,1.56,4.86,1.49c0.25-0.12,0.46-0.07,0.63,0.14
			c1.09,0.98,2.35,1.45,3.83,1.3c0.21-0.11,0.39-0.07,0.53,0.13c0.88,0.98,2.17,1.13,3.3,1.62c1.07,0.28,2,0.99,3.16,0.99
			c0.68,0.51,1.47,0.66,2.28,0.78c1.84,1.17,3.93,1.72,5.97,2.39c0.24,0.04,0.48,0.08,0.72,0.12c1,1.02,2.44,0.85,3.63,1.37
			l-0.06-0.04c1.09,1.04,2.55,1.35,3.85,1.99c1.74,0.49,3.19,1.86,5.15,1.65c0.24-0.1,0.44-0.04,0.6,0.16
			c1.6,1.77,3.7,2.45,5.96,2.78c0.25-0.11,0.47-0.05,0.64,0.16c2.45,2.3,5.7,3.15,8.55,4.72c1.24,0.73,2.46,1.51,3.94,1.73
			c0.2,0.22,0.41,0.44,0.61,0.66c3.67,1.7,7.18,3.73,10.95,5.21c0.2,0.2,0.2,0.4,0.01,0.6c1.76,0.89,3.58,1.66,5.23,2.75
			c1.37,0.53,2.36,1.91,4.02,1.78l0.16-0.11l0.14,0.14c1.04,1.57,2.68,2.24,4.34,2.87c0.04,0.3,0.08,0.61,0.12,0.91
			c1.73,0.14,2.91,1.52,4.48,2.02c0.65,0.39,1.24,0.84,1.39,1.65c1.73,0.14,2.9,1.5,4.46,2.02c0.65,0.34,1.18,0.8,1.37,1.55
			c1.46,0.28,2.54,1.2,3.6,2.15c0.26,0.24,0.53,0.48,0.79,0.72c1.31,0.3,2.34,1.32,3.71,1.49l-0.06-0.03
			c0.56,1.13,1.65,1.71,2.57,2.47c0.83,0.66,1.77,1.18,2.51,1.94c0.68,0.21,1.32,0.46,1.49,1.26c1.23,0.6,2.37,1.38,3.73,1.68
			l-0.05-0.02c0.67,1.19,1.55,2.09,2.99,2.22l-0.06-0.05c0.65,1.21,1.53,2.11,2.98,2.25l-0.05,0c0.81,1.23,1.74,2.35,3.15,2.93
			c0.19-0.12,0.37-0.1,0.54,0.04c0.67,1.01,1.33,2.04,2.74,2.06c0.32,0.3,0.63,0.6,0.95,0.9
			C642.17,101.55,642.85,102.66,643.97,103.39z"/>
	</g>
	<circle class="st1" cx="400.27" cy="400" r="384.41"/>
</g>
<g>
</g>
<g>
</g>
<g>
</g>
<g>
</g>
<g>
</g>
<g>
</g>
</svg>
