<?xml version="1.0" encoding="utf-8"?>
<!-- Generator: Adobe Illustrator 25.3.1, SVG Export Plug-In . SVG Version: 6.00 Build 0)  -->
<svg version="1.1" id="Camada_2" xmlns="http://www.w3.org/2000/svg" xmlns:xlink="http://www.w3.org/1999/xlink" x="0px" y="0px"
	 viewBox="0 0 800 800" style="enable-background:new 0 0 800 800;" xml:space="preserve">
<style type="text/css">
	.st0{fill:#54AF4F;}
	.st1{fill:none;stroke:#000000;stroke-width:3;stroke-miterlimit:10;}
	.st2{fill:#A2AF89;}
</style>
<g>
	<g>
		<path class="st0" d="M643.97,103.39c0.38,0.03,0.75,0.05,1.13,0.08c0.94,1.33,1.98,2.57,3.26,3.59c0.91-0.36,1.24,0.6,1.89,0.83
			c0.91,1.34,1.97,2.55,3.23,3.57c1.57-0.67,1.54,1.38,2.62,1.55c1.32,1.92,3.06,3.44,4.71,5.04c2.69,0.48,3.4,3.4,5.57,4.51
			c3.28,3.87,6.86,7.44,10.72,10.72c1.15,2.14,4.02,2.89,4.51,5.56c1.59,1.66,3.12,3.38,5.02,4.7c0.29,1.02,2.13,1.09,1.58,2.61
			c1.28,1.47,2.66,2.84,4.27,3.97c0.05,0.23,0.09,0.47,0.14,0.7c0.88,1.81,2.67,2.88,3.72,4.56l-0.05-0.07
			c0.81,1.59,2.49,2.51,3.18,4.19c0.85,1.32,2.35,2.12,2.93,3.66c0.66,1.08,1.68,1.77,2.69,2.47l-0.01-0.06
			c0.07,1.23,0.82,2.06,1.64,2.84c0.57,1.17,1.41,2.14,2.31,3.07c0.58,1.25,1.46,2.24,2.65,2.94l0-0.04
			c0.09,1.3,1.07,2.16,1.63,3.23c0.46,0.81,1.13,1.4,1.93,1.84l0.23,0.18l-0.07,0.28c-0.17,1.1,0.93,1.54,1.26,2.38
			c0.67,1.09,1.47,2.09,2.31,3.06c0.3,0.33,0.59,0.65,0.89,0.98c0.03,1.4,1.24,2.18,1.74,3.33c0.61,0.76,1.09,1.62,1.79,2.31
			c1.02,1.53,2.04,3.05,3.06,4.58c0.35,1.93,1.54,3.38,2.71,4.85c0.44,0.74,1.08,1.4,0.87,2.38c1.41,1.56,2.19,3.58,3.7,5.07
			l-0.05-0.06c0.49,1.85,1.64,3.38,2.44,5.08c1.53,2.61,2.92,5.3,4.36,7.96c0.4,1.06,0.77,2.14,1.46,3.07
			c0.47,1,0.79,2.07,1.49,2.96c0.45,0.99,0.78,2.05,1.46,2.93c0.47,0.98,0.74,2.08,1.52,2.9c0.45,0.68,0.66,1.45,0.88,2.22
			c1.04,1.65,1.74,3.49,2.75,5.16c0.08,0.99,0.45,1.88,1.03,2.69c0.8,1.56,1.18,3.35,2.46,4.66l-0.06-0.08
			c0.17,1.79,1.12,3.31,1.67,4.96c0.25,0.92,0.73,1.72,1.3,2.48l0.16,0.21l-0.12,0.24c-0.05,1.3,0.8,2.21,1.43,3.21
			c0.07,1.32,1.85,1.92,1.43,3.45c0.33,1.35,0.27,2.84,1.49,3.85c0.8,0.46,0.73,1.24,0.72,1.99c0.34,1.33,0.22,2.82,1.44,3.82
			c0.2,0.12,0.24,0.29,0.11,0.48c-0.15,1.5,0.32,2.79,1.34,3.88c0.22,0.12,0.26,0.29,0.13,0.5c-0.16,1.5,0.32,2.79,1.33,3.89
			c0.22,0.13,0.26,0.3,0.14,0.52c-0.23,1.41,0.51,2.59,0.9,3.85c0.2,0.82,0.51,1.58,1.13,2.19c0.02,0.28,0.04,0.55,0.06,0.83
			c0.03,1.57,1.2,2.76,1.43,4.27c0.12,0.3,0.22,0.61,0.3,0.93c0.25,1.13,0.61,2.23,0.85,3.36c0.45,1.28,0.68,2.62,1.03,3.93
			c-0.05,1.79,0.7,3.35,1.46,4.9c0.41,1.12,0.35,2.37,0.94,3.44c0.38,0.76,0.61,1.57,0.6,2.43c0.17,1.29,0.25,2.59,1.01,3.72
			c0.14,0.3,0.23,0.62,0.25,0.96c-0.07,2.19,0.59,4.28,0.97,6.4c0.31,1.16,0.31,2.4,0.8,3.52c0.1,0.34,0.16,0.68,0.19,1.03
			c0.47,2.22,0.58,4.5,1.31,6.67c0.22,0.69,0.41,1.38,0.41,2.11c-0.18,1.84,0.67,3.57,0.54,5.4c0.63,3.41,1.2,6.82,1.44,10.28
			c-0.05,1.14,0.08,2.25,0.48,3.33c0.24,1.1,0.22,2.21,0.24,3.32c0.03,1.23-0.12,2.49,0.36,3.68c0.29,1.04,0.36,2.13,0.69,3.17
			c0.08,0.38,0.1,0.76,0.09,1.14c-0.24,3.9,0.69,7.76,0.35,11.66c0.04,2.52-0.25,5.07,0.62,7.52c0.19,9.17,0.21,18.34,0,27.5
			c-0.71,2.09-0.65,4.25-0.62,6.41c-0.05,2.32,0.1,4.64-0.16,6.95c-0.56,1.54-0.65,3.14-0.58,4.75c-0.03,1.38,0.04,2.76-0.19,4.13
			c-0.46,1.26-0.61,2.57-0.55,3.9c-0.02,0.92-0.02,1.85-0.23,2.76c-0.6,1.54-0.63,3.1-0.1,4.67c0.11,0.72,0.08,1.43-0.12,2.13
			c-1.33,2.52-1.32,5.28-1.37,8.03c0.05,0.52,0.01,1.04-0.1,1.55c-1.08,2.47-1.34,5.11-1.53,7.76c0,0.32-0.05,0.64-0.14,0.95
			c-0.43,0.81-0.93,1.61-0.85,2.6c0.05,1.61-0.72,3.14-0.45,4.76c-0.01,0.34-0.06,0.67-0.16,0.99c-1,1.79-1.04,3.85-1.57,5.77
			c-0.03,0.34-0.1,0.67-0.19,1.01c-0.66,1.77-0.67,3.69-1.27,5.47c-0.44,1.93-1.12,3.8-1.15,5.81c-0.03,0.33-0.1,0.65-0.2,0.96
			c-0.9,1.54-1.14,3.31-1.71,4.97c-0.44,1.03-0.56,2.1-0.4,3.21c-0.06,1.01-0.33,1.96-0.81,2.85c-1.39,2.12-1.7,4.64-2.56,6.95
			c-0.61,1.54-0.88,3.14-0.95,4.79c-0.21,1.54-0.69,2.99-1.43,4.36c-1.45,1.93-1.79,4.34-2.76,6.47c-0.55,1.22-1.01,2.47-1.34,3.77
			c-0.47,1.09-0.61,2.26-0.79,3.42c-0.2,0.83-0.54,1.6-0.95,2.35c-1.22,1.56-1.95,3.36-2.46,5.26c-0.1,0.64-0.24,1.28-0.5,1.88
			c-0.9,1.49-1.8,2.99-2.06,4.76c-0.1,0.31-0.23,0.61-0.39,0.89c-1.1,1.61-2,3.31-2.53,5.2c-1.29,3.49-3.79,6.47-4.29,10.29
			c-0.17,0.66-0.48,1.26-0.87,1.82c-0.93,1.1-1.75,2.27-1.98,3.74c-0.2,0.79-0.56,1.49-1.11,2.09c-0.79,0.71-1.5,1.47-1.92,2.47
			c-0.35,0.69-0.66,1.39-1,2.08c-0.71,1.41-1.53,2.77-1.79,4.36c-0.29,1.13-0.78,2.15-1.58,3.01c-1.12,0.89-1.82,2.06-2.2,3.43
			c-0.11,0.3-0.25,0.58-0.41,0.85c-0.94,1.24-1.94,2.44-2.73,3.79c-0.81,1.15-1.37,2.45-2.03,3.68c-0.74,1.2-1.56,2.36-2.31,3.55
			c-0.63,0.89-1.08,1.88-1.63,2.81c-0.71,1.01-1.4,2.04-2.07,3.08c-0.78,1.15-1.6,2.28-2.09,3.6c-0.14,0.29-0.31,0.56-0.5,0.81
			c-0.97,1.06-1.89,2.15-2.38,3.53c-0.14,0.3-0.31,0.57-0.51,0.84c-0.97,1.09-1.99,2.15-2.32,3.66c-0.23,0.64-0.58,1.2-1.1,1.64
			c-1.11,0.69-1.88,1.7-2.57,2.79c-0.68,1.06-1.6,1.94-2.27,3.01c-0.52,0.77-1.12,1.47-1.69,2.21c-0.74,0.98-1.44,1.99-2.2,2.95
			c-0.89,1.27-1.9,2.45-2.77,3.74c-0.63,0.88-1.36,1.7-1.72,2.75c-0.25,0.6-0.6,1.14-1.09,1.57c-1.17,0.83-2.27,1.74-3.03,2.98
			c-0.78,1.2-2,2.1-2.48,3.51c-0.37,0.92-0.95,1.68-1.73,2.28c-1.14,0.77-2.31,1.51-2.72,2.95c-0.5,1.24-1.39,2.16-2.43,2.95
			c-1.69,1.18-3.37,2.37-4.16,4.41c-1.07,2.15-2.92,3.61-4.65,5.16c-4.86,3.96-9.15,8.49-13.3,13.17c-1.13,1.54-2.39,2.94-4.12,3.84
			c-2.53,1.11-4.11,3.26-5.74,5.34c-0.44,0.51-0.98,0.9-1.57,1.22c-2.03,0.73-3.22,2.53-4.78,3.85c-0.24,0.22-0.49,0.41-0.76,0.59
			c-1.43,0.76-2.43,2.03-3.63,3.07c-0.24,0.22-0.5,0.41-0.76,0.59c-1.38,0.8-2.56,1.88-3.86,2.8c-1.21,1-2.42,2.02-3.7,2.94
			c-0.88,0.68-1.65,1.5-2.55,2.16c-1.39,0.85-2.57,1.97-3.91,2.87c-0.77,0.56-1.51,1.16-2.29,1.7c-0.93,0.58-1.7,1.37-2.6,2.01
			c-1.06,0.66-2.1,1.37-3.13,2.09c-0.63,0.47-1.23,0.98-1.85,1.46c-0.25,0.2-0.51,0.37-0.79,0.53c-0.94,0.58-1.85,1.19-2.74,1.83
			c-0.76,0.54-1.48,1.12-2,1.93c-0.33,0.38-0.72,0.65-1.2,0.82c-1.39,0.19-2.37,0.98-3.14,2.09c-0.33,0.39-0.73,0.68-1.22,0.85
			c-1.33,0.2-2.45,0.87-3.56,1.56c-1.26,0.65-2.41,1.48-3.58,2.27c-0.91,0.62-1.89,1.14-2.84,1.7c-1.11,0.61-2.14,1.38-3.25,1.99
			c-1.68,0.97-3.33,1.97-4.96,3c-1.67,1.09-3.51,1.87-5.22,2.88c-2.95,1.93-6.3,3.15-9.17,5.22c-0.27,0.18-0.57,0.31-0.88,0.4
			c-1.07,0.17-2.05,0.6-2.99,1.13c-0.98,0.48-1.94,0.97-2.91,1.47c-1.29,0.6-2.55,1.25-3.79,1.96c-0.28,0.17-0.57,0.31-0.87,0.44
			c-2.76,1.46-5.66,2.58-8.48,3.91c-0.29,0.17-0.59,0.31-0.89,0.44c-1.49,0.72-3.05,1.27-4.55,1.94c-1.66,0.74-3.33,1.47-5.02,2.14
			c-0.92,0.35-1.82,0.78-2.77,1.06c-1.51,0.63-3.03,1.23-4.54,1.85c-1.2,0.52-2.45,0.9-3.63,1.46c-0.29,0.16-0.6,0.28-0.91,0.39
			c-1.86,0.73-3.78,1.29-5.65,1.98c-1.26,0.35-2.5,0.74-3.64,1.39c-2.3,1.31-4.79,2.04-7.4,2.43c-0.83,0.03-1.57,0.42-2.36,0.64
			c-1.29,0.35-2.54,0.83-3.79,1.29c-1.32,0.32-2.58,0.9-3.94,1.07c-1.27,0.44-2.62,0.6-3.88,1.06c-0.79,0.25-1.59,0.45-2.37,0.72
			c-2.08,0.42-4.1,0.99-6.01,1.95c-0.3,0.14-0.61,0.24-0.92,0.32c-1.23,0.3-2.57,0.12-3.68,0.93c-0.6,0.32-1.24,0.51-1.92,0.54
			c-2.06-0.23-4,0.35-5.93,0.94c-2.02,0.52-4.09,0.78-6.1,1.34c-1.18,0.14-2.31,0.42-3.33,1.08c-0.86,0.27-1.71,0.2-2.57,0.02
			c-1.91,0.18-3.79,0.57-5.64,1.08c-1.42,0.31-2.92,0.14-4.3,0.74c-0.92,0.22-1.85,0.22-2.79,0.26c-2.52,0.61-5.18,0.44-7.65,1.35
			c-0.91,0.36-1.84,0.55-2.83,0.46c-2.51-0.45-4.94,0.74-7.45,0.4c-3.52,0.91-7.2,0.35-10.71,1.23c-1.81,0.34-3.65,0.12-5.47,0.31
			c-2.98,0.7-6.09-0.84-9.03,0.52c-3.5,0.25-7,0.08-10.5,0.14c-3.14-0.01-6.28-0.01-9.41,0c-3.57-0.07-7.14,0.13-10.7-0.15
			c-2.47-0.9-5.05-0.52-7.59-0.59c-1.87-0.04-3.75,0.07-5.62-0.17c-1.52-0.57-3.11-0.63-4.71-0.57c-1.38-0.03-2.76,0.04-4.13-0.2
			c-1.1-0.35-2.21-0.62-3.39-0.53c-1.15-0.02-2.31,0.01-3.45-0.12c-1.78-0.66-3.68-0.57-5.52-0.82c-1.16-0.36-2.33-0.65-3.57-0.49
			c-0.81,0.14-1.62,0.36-2.45,0.11c-0.96-0.43-1.85-1.12-3.01-0.83c-0.64,0.1-1.28,0.12-1.92-0.04c-1.49-0.89-3.22-0.71-4.82-1.07
			c-1.09-0.43-2.27-0.43-3.4-0.69c-1.08-0.41-2.18-0.47-3.31-0.16c-0.5,0.04-0.99-0.03-1.46-0.21c-0.97-0.71-2.12-0.89-3.27-1.06
			c-2.06-0.56-4.17-0.84-6.24-1.33c-1.87-0.69-3.89-0.71-5.77-1.35c-1.07-0.09-2.02-0.63-3.08-0.77c-1.05-0.12-1.99-0.66-3.05-0.75
			c-1.21-0.21-2.34-0.73-3.58-0.85c-1.68-0.56-3.43-0.85-5.12-1.4c-1.63-0.64-3.37-0.88-5.02-1.46c-1.26-0.48-2.54-0.88-3.82-1.3
			c-1.3-0.24-2.59-0.57-3.94-0.56c-3.58-0.79-7.03-1.94-10.38-3.43c-0.85-0.48-1.58-1.18-2.52-1.52c-1.12-0.54-2.29-0.96-3.51-1.22
			c-1.03-0.33-2.12-0.41-3.13-0.79c-1.02-0.75-2.12-1.36-3.34-1.71c-1.01-0.41-1.96-0.95-3.02-1.23c-0.3-0.08-0.58-0.2-0.86-0.32
			c-0.95-0.48-1.93-0.82-3.01-0.84c-0.32-0.06-0.62-0.18-0.9-0.34c-1.02-0.87-2.24-1.35-3.49-1.75c-1.76-0.85-3.51-1.74-5.46-2.09
			c-0.63-0.21-1.21-0.5-1.78-0.84c-1.05-0.73-2.11-1.45-3.31-1.92c-1.77-0.76-3.56-1.46-5.36-2.13c-0.31-0.1-0.6-0.23-0.88-0.39
			c-1.17-0.81-2.39-1.53-3.69-2.12c-0.98-0.51-1.97-1-2.97-1.47c-1.4-0.77-2.84-1.46-4.28-2.15c-0.86-0.46-1.69-0.97-2.52-1.49
			c-1.79-1.17-3.72-2.05-5.73-2.77c-0.31-0.13-0.6-0.29-0.88-0.47c-1.14-0.94-2.31-1.82-3.68-2.41c-1.88-0.97-3.58-2.22-5.48-3.16
			c-1.05-0.73-2.1-1.47-3.19-2.14c-0.93-0.65-1.99-1.04-3.02-1.47c-0.3-0.15-0.57-0.33-0.82-0.53c-1.39-1.4-3.09-2.34-4.81-3.23
			c-1.28-1.02-2.75-1.66-4.3-2.16c-1.64-0.8-3.19-1.76-4.51-3.03c-0.71-1.04-1.51-1.96-2.79-2.31c-0.42-0.23-0.79-0.52-1.13-0.86
			c-0.92-1.09-2.11-1.85-3.3-2.6c-1-0.74-1.88-1.65-3.1-2.05c-0.59-0.29-1.11-0.67-1.58-1.12c-0.83-0.99-1.88-1.75-2.88-2.55
			c-1.4-1.03-2.74-2.15-4.2-3.1c-0.74-0.57-1.45-1.19-2.36-1.5c-0.61-0.25-1.15-0.59-1.58-1.09c-0.55-0.79-1.17-1.51-2.12-1.84
			c-0.61-0.26-1.14-0.62-1.58-1.11c-0.73-1.05-1.5-2.06-2.77-2.51c-0.61-0.27-1.16-0.62-1.6-1.12c-0.75-1.07-1.52-2.12-2.84-2.56
			c-0.94-0.39-1.71-0.99-2.33-1.79c-1.16-1.67-2.36-3.29-4.34-4.09c-1.58-0.69-2.71-1.91-3.75-3.22c-2.31-3.09-5.02-5.77-8.08-8.11
			c-2.43-1.15-3.95-3.19-5.33-5.38c-2.41-3.07-5.12-5.84-8.28-8.15c-1.08-0.86-2.02-1.85-2.65-3.1c-0.71-1.95-2.3-3.1-3.88-4.27
			c-0.51-0.44-0.89-0.97-1.21-1.56c-0.73-2.04-2.53-3.22-3.86-4.78c-0.22-0.24-0.41-0.5-0.59-0.76c-0.77-1.42-2.05-2.44-2.92-3.77
			c-0.83-1.35-2.07-2.37-2.94-3.69c-0.87-1.29-1.88-2.47-2.78-3.73c-0.76-0.97-1.64-1.85-2.34-2.88c-0.66-1.04-1.52-1.93-2.2-2.94
			c-0.65-1.03-1.51-1.91-2.18-2.94c-0.5-0.77-1.03-1.52-1.55-2.28c-0.67-1.06-1.57-1.94-2.25-2.98c-0.68-1.09-1.5-2.06-2.35-3.01
			c-0.2-0.26-0.36-0.54-0.51-0.83c-0.41-1.22-1.22-2.21-1.89-3.29c-0.5-0.76-1.01-1.52-1.62-2.2c-0.3-0.34-0.56-0.72-0.78-1.12
			c-0.42-0.96-1-1.83-1.58-2.7C75.75,606,75.05,605,74.37,604c-0.62-0.9-1.12-1.85-1.67-2.79c-0.6-1.09-1.35-2.09-2.04-3.12
			c-0.8-1.18-1.41-2.47-2.11-3.7c-0.63-1.27-1.5-2.4-2.17-3.64c-0.43-0.85-1-1.62-1.52-2.42c-0.78-1.43-1.46-2.92-2.31-4.33
			c-1.87-3.01-3.38-6.21-5.01-9.35c-0.68-1.52-1.43-3.01-2.22-4.48c-0.69-1.52-1.45-2.99-2.24-4.46c-1.1-2.45-2.43-4.8-3.55-7.24
			c-0.36-0.93-0.61-1.9-1.09-2.79c-0.74-1.49-1.31-3.04-1.97-4.56c-0.81-1.78-1.46-3.64-2.68-5.21c-0.62-1.19-1.09-2.44-1.61-3.68
			c-0.37-1.45-0.73-2.91-1.43-4.25c-0.13-0.31-0.23-0.62-0.31-0.94c-0.64-2.69-1.61-5.25-2.96-7.66c-0.16-0.29-0.27-0.59-0.35-0.91
			c-0.33-1.91-0.95-3.73-1.78-5.49c-0.76-2.09-1.78-4.09-2.3-6.27c-0.01-1.23-0.53-2.33-0.82-3.49c-0.41-1.15-0.77-2.32-1.19-3.46
			c-0.47-2.06-0.92-4.13-1.62-6.14c-0.52-1.66-0.81-3.39-1.42-5.03c-0.49-1.6-0.79-3.26-1.37-4.84c-0.23-0.62-0.39-1.25-0.5-1.9
			c-0.14-1.11-0.39-2.21-0.53-3.33c-0.51-1.55-0.58-3.2-1.06-4.76c-0.28-0.93-0.31-1.92-0.8-2.79c-0.28-0.6-0.48-1.23-0.51-1.9
			c0.05-1.97-0.49-3.85-0.92-5.74c-0.32-1.09-0.2-2.29-0.78-3.33c-0.28-0.63-0.48-1.27-0.51-1.97c0.14-1.76-0.63-3.41-0.59-5.16
			c-0.84-2.09-0.38-4.42-1.19-6.51c-0.21-0.95-0.2-1.91-0.24-2.88c-0.73-2.64-0.46-5.44-1.23-8.07c-0.39-1.93,0.07-3.97-0.74-5.86
			c-0.26-1.39-0.19-2.79-0.22-4.19c0.06-1.4-0.05-2.77-0.55-4.1c-0.25-1.63-0.16-3.27-0.19-4.91c0-2.1,0.16-4.21-0.6-6.23
			c-0.27-3.57-0.08-7.15-0.15-10.72c0.01-6.42,0-12.83,0-19.25c0-1.34,0-2.67,0-4.01c0.06-2.59-0.11-5.19,0.16-7.78
			c0.76-1.98,0.57-4.05,0.58-6.1c0.03-1.42-0.04-2.84,0.19-4.24c0.59-1.49,0.59-3.05,0.55-4.62c0.02-1.16-0.01-2.33,0.21-3.48
			c0.48-1.25,0.58-2.56,0.53-3.89c0.02-1.13-0.01-2.25,0.22-3.37c0.34-1.05,0.59-2.11,0.52-3.23c0-0.55,0.01-1.1,0.07-1.65
			c0.59-1.74,0.64-3.57,0.89-5.37c0.36-1,0.56-2.03,0.53-3.1c0.02-0.52,0.05-1.04,0.16-1.55c0.22-0.99,0.62-1.95,0.62-2.99
			c0.04-0.51,0.15-1.01,0.28-1.51c0.38-0.97,0.42-2,0.43-3.03c0.02-0.36,0.08-0.71,0.16-1.06c0.46-2.32,1.06-4.62,1.31-6.98
			c0.68-2.11,0.89-4.33,1.62-6.42c0.59-1.12,0.91-2.32,1.21-3.54c0.5-2,0.96-4.01,1.07-6.08c-0.37-1.16,0.8-1.87,0.84-2.91
			c1.15-1.58,0.79-3.77,2.14-5.27l-0.01-0.27c-0.49-1.92,0.46-3.41,1.48-4.87l-0.13-0.14l0.12-0.15c-0.55-1.1,0.3-2.01,0.42-3.02
			c0.48-1.32,0.95-2.65,1.4-3.98c0-1.11,0.43-2.07,1.13-2.91c0.02-2.33,0.4-4.53,2.19-6.23c0.08-1.94,0.61-3.75,1.47-5.48
			c0.03-0.46,0.06-0.91,0.09-1.37c1.08-1.07,1.12-2.71,2.1-3.82c-0.5-0.87-0.57-1.56,0.72-1.64c-0.59-1.72,1.3-2.79,1.13-4.4
			c0.27-1.18,1.01-2.16,1.41-3.28c0.16-1.38,1.19-2.37,1.59-3.65c0.61-1.7,1.16-3.42,2.09-4.98c0.58-1.8,1.63-3.44,1.81-5.37
			c0.27-0.45,0.53-0.91,0.8-1.36c1.01-1.21,1.53-2.68,2.17-4.08c-0.21-0.67,0.09-1.12,0.65-1.45c0.85-1.51,1.36-3.2,2.27-4.68
			c0.05-0.3,0.11-0.59,0.16-0.89c0.76-0.82,1.22-1.82,1.72-2.8c0.37-0.89,0.85-1.72,1.3-2.56c0.42-0.72,0.62-1.54,1.07-2.24
			c1.51-2.52,2.92-5.1,3.82-7.92c0.25-0.41,0.51-0.82,0.76-1.23c1.21-0.69,1.46-2,2.03-3.1c0.63-0.94,0.95-2.07,1.85-2.83
			c0.18-0.48,0.36-0.96,0.55-1.43c1.12-1.61,2.23-3.24,2.87-5.12l-0.06,0.09c1.51-1.52,2.47-3.43,3.71-5.15
			c0.04-0.3,0.09-0.59,0.13-0.89c0.67-0.73,1.23-1.55,1.8-2.35c1.06-1.64,2.17-3.25,3.2-4.91c0.28-0.5,0.56-1,0.84-1.49
			c0.83-1.27,1.89-2.36,2.81-3.56c0.05-0.28,0.1-0.57,0.15-0.85c0.96-1.09,1.7-2.37,2.77-3.38c0.3-0.58,0.6-1.17,0.9-1.75
			c0.88-1.13,1.83-2.22,2.48-3.51c0.84-0.93,1.71-1.83,2.24-3c0.88-0.89,1.69-1.83,2.23-2.98c0.77-0.81,1.54-1.6,2.06-2.6
			c0.61-1.18,1.93-1.72,2.59-2.85c0.02-0.37,0.04-0.74,0.06-1.11c1.04-0.75,2.15-1.44,2.88-2.55c0.03-0.38,0.06-0.76,0.08-1.13
			c1.33-0.93,2.56-1.98,3.58-3.26c0.03-0.38,0.06-0.76,0.09-1.14c1.33-0.94,2.57-1.96,3.57-3.27c-0.41-0.94,0.71-1.19,0.85-1.88
			c1.62-1.12,2.98-2.51,4.29-3.97c0.14-1.3,0.89-2.09,2.09-2.5c2.24-2.66,4.63-5.18,7.39-7.32c1.9-4.17,5.57-6.71,8.86-9.6
			c3.02-2.02,4.98-5.21,8-7.24c0.62-1.18,1.18-2.43,2.53-3c2.23-0.46,3.04-2.74,4.81-3.77c0.06-0.23,0.12-0.46,0.18-0.7
			c2.29-0.39,3.21-2.59,4.94-3.73c0.1-0.19,0.21-0.39,0.31-0.58c1.91-0.32,2.66-2.16,4.09-3.12c0.1-0.18,0.21-0.36,0.31-0.55
			c1.6-0.08,2.2-1.61,3.35-2.33c0.1-0.2,0.21-0.4,0.31-0.6c1.5,0.04,1.85-1.3,2.61-2.15l-0.05-0.01c1.77-0.13,2.65-1.77,4.1-2.44
			c0.83-0.49,1.42-1.28,2.27-1.75c1.36-0.72,2.29-2.15,3.93-2.43c0.02-0.45,0.26-0.69,0.71-0.71c1.08-1.47,2.73-2.21,4.15-3.23
			c0.71-0.34,1.12-1.19,2.01-1.25c0.75-0.72,1.51-1.44,2.26-2.16c1.37,0.17,1.99-1.44,3.31-1.4c0.33-0.54,0.65-1.08,0.98-1.62
			c1.27-0.26,2.44-0.76,3.45-1.59c1.52-1.17,3.04-2.34,4.55-3.51c1.3-0.15,2.35-0.9,3.51-1.41l-0.06,0.08
			c1.07-1.64,3.35-1.8,4.33-3.54c0.64-0.31,1.28-0.62,1.92-0.93c2.35-0.36,3.91-2.46,6.24-2.87c0.01-0.26,0.03-0.51,0.04-0.77
			c2.41-0.78,4.61-1.94,6.53-3.61c1.53-0.24,1.99-2.28,3.71-2.21c4.34-0.87,7.74-3.89,11.88-5.23c0.19-0.22,0.37-0.43,0.56-0.65
			c1.51-0.36,2.9-1.08,4.39-1.48c0.1-0.3,0.19-0.6,0.29-0.9c2.33,0.08,3.99-2,6.3-1.99c0.08-0.3,0.15-0.61,0.23-0.91
			c2.28-0.17,4.19-1.53,6.37-2.03c0.22-0.76,0.85-0.74,1.46-0.78c2.48-1.35,5.16-2.23,7.77-3.26c1.29-0.48,2.59-0.89,3.95-1.09
			c0.06-1.38,1.05-1.5,2.1-1.55c1.39,0.1,2.57-0.55,3.81-1.02c1.16-0.68,2.51-0.73,3.75-1.17c2.36-0.98,4.73-1.96,7.09-2.93
			c1.64,0.01,3.12-0.72,4.7-1.02c1.11-0.35,2.24-0.64,3.34-1.03c1.28-0.49,2.67-0.58,3.92-1.15c1.61-0.59,3.34-0.77,4.93-1.4
			c1.67-0.74,3.67-0.54,5.13-1.86c0.29-0.01,0.59-0.03,0.88-0.04c2.1,0.13,3.98-0.88,6-1.16c1.65-0.71,3.56-0.44,5.14-1.4
			c1.48,0.25,2.81-0.89,4.31-0.42c1.28-1.02,2.97-0.77,4.38-1.38c2.25-0.13,4.42-0.69,6.6-1.17c1.26,0.11,2.44-0.22,3.6-0.66
			c1.38-0.29,2.83,0.23,4.19-0.34c0.51-0.04,1.03-0.07,1.54-0.11c2.88-1.21,5.96-1.24,9.01-1.46c0.72-0.22,1.43-0.44,2.15-0.67
			c2.53,0.12,4.99-0.65,7.52-0.6c3.85-0.78,7.81-0.53,11.66-1.26c2.12-0.11,4.26,0.12,6.36-0.39c2.62-0.16,5.26,0.26,7.85-0.37
			c9.8-0.03,19.6-0.01,29.39-0.01c2.87,0.49,5.76,0.53,8.64,0.1c1.68,0.73,3.46,0.62,5.23,0.67c1.51,0.51,3.08,0.24,4.62,0.34
			c1.33,0.26,2.67,0.42,4.02,0.37c1.12,0.38,2.28,0.33,3.43,0.37c1.31,0.33,2.65,0.37,3.99,0.38c1.6,0.7,3.29,0.76,4.99,0.71
			c1.05,0.36,2.15,0.32,3.24,0.42c0.84,0.3,1.71,0.31,2.58,0.31c1.14,0.35,2.31,0.4,3.49,0.3c0.44,0.02,0.88,0.04,1.32,0.05
			c0.95,0.8,2.06,0.75,3.19,0.63c0.4,0.03,0.8,0.07,1.2,0.1c0.76,0.71,1.79,0.64,2.69,0.95c1.61-0.1,3.11,0.95,4.75,0.46
			c0.23,0.04,0.46,0.07,0.69,0.11c1.72,1.41,4.28,0.51,5.92,2.15c0.08-1.03,0.72-0.9,1.4-0.68c1.11,0.98,2.44,1.15,3.84,1.08
			c1.88,0.41,3.65,1.2,5.57,1.44c1.7,0.43,3.42,0.75,5.06,1.36c1.02,0.09,2,0.35,2.94,0.74c1.29-0.26,2.33,1.32,3.69,0.51
			c0.29,0,0.57,0,0.86,0c1.11,0.99,2.39,1.47,3.89,1.32l0.26-0.13l0.19,0.22c1.29,0.92,2.89,1.09,4.29,1.74
			c1.06-0.22,1.91,0.88,3,0.47c0.75-0.12,1.45-0.09,1.94,0.61c1.53,0.79,3.07,1.56,4.86,1.49c0.25-0.12,0.46-0.07,0.63,0.14
			c1.09,0.98,2.35,1.45,3.83,1.3c0.21-0.11,0.39-0.07,0.53,0.13c0.88,0.98,2.17,1.13,3.3,1.62c1.07,0.28,2,0.99,3.16,0.99
			c0.68,0.51,1.47,0.66,2.28,0.78c1.84,1.17,3.93,1.72,5.97,2.39c0.24,0.04,0.48,0.08,0.72,0.12c1,1.02,2.44,0.85,3.63,1.37
			l-0.06-0.04c1.09,1.04,2.55,1.35,3.85,1.99c1.74,0.49,3.19,1.86,5.15,1.65c0.24-0.1,0.44-0.04,0.6,0.16
			c1.6,1.77,3.7,2.45,5.96,2.78c0.25-0.11,0.47-0.05,0.64,0.16c2.45,2.3,5.7,3.15,8.55,4.72c1.24,0.73,2.46,1.51,3.94,1.73
			c0.2,0.22,0.41,0.44,0.61,0.66c3.67,1.7,7.18,3.73,10.95,5.21c0.2,0.2,0.2,0.4,0.01,0.6c1.76,0.89,3.58,1.66,5.23,2.75
			c1.37,0.53,2.36,1.91,4.02,1.78l0.16-0.11l0.14,0.14c1.04,1.57,2.68,2.24,4.34,2.87c0.04,0.3,0.08,0.61,0.12,0.91
			c1.73,0.14,2.91,1.52,4.48,2.02c0.65,0.39,1.24,0.84,1.39,1.65c1.73,0.14,2.9,1.5,4.46,2.02c0.65,0.34,1.18,0.8,1.37,1.55
			c1.46,0.28,2.54,1.2,3.6,2.15c0.26,0.24,0.53,0.48,0.79,0.72c1.31,0.3,2.34,1.32,3.71,1.49l-0.06-0.03
			c0.56,1.13,1.65,1.71,2.57,2.47c0.83,0.66,1.77,1.18,2.51,1.94c0.68,0.21,1.32,0.46,1.49,1.26c1.23,0.6,2.37,1.38,3.73,1.68
			l-0.05-0.02c0.67,1.19,1.55,2.09,2.99,2.22l-0.06-0.05c0.65,1.21,1.53,2.11,2.98,2.25l-0.05,0c0.81,1.23,1.74,2.35,3.15,2.93
			c0.19-0.12,0.37-0.1,0.54,0.04c0.67,1.01,1.33,2.04,2.74,2.06c0.32,0.3,0.63,0.6,0.95,0.9
			C642.17,101.55,642.85,102.66,643.97,103.39z"/>
	</g>
	<circle class="st1" cx="400.27" cy="400" r="384.41"/>
	<circle class="st1" cx="400.94" cy="399.65" r="350.3"/>
	<g>
		<g>
			<path d="M16.53,381.05c0.8,0,0.81-1.25,0-1.25C15.73,379.8,15.73,381.05,16.53,381.05L16.53,381.05z"/>
		</g>
	</g>
	<g>
		<g>
			<path d="M17.88,376.99c10.36,0,20.73,0,31.09,0c0.8,0,0.81-1.25,0-1.25c-10.36,0-20.73,0-31.09,0
				C17.08,375.74,17.08,376.99,17.88,376.99L17.88,376.99z"/>
		</g>
	</g>
	<g>
		<g>
			<path d="M749.27,359.42c10.82,0,21.63,0,32.45,0c0.8,0,0.81-1.25,0-1.25c-10.82,0-21.63,0-32.45,0
				C748.46,358.17,748.46,359.42,749.27,359.42L749.27,359.42z"/>
		</g>
	</g>
	<g>
		<g>
			<path d="M392.31,49.2c0-10.59,0-21.18,0-31.77c0-0.8-1.25-0.81-1.25,0c0,10.59,0,21.18,0,31.77
				C391.06,50.01,392.31,50.01,392.31,49.2L392.31,49.2z"/>
		</g>
	</g>
	<g>
		<g>
			<path d="M393.09,749.49c0,11.27,0,22.53,0,33.8c0,0.8,1.25,0.81,1.25,0c0-11.27,0-22.53,0-33.8
				C394.34,748.69,393.09,748.69,393.09,749.49L393.09,749.49z"/>
		</g>
	</g>
	<g>
		<g>
			<path d="M159.39,653.07c-8.34,8.34-16.67,16.67-25.01,25.01c-0.57,0.57,0.31,1.45,0.88,0.88c8.34-8.34,16.67-16.67,25.01-25.01
				C160.85,653.38,159.96,652.5,159.39,653.07L159.39,653.07z"/>
		</g>
	</g>
	<g>
		<g>
			<path d="M637.5,142.25c8.11-8.11,16.22-16.22,24.33-24.33c0.57-0.57-0.31-1.45-0.88-0.88c-8.11,8.11-16.22,16.22-24.33,24.33
				C636.05,141.94,636.93,142.82,637.5,142.25L637.5,142.25z"/>
		</g>
	</g>
	<g>
		<g>
			<path d="M169.74,135.28c-7.93-7.93-15.86-15.86-23.79-23.79c-0.57-0.57-1.45,0.31-0.88,0.88c0.95,0.95,1.89,1.89,2.84,2.84
				c0.57,0.57,1.45-0.31,0.88-0.88c-0.95-0.95-1.89-1.89-2.84-2.84c-0.29,0.29-0.59,0.59-0.88,0.88
				c7.93,7.93,15.86,15.86,23.79,23.79C169.43,136.74,170.31,135.85,169.74,135.28L169.74,135.28z"/>
		</g>
	</g>
	<g>
		<g>
			<path d="M671.09,621.5c7.66,7.66,15.32,15.32,22.98,22.98c0.57,0.57,1.45-0.31,0.88-0.88c-7.66-7.66-15.32-15.32-22.98-22.98
				C671.41,620.05,670.52,620.93,671.09,621.5L671.09,621.5z"/>
		</g>
	</g>
	<g>
		<g>
			<path d="M717.95,248.09c9.48-4.53,19.32-8.27,29.41-11.21c0.77-0.22,0.44-1.43-0.33-1.21c-10.19,2.97-20.12,6.76-29.7,11.34
				C716.6,247.35,717.23,248.43,717.95,248.09L717.95,248.09z"/>
		</g>
	</g>
	<g>
		<g>
			<path d="M523.57,70.8c6.6-8.86,13.42-17.54,20.45-26.05c0.51-0.62-0.37-1.5-0.88-0.88c-7.1,8.59-13.99,17.36-20.65,26.3
				C522.01,70.82,523.09,71.44,523.57,70.8L523.57,70.8z"/>
		</g>
	</g>
	<g>
		<g>
			<path d="M282.15,68.44c-2.33-5.16-4.66-10.32-6.99-15.48c-2.27-5.02-4.81-10.01-6.45-15.28c-0.24-0.77-1.44-0.44-1.21,0.33
				c1.62,5.22,4.13,10.16,6.37,15.13c2.4,5.31,4.8,10.62,7.19,15.93C281.41,69.8,282.48,69.17,282.15,68.44L282.15,68.44z"/>
		</g>
	</g>
	<g>
		<g>
			<path d="M93.93,227.75c-9.77-4.59-19.24-9.81-28.34-15.62c-0.68-0.43-1.31,0.65-0.63,1.08c9.1,5.81,18.56,11.03,28.34,15.62
				C94.02,229.17,94.65,228.09,93.93,227.75L93.93,227.75z"/>
		</g>
	</g>
	<g>
		<g>
			<path d="M71.16,515.15c-11.28,3.32-22.57,6.63-33.85,9.95c-0.77,0.23-0.44,1.43,0.33,1.21c11.28-3.32,22.57-6.63,33.85-9.95
				C72.26,516.13,71.93,514.92,71.16,515.15L71.16,515.15z"/>
		</g>
	</g>
	<g>
		<g>
			<path d="M266.22,723.71c-4.26,11.27-8.51,22.55-12.77,33.82c-0.28,0.75,0.92,1.08,1.21,0.33c4.26-11.27,8.51-22.55,12.77-33.82
				C267.71,723.29,266.51,722.97,266.22,723.71L266.22,723.71z"/>
		</g>
	</g>
	<g>
		<g>
			<path d="M558.03,713.16c3.55,10.16,7.1,20.32,10.65,30.47c0.26,0.75,1.47,0.43,1.21-0.33c-3.55-10.16-7.1-20.32-10.65-30.47
				C558.97,712.08,557.76,712.4,558.03,713.16L558.03,713.16z"/>
		</g>
	</g>
	<g>
		<g>
			<path d="M739.8,489.88c10.14,0,20.28,0,30.42,0c0.8,0,0.81-1.25,0-1.25c-10.14,0-20.28,0-30.42,0
				C739,488.63,739,489.88,739.8,489.88L739.8,489.88z"/>
		</g>
	</g>
</g>
<g id="Camada_1">
	<g>
		<g>
			<path class="st2" d="M606.42,148.36c0.32,0.03,0.64,0.04,0.96,0.07c0.8,1.13,1.68,2.18,2.77,3.05c0.77-0.31,1.05,0.51,1.6,0.7
				c0.77,1.14,1.67,2.16,2.74,3.03c1.33-0.57,1.31,1.17,2.22,1.32c1.12,1.63,2.6,2.92,4,4.28c2.28,0.41,2.88,2.88,4.73,3.83
				c2.78,3.28,5.82,6.31,9.09,9.09c0.98,1.82,3.41,2.45,3.83,4.72c1.35,1.41,2.65,2.87,4.26,3.99c0.25,0.87,1.81,0.92,1.34,2.21
				c1.09,1.25,2.26,2.41,3.62,3.37c0.04,0.2,0.08,0.4,0.12,0.59c0.75,1.54,2.27,2.44,3.16,3.87l-0.04-0.06
				c0.69,1.35,2.11,2.13,2.7,3.55c0.72,1.12,1.99,1.8,2.49,3.11c0.56,0.92,1.43,1.5,2.28,2.1l-0.01-0.05
				c0.06,1.04,0.7,1.75,1.39,2.41c0.48,0.99,1.2,1.82,1.96,2.6c0.49,1.06,1.24,1.9,2.25,2.49v-0.03c0.08,1.1,0.91,1.83,1.38,2.74
				c0.39,0.69,0.96,1.19,1.64,1.56l0.2,0.15l-0.06,0.24c-0.14,0.93,0.79,1.31,1.07,2.02c0.57,0.92,1.25,1.77,1.96,2.6
				c0.25,0.28,0.5,0.55,0.76,0.83c0.03,1.19,1.05,1.85,1.48,2.83c0.52,0.64,0.92,1.37,1.52,1.96c0.87,1.3,1.73,2.59,2.6,3.89
				c0.3,1.64,1.31,2.87,2.3,4.11c0.37,0.63,0.92,1.19,0.74,2.02c1.2,1.32,1.86,3.04,3.14,4.3l-0.04-0.05
				c0.42,1.57,1.39,2.87,2.07,4.31c1.3,2.21,2.48,4.5,3.7,6.75c0.34,0.9,0.65,1.82,1.24,2.6c0.4,0.85,0.67,1.76,1.26,2.51
				c0.38,0.84,0.66,1.74,1.24,2.49c0.4,0.83,0.63,1.76,1.29,2.46c0.38,0.58,0.56,1.23,0.75,1.88c0.88,1.4,1.48,2.96,2.33,4.38
				c0.07,0.84,0.38,1.59,0.87,2.28c0.68,1.32,1,2.84,2.09,3.95l-0.05-0.07c0.14,1.52,0.95,2.81,1.42,4.21
				c0.21,0.78,0.62,1.46,1.1,2.1l0.14,0.18l-0.1,0.2c-0.04,1.1,0.68,1.87,1.21,2.72c0.06,1.12,1.57,1.63,1.21,2.93
				c0.28,1.15,0.23,2.41,1.26,3.27c0.68,0.39,0.62,1.05,0.61,1.69c0.29,1.13,0.19,2.39,1.22,3.24c0.17,0.1,0.2,0.25,0.09,0.41
				c-0.13,1.27,0.27,2.37,1.14,3.29c0.19,0.1,0.22,0.25,0.11,0.42c-0.14,1.27,0.27,2.37,1.13,3.3c0.19,0.11,0.22,0.25,0.12,0.44
				c-0.2,1.2,0.43,2.2,0.76,3.27c0.17,0.7,0.43,1.34,0.96,1.86c0.02,0.24,0.03,0.47,0.05,0.7c0.03,1.33,1.02,2.34,1.21,3.62
				c0.1,0.25,0.19,0.52,0.25,0.79c0.21,0.96,0.52,1.89,0.72,2.85c0.38,1.09,0.58,2.22,0.87,3.33c-0.04,1.52,0.59,2.84,1.24,4.16
				c0.35,0.95,0.3,2.01,0.8,2.92c0.32,0.64,0.52,1.33,0.51,2.06c0.14,1.09,0.21,2.2,0.86,3.16c0.12,0.25,0.2,0.53,0.21,0.81
				c-0.06,1.86,0.5,3.63,0.82,5.43c0.26,0.98,0.26,2.04,0.68,2.99c0.08,0.29,0.14,0.58,0.16,0.87c0.4,1.88,0.49,3.82,1.11,5.66
				c0.19,0.59,0.35,1.17,0.35,1.79c-0.15,1.56,0.57,3.03,0.46,4.58c0.53,2.89,1.02,5.79,1.22,8.72c-0.04,0.97,0.07,1.91,0.41,2.83
				c0.2,0.93,0.19,1.87,0.2,2.82c0.03,1.04-0.1,2.11,0.31,3.12c0.25,0.88,0.31,1.81,0.59,2.69c0.07,0.32,0.08,0.64,0.08,0.97
				c-0.2,3.31,0.59,6.58,0.3,9.89c0.03,2.14-0.21,4.3,0.53,6.38c0.16,7.78,0.18,15.56,0,23.33c-0.6,1.77-0.55,3.61-0.53,5.44
				c-0.04,1.97,0.08,3.94-0.14,5.9c-0.48,1.31-0.55,2.66-0.49,4.03c-0.03,1.17,0.03,2.34-0.16,3.5c-0.39,1.07-0.52,2.18-0.47,3.31
				c-0.02,0.78-0.02,1.57-0.2,2.34c-0.51,1.31-0.53,2.63-0.08,3.96c0.09,0.61,0.07,1.21-0.1,1.81c-1.13,2.14-1.12,4.48-1.16,6.81
				c0.04,0.44,0.01,0.88-0.08,1.32c-0.92,2.1-1.14,4.34-1.3,6.58c0,0.27-0.04,0.54-0.12,0.81c-0.36,0.69-0.79,1.37-0.72,2.21
				c0.04,1.37-0.61,2.66-0.38,4.04c-0.01,0.29-0.05,0.57-0.14,0.84c-0.85,1.52-0.88,3.27-1.33,4.9c-0.03,0.29-0.08,0.57-0.16,0.86
				c-0.56,1.5-0.57,3.13-1.08,4.64c-0.37,1.64-0.95,3.22-0.98,4.93c-0.03,0.28-0.08,0.55-0.17,0.81c-0.76,1.31-0.97,2.81-1.45,4.22
				c-0.37,0.87-0.48,1.78-0.34,2.72c-0.05,0.86-0.28,1.66-0.69,2.42c-1.18,1.8-1.44,3.94-2.17,5.9c-0.52,1.31-0.75,2.66-0.81,4.06
				c-0.18,1.31-0.59,2.54-1.21,3.7c-1.23,1.64-1.52,3.68-2.34,5.49c-0.47,1.04-0.86,2.1-1.14,3.2c-0.4,0.92-0.52,1.92-0.67,2.9
				c-0.17,0.7-0.46,1.36-0.81,1.99c-1.04,1.32-1.65,2.85-2.09,4.46c-0.08,0.54-0.2,1.09-0.42,1.6c-0.76,1.26-1.53,2.54-1.75,4.04
				c-0.08,0.26-0.2,0.52-0.33,0.76c-0.93,1.37-1.7,2.81-2.15,4.41c-1.09,2.96-3.22,5.49-3.64,8.73c-0.14,0.56-0.41,1.07-0.74,1.54
				c-0.79,0.93-1.48,1.93-1.68,3.17c-0.17,0.67-0.48,1.26-0.94,1.77c-0.67,0.6-1.27,1.25-1.63,2.1c-0.3,0.59-0.56,1.18-0.85,1.76
				c-0.6,1.2-1.3,2.35-1.52,3.7c-0.25,0.96-0.66,1.82-1.34,2.55c-0.95,0.76-1.54,1.75-1.87,2.91c-0.09,0.25-0.21,0.49-0.35,0.72
				c-0.8,1.05-1.65,2.07-2.32,3.22c-0.69,0.98-1.16,2.08-1.72,3.12c-0.63,1.02-1.32,2-1.96,3.01c-0.53,0.76-0.92,1.59-1.38,2.38
				c-0.6,0.86-1.19,1.73-1.76,2.61c-0.66,0.98-1.36,1.93-1.77,3.05c-0.12,0.25-0.26,0.48-0.42,0.69c-0.82,0.9-1.6,1.82-2.02,2.99
				c-0.12,0.25-0.26,0.48-0.43,0.71c-0.82,0.92-1.69,1.82-1.97,3.11c-0.2,0.54-0.49,1.02-0.93,1.39c-0.94,0.59-1.59,1.44-2.18,2.37
				c-0.58,0.9-1.36,1.65-1.93,2.55c-0.44,0.65-0.95,1.25-1.43,1.87c-0.63,0.83-1.22,1.69-1.87,2.5c-0.76,1.08-1.61,2.08-2.35,3.17
				c-0.53,0.75-1.15,1.44-1.46,2.33c-0.21,0.51-0.51,0.97-0.92,1.33c-0.99,0.7-1.93,1.48-2.57,2.53c-0.66,1.02-1.7,1.78-2.1,2.98
				c-0.31,0.78-0.81,1.43-1.47,1.93c-0.97,0.65-1.96,1.28-2.31,2.5c-0.42,1.05-1.18,1.83-2.06,2.5c-1.43,1-2.86,2.01-3.53,3.74
				c-0.91,1.82-2.48,3.06-3.95,4.38c-4.12,3.36-7.76,7.2-11.28,11.17c-0.96,1.31-2.03,2.49-3.5,3.26c-2.15,0.94-3.49,2.77-4.87,4.53
				c-0.37,0.43-0.83,0.76-1.33,1.03c-1.72,0.62-2.73,2.15-4.06,3.27c-0.2,0.19-0.42,0.35-0.64,0.5c-1.21,0.64-2.06,1.72-3.08,2.6
				c-0.2,0.19-0.42,0.35-0.64,0.5c-1.17,0.68-2.17,1.59-3.27,2.38c-1.03,0.85-2.05,1.71-3.14,2.49c-0.75,0.58-1.4,1.27-2.16,1.83
				c-1.18,0.72-2.18,1.67-3.32,2.43c-0.65,0.48-1.28,0.98-1.94,1.44c-0.79,0.49-1.44,1.16-2.21,1.71c-0.9,0.56-1.78,1.16-2.66,1.77
				c-0.53,0.4-1.04,0.83-1.57,1.24c-0.21,0.17-0.43,0.31-0.67,0.45c-0.8,0.49-1.57,1.01-2.32,1.55c-0.64,0.46-1.26,0.95-1.7,1.64
				c-0.28,0.32-0.61,0.55-1.02,0.7c-1.18,0.16-2.01,0.83-2.66,1.77c-0.28,0.33-0.62,0.58-1.04,0.72c-1.13,0.17-2.08,0.74-3.02,1.32
				c-1.07,0.55-2.04,1.26-3.04,1.93c-0.77,0.53-1.6,0.97-2.41,1.44c-0.94,0.52-1.82,1.17-2.76,1.69c-1.43,0.82-2.83,1.67-4.21,2.55
				c-1.42,0.92-2.98,1.59-4.43,2.44c-2.5,1.64-5.34,2.67-7.78,4.43c-0.23,0.15-0.48,0.26-0.75,0.34c-0.91,0.14-1.74,0.51-2.54,0.96
				c-0.83,0.41-1.65,0.82-2.47,1.25c-1.09,0.51-2.16,1.06-3.22,1.66c-0.24,0.14-0.48,0.26-0.74,0.37c-2.34,1.24-4.8,2.19-7.19,3.32
				c-0.25,0.14-0.5,0.26-0.76,0.37c-1.26,0.61-2.59,1.08-3.86,1.65c-1.41,0.63-2.83,1.25-4.26,1.82c-0.78,0.3-1.54,0.66-2.35,0.9
				c-1.28,0.53-2.57,1.04-3.85,1.57c-1.02,0.44-2.08,0.76-3.08,1.24c-0.25,0.14-0.51,0.24-0.77,0.33c-1.58,0.62-3.21,1.09-4.79,1.68
				c-1.07,0.3-2.12,0.63-3.09,1.18c-1.95,1.11-4.06,1.73-6.28,2.06c-0.7,0.03-1.33,0.36-2,0.54c-1.09,0.3-2.15,0.7-3.22,1.09
				c-1.12,0.27-2.19,0.76-3.34,0.91c-1.08,0.37-2.22,0.51-3.29,0.9c-0.67,0.21-1.35,0.38-2.01,0.61c-1.76,0.36-3.48,0.84-5.1,1.65
				c-0.25,0.12-0.52,0.2-0.78,0.27c-1.04,0.25-2.18,0.1-3.12,0.79c-0.51,0.27-1.05,0.43-1.63,0.46c-1.75-0.2-3.39,0.3-5.03,0.8
				c-1.71,0.44-3.47,0.66-5.18,1.14c-1,0.12-1.96,0.36-2.83,0.92c-0.73,0.23-1.45,0.17-2.18,0.02c-1.62,0.15-3.22,0.48-4.78,0.92
				c-1.2,0.26-2.48,0.12-3.65,0.63c-0.78,0.19-1.57,0.19-2.37,0.22c-2.14,0.52-4.39,0.37-6.49,1.15c-0.77,0.31-1.56,0.47-2.4,0.39
				c-2.13-0.38-4.19,0.63-6.32,0.34c-2.99,0.77-6.11,0.3-9.09,1.04c-1.54,0.29-3.1,0.1-4.64,0.26c-2.53,0.59-5.17-0.71-7.66,0.44
				c-2.97,0.21-5.94,0.07-8.91,0.12c-2.66-0.01-5.33-0.01-7.98,0c-3.03-0.06-6.06,0.11-9.08-0.13c-2.1-0.76-4.28-0.44-6.44-0.5
				c-1.59-0.03-3.18,0.06-4.77-0.14c-1.29-0.48-2.64-0.53-4-0.48c-1.17-0.03-2.34,0.03-3.5-0.17c-0.93-0.3-1.87-0.53-2.88-0.45
				c-0.98-0.02-1.96,0.01-2.93-0.1c-1.51-0.56-3.12-0.48-4.68-0.7c-0.98-0.31-1.98-0.55-3.03-0.42c-0.69,0.12-1.37,0.31-2.08,0.09
				c-0.81-0.36-1.57-0.95-2.55-0.7c-0.54,0.08-1.09,0.1-1.63-0.03c-1.26-0.76-2.73-0.6-4.09-0.91c-0.92-0.36-1.93-0.36-2.88-0.59
				c-0.92-0.35-1.85-0.4-2.81-0.14c-0.42,0.03-0.84-0.03-1.24-0.18c-0.82-0.6-1.8-0.76-2.77-0.9c-1.75-0.48-3.54-0.71-5.29-1.13
				c-1.59-0.59-3.3-0.6-4.9-1.15c-0.91-0.08-1.71-0.53-2.61-0.65c-0.89-0.1-1.69-0.56-2.59-0.64c-1.03-0.18-1.99-0.62-3.04-0.72
				c-1.43-0.48-2.91-0.72-4.34-1.19c-1.38-0.54-2.86-0.75-4.26-1.24c-1.07-0.41-2.15-0.75-3.24-1.1c-1.1-0.2-2.2-0.48-3.34-0.48
				c-3.04-0.67-5.96-1.65-8.81-2.91c-0.72-0.41-1.34-1-2.14-1.29c-0.95-0.46-1.94-0.81-2.98-1.03c-0.87-0.28-1.8-0.35-2.66-0.67
				c-0.87-0.64-1.8-1.15-2.83-1.45c-0.86-0.35-1.66-0.81-2.56-1.04c-0.25-0.07-0.49-0.17-0.73-0.27c-0.81-0.41-1.64-0.7-2.55-0.71
				c-0.27-0.05-0.53-0.15-0.76-0.29c-0.87-0.74-1.9-1.15-2.96-1.48c-1.49-0.72-2.98-1.48-4.63-1.77c-0.53-0.18-1.03-0.42-1.51-0.71
				c-0.89-0.62-1.79-1.23-2.81-1.63c-1.5-0.64-3.02-1.24-4.55-1.81c-0.26-0.08-0.51-0.2-0.75-0.33c-0.99-0.69-2.03-1.3-3.13-1.8
				c-0.83-0.43-1.67-0.85-2.52-1.25c-1.19-0.65-2.41-1.24-3.63-1.82c-0.73-0.39-1.43-0.82-2.14-1.26c-1.52-0.99-3.16-1.74-4.86-2.35
				c-0.26-0.11-0.51-0.25-0.75-0.4c-0.97-0.8-1.96-1.54-3.12-2.04c-1.59-0.82-3.04-1.88-4.65-2.68c-0.89-0.62-1.78-1.25-2.71-1.82
				c-0.79-0.55-1.69-0.88-2.56-1.25c-0.25-0.13-0.48-0.28-0.7-0.45c-1.18-1.19-2.62-1.99-4.08-2.74c-1.09-0.87-2.33-1.41-3.65-1.83
				c-1.39-0.68-2.71-1.49-3.83-2.57c-0.6-0.88-1.28-1.66-2.37-1.96c-0.36-0.2-0.67-0.44-0.96-0.73c-0.78-0.92-1.79-1.57-2.8-2.21
				c-0.85-0.63-1.59-1.4-2.63-1.74c-0.5-0.25-0.94-0.57-1.34-0.95c-0.7-0.84-1.59-1.48-2.44-2.16c-1.19-0.87-2.32-1.82-3.56-2.63
				c-0.63-0.48-1.23-1.01-2-1.27c-0.52-0.21-0.98-0.5-1.34-0.92c-0.47-0.67-0.99-1.28-1.8-1.56c-0.52-0.22-0.97-0.53-1.34-0.94
				c-0.62-0.89-1.27-1.75-2.35-2.13c-0.52-0.23-0.98-0.53-1.36-0.95c-0.64-0.91-1.29-1.8-2.41-2.17c-0.8-0.33-1.45-0.84-1.98-1.52
				c-0.98-1.42-2-2.79-3.68-3.47c-1.34-0.59-2.3-1.62-3.18-2.73c-1.96-2.62-4.26-4.9-6.86-6.88c-2.06-0.98-3.35-2.71-4.52-4.56
				c-2.04-2.6-4.34-4.95-7.02-6.91c-0.92-0.73-1.71-1.57-2.25-2.63c-0.6-1.65-1.95-2.63-3.29-3.62c-0.43-0.37-0.76-0.82-1.03-1.32
				c-0.62-1.73-2.15-2.73-3.27-4.06c-0.19-0.2-0.35-0.42-0.5-0.64c-0.65-1.2-1.74-2.07-2.48-3.2c-0.7-1.15-1.76-2.01-2.49-3.13
				c-0.74-1.09-1.59-2.1-2.36-3.16c-0.64-0.82-1.39-1.57-1.99-2.44c-0.56-0.88-1.29-1.64-1.87-2.49c-0.55-0.87-1.28-1.62-1.85-2.49
				c-0.42-0.65-0.87-1.29-1.32-1.93c-0.57-0.9-1.33-1.65-1.91-2.53c-0.58-0.92-1.27-1.75-1.99-2.55c-0.17-0.22-0.31-0.46-0.43-0.7
				c-0.35-1.04-1.04-1.88-1.6-2.79c-0.42-0.64-0.86-1.29-1.37-1.87c-0.25-0.29-0.48-0.61-0.66-0.95c-0.36-0.81-0.85-1.55-1.34-2.29
				c-0.62-0.87-1.21-1.71-1.79-2.56c-0.53-0.76-0.95-1.57-1.42-2.37c-0.51-0.92-1.15-1.77-1.73-2.65c-0.68-1-1.2-2.1-1.79-3.14
				c-0.53-1.08-1.27-2.04-1.84-3.09c-0.36-0.72-0.85-1.37-1.29-2.05c-0.66-1.21-1.24-2.48-1.96-3.67c-1.59-2.55-2.87-5.27-4.25-7.93
				c-0.58-1.29-1.21-2.55-1.88-3.8c-0.59-1.29-1.23-2.54-1.9-3.78c-0.93-2.08-2.06-4.07-3.01-6.14c-0.31-0.79-0.52-1.61-0.92-2.37
				c-0.63-1.26-1.11-2.58-1.67-3.87c-0.69-1.51-1.24-3.09-2.27-4.42c-0.53-1.01-0.92-2.07-1.37-3.12c-0.31-1.23-0.62-2.47-1.21-3.61
				c-0.11-0.26-0.2-0.53-0.26-0.8c-0.54-2.28-1.37-4.45-2.51-6.5c-0.14-0.25-0.23-0.5-0.3-0.77c-0.28-1.62-0.81-3.16-1.51-4.66
				c-0.64-1.77-1.51-3.47-1.95-5.32c-0.01-1.04-0.45-1.98-0.7-2.96c-0.35-0.98-0.65-1.97-1.01-2.94c-0.4-1.75-0.78-3.5-1.37-5.21
				c-0.44-1.41-0.69-2.88-1.2-4.27c-0.42-1.36-0.67-2.77-1.16-4.11c-0.2-0.53-0.33-1.06-0.42-1.61c-0.12-0.94-0.33-1.87-0.45-2.83
				c-0.43-1.32-0.49-2.71-0.9-4.04c-0.24-0.79-0.26-1.63-0.68-2.37c-0.24-0.51-0.41-1.04-0.43-1.61c0.04-1.67-0.42-3.27-0.78-4.87
				c-0.27-0.92-0.17-1.94-0.66-2.83c-0.24-0.53-0.41-1.08-0.43-1.67c0.12-1.49-0.53-2.89-0.5-4.38c-0.71-1.77-0.32-3.75-1.01-5.52
				c-0.18-0.81-0.17-1.62-0.2-2.44c-0.62-2.24-0.39-4.62-1.04-6.85c-0.33-1.64,0.06-3.37-0.63-4.97c-0.22-1.18-0.16-2.37-0.19-3.55
				c0.05-1.19-0.04-2.35-0.47-3.48c-0.21-1.38-0.14-2.77-0.16-4.17c0-1.78,0.14-3.57-0.51-5.29c-0.23-3.03-0.07-6.07-0.13-9.09
				c0.01-5.45,0-10.88,0-16.33c0-1.14,0-2.27,0-3.4c0.05-2.2-0.09-4.4,0.14-6.6c0.64-1.68,0.48-3.44,0.49-5.18
				c0.03-1.2-0.03-2.41,0.16-3.6c0.5-1.26,0.5-2.59,0.47-3.92c0.02-0.98-0.01-1.98,0.18-2.95c0.41-1.06,0.49-2.17,0.45-3.3
				c0.02-0.96-0.01-1.91,0.19-2.86c0.29-0.89,0.5-1.79,0.44-2.74c0-0.47,0.01-0.93,0.06-1.4c0.5-1.48,0.54-3.03,0.76-4.56
				c0.31-0.85,0.48-1.72,0.45-2.63c0.02-0.44,0.04-0.88,0.14-1.31c0.19-0.84,0.53-1.65,0.53-2.54c0.03-0.43,0.13-0.86,0.24-1.28
				c0.32-0.82,0.36-1.7,0.36-2.57c0.02-0.31,0.07-0.6,0.14-0.9c0.39-1.97,0.9-3.92,1.11-5.92c0.58-1.79,0.76-3.67,1.37-5.45
				c0.5-0.95,0.77-1.97,1.03-3c0.42-1.7,0.81-3.4,0.91-5.16c-0.31-0.98,0.68-1.59,0.71-2.47c0.98-1.34,0.67-3.2,1.82-4.47
				l-0.01-0.23c-0.42-1.63,0.39-2.89,1.26-4.13l-0.11-0.12l0.1-0.13c-0.47-0.93,0.25-1.71,0.36-2.56c0.41-1.12,0.81-2.25,1.19-3.38
				c0-0.94,0.36-1.76,0.96-2.47c0.02-1.98,0.34-3.84,1.86-5.29c0.07-1.65,0.52-3.18,1.25-4.65c0.03-0.39,0.05-0.77,0.08-1.16
				c0.92-0.91,0.95-2.3,1.78-3.24c-0.42-0.74-0.48-1.32,0.61-1.39c-0.5-1.46,1.1-2.37,0.96-3.73c0.23-1,0.86-1.83,1.2-2.78
				c0.14-1.17,1.01-2.01,1.35-3.1c0.52-1.44,0.98-2.9,1.77-4.23c0.49-1.53,1.38-2.92,1.54-4.56c0.23-0.38,0.45-0.77,0.68-1.15
				c0.86-1.03,1.3-2.27,1.84-3.46c-0.18-0.57,0.08-0.95,0.55-1.23c0.72-1.28,1.15-2.71,1.93-3.97c0.04-0.25,0.09-0.5,0.14-0.76
				c0.64-0.7,1.04-1.54,1.46-2.38c0.31-0.76,0.72-1.46,1.1-2.17c0.36-0.61,0.53-1.31,0.91-1.9c1.28-2.14,2.48-4.33,3.24-6.72
				c0.21-0.35,0.43-0.7,0.64-1.04c1.03-0.59,1.24-1.7,1.72-2.63c0.53-0.8,0.81-1.76,1.57-2.4c0.15-0.41,0.31-0.81,0.47-1.21
				c0.95-1.37,1.89-2.75,2.43-4.34l-0.05,0.08c1.28-1.29,2.1-2.91,3.15-4.37c0.03-0.25,0.08-0.5,0.11-0.76
				c0.57-0.62,1.04-1.32,1.53-1.99c0.9-1.39,1.84-2.76,2.71-4.17c0.24-0.42,0.48-0.85,0.71-1.26c0.7-1.08,1.6-2,2.38-3.02
				c0.04-0.24,0.08-0.48,0.13-0.72c0.81-0.92,1.44-2.01,2.35-2.87c0.25-0.49,0.51-0.99,0.76-1.48c0.75-0.96,1.55-1.88,2.1-2.98
				c0.71-0.79,1.45-1.55,1.9-2.55c0.75-0.76,1.43-1.55,1.89-2.53c0.65-0.69,1.31-1.36,1.75-2.21c0.52-1,1.64-1.46,2.2-2.42
				c0.02-0.31,0.03-0.63,0.05-0.94c0.88-0.64,1.82-1.22,2.44-2.16c0.03-0.32,0.05-0.64,0.07-0.96c1.13-0.79,2.17-1.68,3.04-2.77
				c0.03-0.32,0.05-0.64,0.08-0.97c1.13-0.8,2.18-1.66,3.03-2.77c-0.35-0.8,0.6-1.01,0.72-1.59c1.37-0.95,2.53-2.13,3.64-3.37
				c0.12-1.1,0.76-1.77,1.77-2.12c1.9-2.26,3.93-4.39,6.27-6.21c1.61-3.54,4.73-5.69,7.52-8.14c2.56-1.71,4.22-4.42,6.79-6.14
				c0.53-1,1-2.06,2.15-2.55c1.89-0.39,2.58-2.32,4.08-3.2c0.05-0.2,0.1-0.39,0.15-0.59c1.94-0.33,2.72-2.2,4.19-3.16
				c0.08-0.16,0.18-0.33,0.26-0.49c1.62-0.27,2.26-1.83,3.47-2.65c0.08-0.15,0.18-0.31,0.26-0.47c1.36-0.07,1.87-1.37,2.84-1.98
				c0.08-0.17,0.18-0.34,0.26-0.51c1.27,0.03,1.57-1.1,2.21-1.82l-0.04-0.01c1.5-0.11,2.25-1.5,3.48-2.07
				c0.7-0.42,1.2-1.09,1.93-1.48c1.15-0.61,1.94-1.82,3.33-2.06c0.02-0.38,0.22-0.59,0.6-0.6c0.92-1.25,2.32-1.87,3.52-2.74
				c0.6-0.29,0.95-1.01,1.71-1.06c0.64-0.61,1.28-1.22,1.92-1.83c1.16,0.14,1.69-1.22,2.81-1.19c0.28-0.46,0.55-0.92,0.83-1.37
				c1.08-0.22,2.07-0.64,2.93-1.35c1.29-0.99,2.58-1.99,3.86-2.98c1.1-0.13,1.99-0.76,2.98-1.2l-0.05,0.07
				c0.91-1.39,2.84-1.53,3.67-3c0.54-0.26,1.09-0.53,1.63-0.79c1.99-0.31,3.32-2.09,5.29-2.43c0.01-0.22,0.03-0.43,0.03-0.65
				c2.04-0.66,3.91-1.65,5.54-3.06c1.3-0.2,1.69-1.93,3.15-1.87c3.68-0.74,6.57-3.3,10.08-4.44c0.16-0.19,0.31-0.36,0.48-0.55
				c1.28-0.31,2.46-0.92,3.72-1.26c0.08-0.25,0.16-0.51,0.25-0.76c1.98,0.07,3.39-1.7,5.34-1.69c0.07-0.25,0.13-0.52,0.2-0.77
				c1.93-0.14,3.55-1.3,5.4-1.72c0.19-0.64,0.72-0.63,1.24-0.66c2.1-1.15,4.38-1.89,6.59-2.77c1.09-0.41,2.2-0.76,3.35-0.92
				c0.05-1.17,0.89-1.27,1.78-1.32c1.18,0.08,2.18-0.47,3.23-0.87c0.98-0.58,2.13-0.62,3.18-0.99c2-0.83,4.01-1.66,6.02-2.49
				c1.39,0.01,2.65-0.61,3.99-0.87c0.94-0.3,1.9-0.54,2.83-0.87c1.09-0.42,2.27-0.49,3.33-0.98c1.37-0.5,2.83-0.65,4.18-1.19
				c1.42-0.63,3.11-0.46,4.35-1.58c0.25-0.01,0.5-0.03,0.75-0.03c1.78,0.11,3.38-0.75,5.09-0.98c1.4-0.6,3.02-0.37,4.36-1.19
				c1.26,0.21,2.38-0.76,3.66-0.36c1.09-0.87,2.52-0.65,3.72-1.17c1.91-0.11,3.75-0.59,5.6-0.99c1.07,0.09,2.07-0.19,3.05-0.56
				c1.17-0.25,2.4,0.2,3.55-0.29c0.43-0.03,0.87-0.06,1.31-0.09c2.44-1.03,5.06-1.05,7.64-1.24c0.61-0.19,1.21-0.37,1.82-0.57
				c2.15,0.1,4.23-0.55,6.38-0.51c3.27-0.66,6.63-0.45,9.89-1.07c1.8-0.09,3.61,0.1,5.4-0.33c2.22-0.14,4.46,0.22,6.66-0.31
				c8.31-0.03,16.63-0.01,24.93-0.01c2.43,0.42,4.89,0.45,7.33,0.08c1.43,0.62,2.94,0.53,4.44,0.57c1.28,0.43,2.61,0.2,3.92,0.29
				c1.13,0.22,2.27,0.36,3.41,0.31c0.95,0.32,1.93,0.28,2.91,0.31c1.11,0.28,2.25,0.31,3.39,0.32c1.36,0.59,2.79,0.64,4.23,0.6
				c0.89,0.31,1.82,0.27,2.75,0.36c0.71,0.25,1.45,0.26,2.19,0.26c0.97,0.3,1.96,0.34,2.96,0.25c0.37,0.02,0.75,0.03,1.12,0.04
				c0.81,0.68,1.75,0.64,2.71,0.53c0.34,0.03,0.68,0.06,1.02,0.08c0.64,0.6,1.52,0.54,2.28,0.81c1.37-0.08,2.64,0.81,4.03,0.39
				c0.2,0.03,0.39,0.06,0.59,0.09c1.46,1.2,3.63,0.43,5.02,1.82c0.07-0.87,0.61-0.76,1.19-0.58c0.94,0.83,2.07,0.98,3.26,0.92
				c1.6,0.35,3.1,1.02,4.73,1.22c1.44,0.36,2.9,0.64,4.29,1.15c0.87,0.08,1.7,0.3,2.49,0.63c1.09-0.22,1.98,1.12,3.13,0.43
				c0.25,0,0.48,0,0.73,0c0.94,0.84,2.03,1.25,3.3,1.12l0.22-0.11l0.16,0.19c1.09,0.78,2.45,0.92,3.64,1.48
				c0.9-0.19,1.62,0.75,2.55,0.4c0.64-0.1,1.23-0.08,1.65,0.52c1.3,0.67,2.6,1.32,4.12,1.26c0.21-0.1,0.39-0.06,0.53,0.12
				c0.92,0.83,1.99,1.23,3.25,1.1c0.18-0.09,0.33-0.06,0.45,0.11c0.75,0.83,1.84,0.96,2.8,1.37c0.91,0.24,1.7,0.84,2.68,0.84
				c0.58,0.43,1.25,0.56,1.93,0.66c1.56,0.99,3.33,1.46,5.06,2.03c0.2,0.03,0.41,0.07,0.61,0.1c0.85,0.87,2.07,0.72,3.08,1.16
				l-0.05-0.03c0.92,0.88,2.16,1.15,3.27,1.69c1.48,0.42,2.71,1.58,4.37,1.4c0.2-0.08,0.37-0.03,0.51,0.14
				c1.36,1.5,3.14,2.08,5.06,2.36c0.21-0.09,0.4-0.04,0.54,0.14c2.08,1.95,4.84,2.67,7.25,4c1.05,0.62,2.09,1.28,3.34,1.47
				c0.17,0.19,0.35,0.37,0.52,0.56c3.11,1.44,6.09,3.16,9.29,4.42c0.17,0.17,0.17,0.34,0.01,0.51c1.49,0.76,3.04,1.41,4.44,2.33
				c1.16,0.45,2,1.62,3.41,1.51l0.14-0.09l0.12,0.12c0.88,1.33,2.27,1.9,3.68,2.43c0.03,0.25,0.07,0.52,0.1,0.77
				c1.47,0.12,2.47,1.29,3.8,1.71c0.55,0.33,1.05,0.71,1.18,1.4c1.47,0.12,2.46,1.27,3.78,1.71c0.55,0.29,1,0.68,1.16,1.32
				c1.24,0.24,2.15,1.02,3.05,1.82c0.22,0.2,0.45,0.41,0.67,0.61c1.11,0.25,1.99,1.12,3.15,1.26l-0.05-0.03
				c0.48,0.96,1.4,1.45,2.18,2.1c0.7,0.56,1.5,1,2.13,1.65c0.58,0.18,1.12,0.39,1.26,1.07c1.04,0.51,2.01,1.17,3.16,1.43l-0.04-0.02
				c0.57,1.01,1.32,1.77,2.54,1.88l-0.05-0.04c0.55,1.03,1.3,1.79,2.53,1.91h-0.04c0.69,1.04,1.48,1.99,2.67,2.49
				c0.16-0.1,0.31-0.08,0.46,0.03c0.57,0.86,1.13,1.73,2.32,1.75c0.27,0.25,0.53,0.51,0.81,0.76
				C604.89,146.79,605.46,147.74,606.42,148.36z"/>
		</g>
	</g>
</g>
</svg>
