<?xml version="1.0" encoding="utf-8"?>
<!-- Generator: Adobe Illustrator 25.3.1, SVG Export Plug-In . SVG Version: 6.00 Build 0)  -->
<svg version="1.1" id="Camada_1" xmlns="http://www.w3.org/2000/svg" xmlns:xlink="http://www.w3.org/1999/xlink" x="0px" y="0px"
	 viewBox="0 0 1500 200" style="enable-background:new 0 0 1500 200;" xml:space="preserve">
<style type="text/css">
	.st0{fill:#A9D45E;}
	.st1{fill:#A3D15C;}
	.st2{fill:#9ECE59;}
	.st3{fill:#7CB049;}
	.st4{fill:#7BB048;}
	.st5{fill:#76AB45;}
	.st6{fill:#71A743;}
	.st7{fill:#A8D45D;}
	.st8{fill:#A1D05A;}
	.st9{fill:#86BA4D;}
	.st10{fill:#85B94C;}
	.st11{fill:#94C554;}
	.st12{fill:#8CBE50;}
	.st13{fill:#9BCB58;}
	.st14{fill:#8EC151;}
	.st15{fill:#9CCC58;}
	.st16{fill:#79AE46;}
	.st17{fill:#87BB4E;}
	.st18{fill:#94C654;}
	.st19{fill:#8FC151;}
	.st20{fill:#8EC051;}
	.st21{fill:#7EB349;}
	.st22{fill:#9DCD59;}
	.st23{fill:#87BB4D;}
	.st24{fill:#71A744;}
	.st25{fill:#8CBE51;}
	.st26{fill:#83B74C;}
	.st27{fill:#75AB45;}
	.st28{fill:#B4C98F;}
	.st29{fill:#89BD4F;}
	.st30{fill:#72A845;}
	.st31{fill:#72A844;}
	.st32{fill:#75AA44;}
	.st33{fill:#72A744;}
	.st34{fill:#74AA45;}
	.st35{fill:#79AE47;}
	.st36{fill:#7CB048;}
	.st37{fill:#A7D35E;}
	.st38{fill:#95C655;}
	.st39{fill:#8BBE50;}
	.st40{fill:#84B84C;}
	.st41{fill:#AFD07E;}
	.st42{fill:#A5CC70;}
	.st43{fill:#AED763;}
	.st44{fill:#8ABD4F;}
	.st45{fill:#ADD661;}
	.st46{fill:#AED762;}
	.st47{fill:#AFD764;}
	.st48{fill:#AFD664;}
	.st49{fill:#AFD763;}
	.st50{fill:#A7CD71;}
	.st51{fill:#91C353;}
	.st52{fill:#96C755;}
	.st53{fill:#73A844;}
	.st54{fill:#7AAF47;}
	.st55{fill:#A6D35D;}
	.st56{fill:#9FCF5A;}
	.st57{fill:#93C554;}
	.st58{fill:#7FB349;}
	.st59{fill:#72A745;}
	.st60{fill:#75AB44;}
	.st61{fill:#73A944;}
	.st62{fill:#82B54D;}
	.st63{fill:#77AC45;}
	.st64{fill:#82B64B;}
	.st65{fill:#92C454;}
	.st66{fill:#81B64B;}
	.st67{fill:#D6D1C9;}
	.st68{fill:#95C45B;}
	.st69{fill:#A1D05B;}
	.st70{fill:#9ECE5A;}
	.st71{fill:#91C352;}
	.st72{fill:#A0CF5A;}
	.st73{fill:#98C956;}
	.st74{fill:#9BCC58;}
	.st75{fill:#9ECD59;}
	.st76{fill:#82B74C;}
	.st77{fill:#92C453;}
	.st78{fill:#9FCE5A;}
	.st79{fill:#89BC4F;}
	.st80{fill:#7DB148;}
	.st81{fill:#83B84C;}
	.st82{fill:#77AD46;}
	.st83{fill:#A4CB6D;}
	.st84{fill:#7FB44A;}
</style>
<path class="st0" d="M34.12,99.51c-0.12-12.59-0.25-25.17-0.37-37.76c-1.98-1.79-2.22-4.23-2.27-6.64
	c-0.2-9.87-0.35-19.75,0.07-29.61c0.18-4.26,1.14-8.3,6.57-8.81c33.68,0.32,67.34-0.91,101.01-0.72
	c13.83,0.78,21.19,7.1,23.95,20.47c1.73,8.35,1.04,16.79,1.05,25.19c0.02,12.03,0.33,24.06-0.18,36.09
	c-0.03,1.83-0.09,3.65,0.25,5.46c0.18,17.4,0.13,34.79,0.02,52.18c-0.02,3.5,0.63,7.41-3.11,9.82c-3.86-2.43-2.81-6.38-3.1-9.92
	c0.42-3.07,0.2-6.17,0.25-9.25c0.06-3.5-0.05-6.99-0.09-10.49c0.39-6.66-0.64-13.31-0.13-19.98c0.74-5.81-0.55-11.62,0-17.43
	c0.72-6.25-0.54-12.5-0.03-18.75c0.74-6.2-0.46-12.41,0.16-18.61c-0.14-0.88-0.13-1.75-0.01-2.63c0.18-16.79-0.3-17.29-16.62-17.29
	c-29.76,0-59.53-0.01-89.29,0c-13.5,0-14.66,1.18-14.86,14.89c-0.02,1.45,0.01,2.9,0.16,4.35c0.58,6.61-0.53,13.2-0.1,19.8
	c0.38,5.52,0,11.03-0.32,16.55c-0.13,0.85-0.42,1.65-0.87,2.39C35.75,99.64,35.03,99.87,34.12,99.51z"/>
<path class="st1" d="M34.12,99.51c0.38,0,0.76,0,1.14-0.01c4.42,5.76,1.06,12.47,2.28,18.62c0.54,6.17-0.46,12.33-0.14,18.5
	c-0.13,5.46,0.15,10.94-0.23,16.4c-0.11,0.84-0.38,1.63-0.8,2.37c-0.49,0.81-1.19,1.09-2.11,0.83
	C34.21,137.33,34.16,118.42,34.12,99.51z"/>
<path class="st2" d="M34.26,156.24c0.32-0.01,0.64-0.01,0.96-0.01c4.22,5.18,1.27,11.31,2.24,16.92c0.13,2.75,0.12,5.47-2.13,7.55
	c-0.56-0.85-1.11-1.69-1.67-2.54C33.85,170.85,34.05,163.54,34.26,156.24z"/>
<path class="st3" d="M708.62,182.49c-0.99,0.01-1.99,0.02-2.98,0.03c-10.21-0.97-6.04-1.6-18.4-1.61
	c-2.18-11.48-1.05-23.07-0.73-34.6c0.14-5.12,4.21-6.6,8.75-6.63c9.65-0.06,19.31-0.31,28.96,0.14c5.21,3.21,11.38,5.58,11.83,13.11
	c-2.6,2.82-6.1,2.61-9.45,2.67c-7.25,0.13-14.51,0.02-21.76,0.05c-12.38,0.05-12.38,0.06-12.98,12.36
	c0.85,10.42,0.89,10.51,11.04,10.57c12.11,0.07,24.22-0.02,36.34,0.04c3.13,0.01,6.33-0.25,9.26,1.28c0.32,0.29,0.64,0.58,0.96,0.88
	c-5.47,2.73-11.31,0.98-16.96,1.26C724.55,182.42,716.58,182.36,708.62,182.49z"/>
<path class="st4" d="M1467.66,140.22c0.08,8.76,0.16,17.52,0.24,26.28c-0.49,1.07-0.99,2.13-1.48,3.2
	c-2.41-1.87-2.54-4.65-2.53-7.27c0.01-5.1-2.67-6.65-7.33-6.65c-34.16-0.01-68.31,0-102.47-0.01c-4.48,0-7.46,1.25-7.94,6.27
	c-0.17,1.79-0.58,3.98-3.18,4.2c-0.07-8.68-0.14-17.36-0.21-26.05c-0.02-6.08,3.21-8.37,9.04-8.16c9.83,0.36,19.7-0.73,29.51,0.66
	c1.6,0.46,2.85,1.4,3.77,2.77c0.82,1.1,1.4,2.41,2.61,3.21c0.62,0.29,1.24,0.58,1.89,0.81c10.76,0,21.52,0.85,32.23-0.53
	c0.92-0.54,1.73-1.21,2.4-2.06c1.31-1.88,1.67-4.52,4.25-5.4c10.74-1.87,21.55-0.61,32.33-0.8
	C1467.88,130.57,1466.49,136.25,1467.66,140.22z"/>
<path class="st5" d="M1342.96,166.24c0.26-0.4,0.7-0.77,0.77-1.2c1.88-11.71,1.87-11.72,14-11.72c32.92,0,65.84,0,98.76,0
	c9.73,0,9.72,0.01,9.77,9.84c0.01,2.18,0.1,4.35,0.16,6.53c-0.17,2-1.19,3.44-2.88,4.46c-2.99-3.31-6.81-3.98-11.1-3.97
	c-31.58,0.09-63.16,0.05-94.73,0.04c-3.67,0-7.28,0.02-9.92,3.18c-5.64,0.55-6.45-2.56-5.37-7.1L1342.96,166.24z"/>
<path class="st6" d="M1346.81,174.19c-1.45-4.95,0.11-6.49,5.48-6.45c35.25,0.25,70.51,0.25,105.77,0c5.32-0.04,6.98,1.42,5.48,6.42
	c-4.13,6.25-10.35,8.07-17.36,8.12c-13.66,0.1-27.32,0.15-40.98,0.22c-0.99,0-1.98,0-2.97,0c-2.32,1.84-5.07,1.33-7.68,1.34
	c-10.89,0.04-21.78,0.29-32.65-0.09C1355.25,183.51,1348.71,182.3,1346.81,174.19z"/>
<path class="st7" d="M1342.74,47.15c-0.32-4.36-0.07-8.65,1.31-12.86c1.82-5.56,5.08-8.99,11.42-8.98
	c29.71,0.08,59.42,0.01,89.12,0.07c4.27,0.01,8.48,1.09,12.82,0.06c3.32-0.78,5.22,1.34,6.69,4.23c3.54,6.94,3.87,14.32,3.55,21.85
	c-5.68-8.02-14.19-6.23-22.09-6.25c-26.87-0.07-53.73-0.04-80.6-0.02C1357.5,45.25,1349.99,44.73,1342.74,47.15z"/>
<path class="st8" d="M1342.74,47.15c1.54-4.15,4.83-4.42,8.68-4.41c34.33,0.11,68.65,0.24,102.98-0.08
	c7.04-0.07,12.67,0.13,13.25,8.86c0,4.84,0,9.69-0.01,14.53c-6-6.5-13.9-4.94-21.39-4.97c-6.04-0.02-12.1-0.36-18.13,0.52
	c-0.81,0.15-1.62,0.2-2.44,0.19c-0.82,0.01-1.64-0.09-2.44-0.26c-11.7-1.31-23.42-0.71-35.13-0.3c-0.4,0.11-0.79,0.19-1.19,0.3
	c-0.81,0.17-1.63,0.23-2.45,0.22c-0.82,0.01-1.63-0.07-2.44-0.2c-13.13-0.41-26.31-2-39.28,1.58
	C1342.75,57.8,1342.74,52.47,1342.74,47.15z"/>
<path class="st9" d="M1467.66,140.22c-0.96-6.52-4.92-7.76-11-7.41c-9.84,0.57-19.73,0.16-29.61,0.17
	c-3.64-8.25-2.85-16.6-0.57-24.99c2.6-2.22,5.8-2.13,8.92-2.19c6.26-0.12,12.53-0.07,18.79-0.04c11.69,0.05,11.69,0.07,13.45,11.18
	C1467.65,124.71,1467.66,132.46,1467.66,140.22z"/>
<path class="st10" d="M1383.33,134.43c-10.36,0-20.73,0.28-31.07-0.13c-4.92-0.2-8.16,0.98-9.5,5.9c0-6.3,0-12.61,0-18.91
	c1.4-9.26,1.67-9.54,11.17-9.66c7.43-0.09,14.85-0.12,22.28,0.05c2.64,0.06,5.29,0.22,7.5,1.99
	C1386.19,120.63,1386.84,127.57,1383.33,134.43z"/>
<path class="st11" d="M1342.75,98.04c0-5.82,0-11.64,0.01-17.46c-0.08-6.66,3.9-8.35,9.72-8.25c7.89,0.13,15.79-0.07,23.69,0.08
	c2.64,0.05,5.29,0.21,7.51,1.95c2.89,6.86,2.41,13.78,0.41,20.74c-2.02,2.12-4.72,2.3-7.37,2.37
	C1365.39,97.72,1354.06,97.3,1342.75,98.04z"/>
<path class="st12" d="M1342.75,98.04c1.9-2.6,4.53-2.98,7.57-2.94c11,0.14,21.99,0.06,32.99,0.07c3.23,6.3,3.23,12.6,0.01,18.9
	c-9.86,0-19.75,0.38-29.58-0.15c-6.01-0.33-10.1,0.74-10.97,7.37C1342.75,113.54,1342.75,105.79,1342.75,98.04z"/>
<path class="st11" d="M1467.64,82.05c0.02,5.82,0.03,11.64,0.05,17.46c-5.88-6.16-13.54-4.55-20.82-4.98
	c-6.86-0.41-14.07,1.94-20.54-2.24c-2.08-5.96-2.34-11.9,0.23-17.8c3.09-2.46,6.8-2.08,10.37-2.13c6.25-0.1,12.51-0.08,18.76-0.01
	C1465.86,72.44,1466.1,72.66,1467.64,82.05z"/>
<path class="st13" d="M1383.3,74.82c-10.59-0.01-21.21,0.36-31.77-0.19c-5.05-0.26-7.4,1.67-8.78,5.95c0-5.82,0-11.63-0.01-17.45
	c1.62-1.84,2.13-4.54,5.75-4.44c10.56,0.31,21.14,0.08,31.71,0.19c1.06,0.01,2.11,0.9,3.16,1.38
	C1386.3,65.13,1386.47,69.98,1383.3,74.82z"/>
<path class="st14" d="M1427.07,92.26c9.87,0,19.77,0.41,29.61-0.17c6.11-0.36,10.02,0.94,11.01,7.42
	c-0.01,5.81-0.02,11.63-0.04,17.44c-0.61-8.61-6.07-9.29-13.17-8.84c-9.1,0.57-18.27,0.15-27.41,0.15
	C1423.87,102.92,1423.86,97.59,1427.07,92.26z"/>
<path class="st15" d="M1467.64,82.05c-0.92-6.55-4.91-7.75-10.98-7.41c-9.83,0.56-19.72,0.17-29.59,0.17
	c-3.23-4.83-3.03-9.68-0.1-14.54c6.37-3.06,13.13-0.86,19.69-1.43c3.33-0.29,6.76,0.34,10.05-0.14c6.07-0.88,10,0.84,10.93,7.34
	C1467.64,71.38,1467.64,76.72,1467.64,82.05z"/>
<path class="st16" d="M35.38,173.66c-0.05-5.81-0.11-11.62-0.16-17.43c0.05-0.49,0.11-0.98,0.16-1.48c1.98-2.99-1.1-7.18,2.33-9.84
	c8.03-2.59,16.31-1.42,24.43-1.25c27.75,0.6,55.5-0.06,83.24-0.09c3.61,0,7.25-0.21,10.82,0.55c0.85,0.21,1.64,0.59,2.35,1.11
	c2.34,2.84,0.06,6.5,1.64,9.48c0.12,3.44,0.24,6.89,0.36,10.33c1.29,6.57,0.28,8.11-5.19,7.92c0.58-6.42-2.42-7.47-8.49-7.35
	c-29.03,0.58-58.08,0.17-87.12,0.28C50.87,165.93,41.08,163.46,35.38,173.66z"/>
<path class="st1" d="M35.37,60.24c0-5.78-0.09-11.49,1.13-17.28c0.81-3.88,2.5-4.56,5.82-4.55c37.01,0.05,74.03,0.06,111.04-0.01
	c3.39-0.01,5.04,0.89,5.99,4.52c1.4,5.32,0.77,10.56,0.89,15.84c-5.75-3.88-12.27-3.31-18.72-3.36c-28.68-0.2-57.36-0.27-86.04-0.03
	C48.33,55.43,41.14,54.76,35.37,60.24z"/>
<path class="st2" d="M35.37,60.24c0.92-6.6,5-7.47,11.02-7.41c34.77,0.31,69.55,0.26,104.32,0.03c4.9-0.03,8.19,0.94,9.53,5.9
	c-0.01,0.52-0.02,1.03-0.03,1.55c-1.2,2.43-3.37,3.46-5.86,3.5c-11.23,0.19-22.48,1.19-33.67-0.62c-0.82-0.28-1.57-0.71-2.25-1.24
	c-0.51-0.48-0.99-1.26-1.63-1.34c-12.68-1.66-25.35-2.57-37.95,0.48c-1.76,3.62,0.42,8.21-2.81,11.46
	c-6.13,2.99-12.69,1.36-19.05,1.63c-7.79,0.34-16.16-1.63-21.62,6.42C35.37,73.82,35.37,67.03,35.37,60.24z"/>
<path class="st17" d="M160.2,115.46c0,6.79-0.01,13.57-0.01,20.36c-5.38-5.87-12.51-4.54-19.34-4.95
	c-7.32-0.43-14.98,2.09-21.91-2.28c-2.05-6.9-2.36-13.77,0.23-20.62c3.79-2.89,8.25-2.07,12.51-2.17c5.76-0.13,11.54-0.1,17.3-0.01
	C158.56,105.94,158.92,106.27,160.2,115.46z"/>
<path class="st11" d="M35.38,80.61c0.58-8.61,6.03-9.31,13.13-8.86c9.09,0.57,18.25,0.16,27.38,0.17c3.75,6.58,2.61,13.38,0.9,20.21
	c-2.41,2.51-5.6,2.35-8.67,2.43c-5.24,0.14-10.49,0.21-15.73,0.01c-6-0.23-11.75,0.33-17.02,3.47
	C35.37,92.23,35.37,86.42,35.38,80.61z"/>
<path class="st18" d="M160.23,79.14c0,6.29,0,12.58,0.01,18.88c-5.37-5.94-12.53-4.51-19.35-4.95c-7.32-0.47-14.99,2.06-21.93-2.27
	c-2.03-6.43-2.32-12.83,0.24-19.21c3.8-2.87,8.26-2.05,12.53-2.15c5.77-0.13,11.54-0.1,17.31-0.01
	C158.55,69.58,158.88,69.9,160.23,79.14z"/>
<path class="st19" d="M119.7,90.8c9.86,0,19.74,0.37,29.57-0.15c6-0.32,10.11,0.72,10.96,7.36c-0.01,5.82-0.02,11.63-0.03,17.45
	c-0.82-6.7-4.98-7.67-10.95-7.36c-9.83,0.51-19.7,0.15-29.56,0.15C116.45,102.44,116.44,96.62,119.7,90.8z"/>
<path class="st20" d="M35.37,98.04c1.4-4.82,4.54-6.13,9.5-5.93c10.33,0.43,20.68,0.14,31.03,0.14c3.62,5.14,2.52,10.52,0.85,15.94
	c-2.23,2.27-5.16,2.23-8.01,2.34c-3.58,0.14-7.16,0.01-10.75,0.07c-8.37,0.15-17.58-2.1-22.61,7.78c-0.04-6.3-0.08-12.59-0.12-18.89
	C35.3,99.02,35.33,98.53,35.37,98.04z"/>
<path class="st21" d="M119.68,128.61c9.86,0,19.73,0.36,29.56-0.14c5.96-0.31,10.14,0.64,10.95,7.35
	c-0.01,3.41-0.02,6.83-0.03,10.24c-0.42,0.69-0.84,0.66-1.26,0c-2.62-3.64-6.17-5.17-10.63-4.88c-10.01,0.65-19.87,0.1-30.05,2.42
	c-13.01,2.97-26.87,1.18-40.36,0.6c-1.27-0.05-2.06-1.12-2.07-2.52c2.46-2.62,5.72-1.93,8.75-2.04c9.76-0.37,19.55,0.62,29.27-0.58
	c0.99-0.45,2.03-0.83,2.76-1.7C118.58,134.78,116.74,130.84,119.68,128.61z"/>
<path class="st22" d="M160.23,79.14c-0.82-6.69-4.94-7.71-10.94-7.39c-9.83,0.53-19.72,0.16-29.58,0.17
	c-2.77-3.39-2.75-6.8-0.03-10.21c10.73,0,21.47-0.01,32.2,0.01c2.86,0,5.75,0.21,8.33-1.4C160.21,66.58,160.22,72.86,160.23,79.14z"
	/>
<path class="st21" d="M158.91,146.05c0.42,0,0.84,0,1.26,0c0.01,2.89,0.02,5.77,0.02,8.65C157.88,152.1,159.32,148.94,158.91,146.05
	z"/>
<path class="st6" d="M156,173.66c-4.58,6.96-11.3,8.84-19.25,8.72c-12.48-0.2-24.96,0.06-37.44,0.13c-0.99,0-1.98,0-2.97-0.01
	c-17.56-0.14-35.12-0.25-52.68-0.44c-2.83-0.03-5.83,0.66-8.35-1.36c0.02-2.35,0.04-4.69,0.06-7.04
	c3.45-10.15,3.45-10.15,15.46-10.15c31.21,0,62.41,0,93.62-0.01c2.17,0,4.36-0.01,6.52-0.16c2.47-0.17,5.27-2.84,7.29,0.11
	c1.75,2.57-0.62,5-1.54,7.42C156.39,171.77,156.24,172.73,156,173.66z"/>
<path class="st23" d="M35.38,118.4c3.46-10.16,3.46-10.16,15.29-10.16c8.41,0,16.81,0.01,25.22,0.02c3.74,6.58,2.6,13.38,0.91,20.21
	c-2.2,2.36-5.16,2.32-8.03,2.43c-4.09,0.16-8.18,0.03-12.27,0.07c-7.65,0.08-15.8-1.51-21.12,6.33
	C35.38,131,35.38,124.7,35.38,118.4z"/>
<path class="st21" d="M35.39,137.31c0.56-8.66,6.07-9.26,13.14-8.84c9.1,0.55,18.25,0.14,27.38,0.15c2.92,3.25,2.49,6.73,0.71,10.3
	c-2.81,2.48-6.3,2.13-9.65,2.19c-6.29,0.11-12.58,0.17-18.86,0c-4.66-0.13-8.6,0.93-11.34,4.96c-0.43,2.9,1.09,6.12-1.38,8.69
	C35.38,148.93,35.38,143.12,35.39,137.31z"/>
<path class="st6" d="M1227.76,182.42c-8.86-0.11-17.72-0.21-26.58-0.35c-4.59-0.07-9.12-0.42-12.76-3.74
	c-3.01-2.97-7.79-5.57-5.86-10.53c1.77-4.53,6.86-3.8,10.88-3.81c32.59-0.11,65.18-0.13,97.76,0.02c4.93,0.02,10.59-0.61,12.2,6.24
	c-1.72,7.69-6.55,12.75-14.81,13.19c-17.99,0.95-36.02,0.52-54.03,0.18c-0.96-0.02-1.78-0.66-2.5-1.32
	C1230.63,182.34,1229.2,182.38,1227.76,182.42z"/>
<path class="st5" d="M1034.43,182.3c-8.33-1.65-15.14-5.2-17.73-14.07c-1.78-4.65-2.02-9.3,0.03-13.95
	c3.17-2.33,6.88-2.01,10.46-2.01c34.29-0.06,68.57-0.05,102.86-0.01c3.36,0,6.79-0.19,9.91,1.52c3.23,3.18,1.79,6.93,1.3,10.57
	c-0.06,1.81,0.12,3.76-2.32,4.27c-38.26,0.58-76.55-0.26-115.78,0.47c3.82,7.57,9.62,8.94,15.67,9.27
	c9.89,0.53,19.81,0.17,29.71,0.19c15.71,0.03,31.42-0.22,47.11,0.13c5.47,0.12,10.77-3.36,16.27-0.59c-0.09,0.45-0.15,0.9-0.19,1.36
	c-1.34,3.62-4.55,4.25-7.7,4.28c-21.04,0.22-42.07,0.23-63.11,0.02c-1.25-0.01-2.35-0.49-3.32-1.28
	C1049.88,182.41,1042.16,182.36,1034.43,182.3z"/>
<path class="st24" d="M1131.92,178.09c-7.62,2.84-15.53,2.97-23.54,2.92c-23.01-0.16-46.02-0.09-69.03-0.04
	c-7.78,0.02-14.2-2.7-18.81-9.05c-2.51-3.45-2.28-5.57,2.89-5.55c37.06,0.1,74.12,0.05,111.17,0.05c1.72,0,3.42,0.06,4.53,1.68
	c0.72,1.39-0.87,1.9-1.13,2.92C1137.26,174.48,1134.87,176.52,1131.92,178.09z"/>
<path class="st25" d="M1140.62,165.07c-0.05-3.43-0.11-6.85-0.16-10.28c-2.6-3-2.24-6.61-2.11-10.17c-0.27-4.29-0.3-8.58,0-12.86
	c-0.57-15.4-0.57-15.4-15.77-15.4c-2.89,0-5.79-0.01-8.68,0c-10.1,0.06-10.21,0.16-10.35,9.92c-0.02,1.69-0.05,3.37-0.18,5.07
	c0.02,2.65,0.08,5.3-1.83,7.47c-0.92,0.44-1.73,0.28-2.42-0.47c-2.71-8.86-1.13-17.89-1.03-26.87c2.54-5.39-0.88-11.91,3.19-17.02
	c12.91-3.02,25.85-2.5,38.82-0.29c2.12,1.53,2.82,3.78,3.1,6.23c-1.17,18.2-0.17,36.43-0.54,54.64c-0.06,2.84,0.65,5.75-0.62,8.51
	c-0.05,0.46-0.08,0.91-0.12,1.37C1141.55,165.6,1141.12,165.65,1140.62,165.07z"/>
<path class="st26" d="M938.42,182.35c-0.5-0.49-0.99-0.99-1.49-1.48c-0.46-1.01-0.16-1.68,0.9-2.01
	c10.55-0.67,21.11-0.17,31.66-0.17c2.44,0,4.79,0.49,6.65,2.27c0.17,0.44,0.15,0.87-0.09,1.28
	C963.51,182.28,950.96,182.32,938.42,182.35z"/>
<path class="st27" d="M892.08,181.2c-0.03,0.38-0.16,0.72-0.38,1.03c-12.52,0.01-25.05,0.02-37.57,0.04c-0.5-0.5-1-0.99-1.51-1.49
	c-0.47-0.95-0.2-1.58,0.81-1.9c12.25-0.06,24.51-1.01,36.73,0.66C890.98,179.89,891.62,180.45,892.08,181.2z"/>
<path class="st28" d="M1140.62,165.07c0.43-0.08,0.86-0.13,1.29-0.15c0.35,3.09-0.55,5.38-3.9,6.09c0.38-0.97,0.75-1.95,1.13-2.92
	C1139.63,167.09,1140.12,166.08,1140.62,165.07z"/>
<path class="st29" d="M443.94,121.4c-1.75-2.39-4.35-1.71-6.68-1.72c-8.71-0.07-17.43,0.27-26.11-0.13
	c-5.57-0.26-7.02,1.84-6.91,7.13c0.32,15.23,0.2,30.47,0.14,45.71c-0.01,2.3,0.92,4.88-1.18,6.86c-2.59-2.53-1.9-5.82-2.06-8.91
	c-0.35-6.5,0.81-13.08-0.99-19.5c-0.6-2.6-0.63-5.24-0.53-7.88c-0.32-4.76-0.28-9.52-0.02-14.27c-0.98-9.07-1.1-9.21-10.01-9.35
	c-6.29-0.1-12.58,0.07-18.87-0.07c-3.11-0.07-6.36,0.19-8.86-2.33c-1.02-4.12-1.64-8.22,0.61-12.18c3.22-2.24,6.93-1.91,10.53-1.92
	c34.14-0.05,68.27-0.05,102.41,0c3.6,0,7.31-0.31,10.57,1.81c2.71,4.87,1.67,9.97,0.86,15.05c-2.84,3.06-6.65,2.45-10.21,2.54
	c-6.54,0.16-13.08,0.15-19.62,0.05c-5.51-0.09-8.02,2.26-7.79,7.8c0.14,3.38,0.12,6.78-0.19,10.17c0.33,5.76,0.35,11.52,0,17.27
	c-0.17,7.56,1.44,15.22-1.27,22.63c-0.33,0.31-0.66,0.62-0.99,0.93c-2.41-2.1-1.46-4.93-1.47-7.45c-0.06-14.9,0.06-29.81,0-44.71
	C445.29,126.37,446.27,123.55,443.94,121.4z"/>
<path class="st30" d="M531.14,176.76c-0.51-0.92-1.03-1.84-1.54-2.76c-0.82-2.45-3.45-4.67-0.95-7.55c2.1-1.96,4.75-2.4,7.43-2.41
	c34.87-0.25,69.74-0.25,104.61,0.03c3.68,0.03,8.13-0.04,8.46,5.56c-2.98,8.28-9.64,11.45-17.66,12.75
	c-29.05-0.03-58.09-0.05-87.14-0.08l0.03-0.01C539.95,180.49,535.09,179.71,531.14,176.76z"/>
<path class="st31" d="M402.01,180.04c0.09,0.37-0.01,0.68-0.31,0.92c-12.68,1.24-25.36,0.98-38.04,0.16c-0.42,0-0.77-0.15-1.07-0.45
	c-2.94-4.55-0.99-9.59-1.44-14.4c0.11-1.44,0.51-2.74,1.75-3.64c13.03-2.21,26.04-3.26,38.98,0.57
	C402.9,168.8,402.72,174.42,402.01,180.04z"/>
<path class="st29" d="M486.24,181.04c-0.52,0.48-1.04,0.97-1.56,1.45c-10.09-0.09-20.18-0.14-30.26-0.3
	c-2.57-0.04-5.32,0.73-7.65-1.13c0,0,0.28-0.3,0.28-0.3c1.66-1.63,3.78-2.07,5.97-2.14c8.89-0.29,17.79-0.27,26.68-0.01
	C482.1,178.66,484.53,178.97,486.24,181.04z"/>
<path class="st14" d="M361.38,180.8c-0.06-4.8-0.13-9.59-0.19-14.39c0.41-0.68,0.83-0.68,1.25-0.01c0.05,4.76,0.09,9.51,0.14,14.26
	C362.19,180.75,361.79,180.8,361.38,180.8z"/>
<path class="st32" d="M740.55,150.96c116.63,9.24,15.46,9.17,14.68,14.5c22.88,4.55,43.47,15.39,1.33,16.36
	c-78.35,1.8-47.78-13.93-61.72-13.92c-2.91-0.02-5.79-0.3-8.07-2.46c0.22-12.81-3.4-14.56,14.45-14.67
	c10.71-0.07,10.54-5.85,21.14-9.02C725.31,139.71,738.45,149.12,740.55,150.96z"/>
<path class="st33" d="M689.71,167.87c19.79,0.01,39.59,0.02,59.38,0.03c-0.07,4.3-0.13,8.59-0.2,12.89
	c-16.43,0.05-32.86,0.11-49.29,0.13c-9.89,0.01-9.89-0.01-9.9-10.15C689.7,169.8,689.7,168.84,689.71,167.87z"/>
<path class="st34" d="M813.47,166.74c-1.74,8.07-7.13,12.41-14.78,14.44c-12.57-0.06-25.15-0.26-37.71-0.09
	c-4.39,0.06-6.14-1.41-5.87-5.86c0.28-4.58,0.34-9.21-0.01-13.77c-0.41-5.5,1.7-8.27,7.29-8.17c2.13,2.66,5.15,2.15,7.98,2.16
	c10.79,0.04,21.59-0.1,32.38,0.08c4.01,0.07,8.31-0.29,11.02,3.78C814.04,161.8,814.4,164.3,813.47,166.74z"/>
<path class="st35" d="M813.3,159.15c-10.47-2.89-21.17-1-31.75-1.4c-7.39-0.28-14.79-0.05-22.15-0.05c-0.15-2.92,2.48-2.78,3-4.4
	c0.01-0.42-7.28,0.44-7.23,0.02c7.06-1.6,19.1-7.59,23.17-13.18c11.75-0.81,23.55-2.76,35.12,1.29
	C814.26,147.33,814.59,153.25,813.3,159.15z"/>
<path class="st36" d="M1304.81,166.37c-0.45,0.57-0.89,1.15-1.34,1.72c-0.85-0.88-1.5-1.89-1.86-3.07
	c-2.84-9.2-2.84-9.23-12.58-9.23c-31.68-0.02-63.37,0.06-95.05-0.07c-4.84-0.02-9.58,1.2-14.42,0.68
	c-2.3-6.83-1.33-13.75-0.59-20.67c0.66-1.02,1.44-2.08,2.62-2.34c11.58-2.55,23.23-1.67,34.87-0.61c3.56,0.32,2.73,4.02,4.18,5.98
	c0.38,0.1,0.77,0.16,1.17,0.17c0.71,0.27,1.17,0.76,1.35,1.5c12.27,2,24.53,2.09,36.8,0c0.17-0.59,0.46-1.11,0.85-1.59
	c0.6-0.76,1.18-1.53,1.75-2.33c0.84-1.28,1.86-2.36,3.22-3.1c11.13-2.62,22.38-1.3,33.59-0.94c3.4,0.11,4.85,2.24,4.8,5.81
	c-0.05,3.54-0.78,7.17,0.57,10.65C1304.76,154.75,1304.78,160.56,1304.81,166.37z"/>
<path class="st37" d="M1304.75,34.06c-0.01,8.72-0.01,17.44-0.02,26.16c-3.04-0.17-3.24-2.73-3.4-4.7
	c-0.42-5.22-3.68-6.09-7.99-6.04c-7.47,0.08-14.94,0.01-22.42,0.04c-2.56,0.01-5.35,0.82-7.53-1.41
	c-1.53-7.66-0.61-15.39-0.58-23.08c0.02-4.28,2.33-6.4,6.98-6.28c8.93,0.24,17.88,0.33,26.8-0.02c5.66-0.22,8.04,1.76,7.57,7.5
	C1303.95,28.8,1303.5,31.54,1304.75,34.06z"/>
<path class="st2" d="M1264.12,48.62c11.91-3.09,24.02-0.84,36.03-1.33c3.04-0.12,3.06,2.34,3.25,4.62c0.23,2.8-1,5.86,1.33,8.32
	c0,7.27,0,14.54,0,21.81c-5.58-10.34-15.37-7.8-24.24-7.84c-15.35-0.06-14.01-1.01-14.09,14.2c-0.01,2.18-0.15,4.36-0.39,6.54
	c-0.24,1.33-0.78,2.49-1.82,3.38c-1.01,0.26-1.72-0.08-2.13-1.04c-0.51-14.68,0.19-29.34,0.64-44
	C1262.74,51.6,1262.7,49.88,1264.12,48.62z"/>
<path class="st38" d="M1264.12,95.16c0-5.55,0.25-11.11-0.08-16.64c-0.3-4.93,1.27-6.96,6.49-6.73c8.19,0.37,16.42,0.46,24.6-0.02
	c6.04-0.36,9.29,1.09,8.4,7.78c-0.1,0.77,0.78,1.66,1.2,2.5c0,8.72,0,17.45,0,26.17c-3.74-0.54-3.37-3.74-3.51-6.11
	c-0.28-4.71-2.78-6.11-7.04-6.08c-7.44,0.05-14.87-0.02-22.31,0.03C1269.26,96.07,1266.58,96.52,1264.12,95.16z"/>
<path class="st39" d="M1264.12,95.16c11.91-3.1,24.02-0.84,36.02-1.33c3.02-0.12,3.04,2.34,3.26,4.61c0.33,3.27-1.19,6.81,1.32,9.78
	c0,6.79,0,13.57,0,20.36c-3.04-0.16-3.23-2.72-3.39-4.69c-0.41-5.19-3.63-6.11-7.95-6.06c-7.45,0.08-14.91-0.01-22.36,0.05
	c-2.58,0.02-5.32,0.72-7.61-1.24c-2.14-6.28-2.31-12.49,0.69-18.58C1264.11,97.09,1264.11,96.12,1264.12,95.16z"/>
<path class="st40" d="M1264.13,116.97c11.9-3.11,24.02-0.83,36.02-1.33c3.04-0.13,3.06,2.33,3.25,4.61c0.23,2.8-1,5.86,1.33,8.32
	c0,6.79,0,13.58,0,20.37c-1.69-1.5-1.62-3.58-1.3-5.41c1.46-8.26-2.78-9.87-9.83-9.17c-9.8,0.97-19.78-1.54-29.49,1.51
	C1260.96,129.57,1260.95,123.27,1264.13,116.97z"/>
<path class="st41" d="M1425.38,102.49c-0.01-1.5-0.01-3.01-0.02-4.51c-1.55-1.67-2.25-3.75-2.13-5.93c0.6-10.57-2.46-21.4,2.13-31.7
	c0.54-0.03,1.08-0.05,1.62-0.08c0.03,4.85,0.06,9.7,0.1,14.54c0,5.81,0,11.63,0,17.44c0,5.33,0,10.67,0,16
	c-0.01,8.24-0.01,16.48-0.02,24.72c-0.33,1.98,0.56,4.27-1.48,5.81C1425.51,126.69,1425.44,114.59,1425.38,102.49z"/>
<path class="st42" d="M1384.83,60.29c-0.09,25.71-0.17,51.42-0.26,77.14c-0.41-1-0.83-2-1.24-3c0-6.79-0.01-13.57-0.01-20.36
	c0-6.3,0-12.6-0.01-18.9c0-6.79,0-13.57,0-20.36c0.02-4.85,0.04-9.7,0.06-14.55C1383.85,60.28,1384.34,60.28,1384.83,60.29z"/>
<path class="st43" d="M1140.64,32.54c-0.07,0.51-0.14,1.02-0.2,1.54c-7.85-6.15-17.08-4.93-26.1-4.93
	c-26.4,0.01-52.79-0.01-79.19,0.01c-14.18,0.01-15.36,1.15-15.92,15.11c-0.04,0.97-0.16,1.93-0.17,2.9
	c-0.08,5.76,1.39,11.67-1.62,17.15c-0.76,0.68-1.57,0.72-2.41,0.14c-1.98-9.55-1.14-19.14-0.48-28.73
	c1.42-10.59,8.49-17.43,18.37-17.78c29.52-0.01,59.04-0.02,88.55-0.03c8.18-2.24,15.27,1.89,17.71,10.31
	C1139.68,29.66,1140.16,31.1,1140.64,32.54z"/>
<path class="st44" d="M1179.8,135.89c0,6.78,0,13.56-0.01,20.34c3.2,4.65,3.27,9.59,1.34,14.7c-0.91-1.52-1.82-3.04-2.72-4.56
	c-1.78-4.7-0.7-9.57-0.75-14.35c-0.16-15.51,0.08-31.02-0.14-46.52c-0.07-5.06,1.74-7.02,6.78-6.75
	c11.55,0.63,23.16-0.96,34.68,0.88c3.4,10.49,1.08,21.24,1.48,31.87c-4.03-0.71-3.4-4.16-3.66-6.76c-0.38-3.95-2.39-5.43-6.11-5.44
	c-7.45-0.02-14.91-0.07-22.36,0.03c-4.16,0.06-6.15,2.02-6.2,6.17C1182.09,129.13,1182.09,132.77,1179.8,135.89z"/>
<path class="st45" d="M935.12,77.5c0.11-17.11,0.22-34.21,0.35-51.32c0.02-3.06-0.68-6.44,2.93-8.24
	c12.55,0.05,25.1,0.09,37.65,0.14c3.44,2.59,2.83,6.37,2.85,9.93c0.12,23.32,0.22,46.64,0.32,69.96c1.11,1.51,0.89,3.02-0.04,4.52
	c-0.02,23.82,0.02,47.65-0.18,71.47c-0.02,1.93,2.37,5.59-2.4,5.86c-2-1.79-1.13-4.09-1.12-6.24c0.24-14.04-0.09-28.07-0.19-42.11
	c0.48-11.51,0.29-23.01-0.07-34.51c0.96-15.92,0.14-31.79-1.34-47.63c0.34-4.32,0.26-8.66,0.22-13.01
	c-0.04-3.59-1.78-5.21-5.38-5.22c-8.21-0.03-16.42,0.05-24.62-0.05c-3.72-0.04-5.21,1.79-5.18,5.34c0.04,4.1-0.03,8.21,0.16,12.32
	c0.19,6.64,0.31,13.27-0.04,19.9c0.02,3.05,0.38,6.15-1.6,8.83C936.7,78.09,935.92,78.11,935.12,77.5z"/>
<path class="st10" d="M1179.8,135.89c-0.1-18.92-0.1-18.93,18.61-18.92c5.81,0,11.91-1.06,17.36,0.35
	c7.47,1.93,0.25,10.29,4.69,14.18c0.06,2.42,0.12,4.83,0.18,7.25c-1.76-3.73-4.77-4.71-8.71-4.38
	C1201.24,135.26,1190.39,132.78,1179.8,135.89z"/>
<path class="st45" d="M891.74,18.03c3.19,2.35,2.88,5.8,2.9,9.16c0.12,16.78,0.26,33.57,0.38,50.35c-0.69,0.57-1.41,0.62-2.17,0.14
	c-0.55-0.61-0.93-1.31-1.18-2.09c-0.62-4.82-0.68-9.66-0.53-14.5c0.41-7.47-0.4-14.83-1.35-22.24c-0.59-4.63-2.24-6.95-7.16-6.83
	c-6.96,0.16-13.93,0.14-20.89,0.01c-4.89-0.1-7.06,1.96-6.85,6.86c0.14,3.35,0.08,6.72-0.14,10.09c0.38,7.04,0.38,14.08,0,21.11
	c0.22,4.8,0.35,9.6-0.01,14.39c-0.17,4.67,0.82,9.43-0.98,13.99c-0.42,0.8-1.07,1.28-1.96,1.45c-0.94-0.36-1.24-1.01-0.88-1.96
	c0.1-23.89,0.19-47.79,0.31-71.68c0.02-3.06-0.73-6.44,2.85-8.31C866.63,17.97,879.19,18,891.74,18.03z"/>
<path class="st46" d="M196.8,98.08c0.08-18.16,0.04-36.31,0.26-54.47c0.18-14.83,5.21-21.56,18.6-25.68c30.5,0.02,61,0.05,91.5,0.07
	c9.41,2.3,15.24,8.2,17.63,17.55c-0.11,20.82-0.23,41.64-0.34,62.47c-4.37-1.37-3.15-5.22-3.49-8.25c-0.34-3.03-0.15-6.11,0.1-9.16
	c-0.34-5.8-0.33-11.61,0-17.41c-0.33-6.18-0.36-12.37,0-18.55c-0.12-2.41-0.26-4.84-0.73-7.21c-1.46-7.23-3.95-9.63-11.27-9.68
	c-31.96-0.23-63.91-0.09-95.87-0.07c-7.07,0-10.14,2.98-11.02,9.85c-0.28,2.16-0.19,4.35-0.38,6.53c0.2,3.47,0.2,6.94-0.47,10.37
	c-2.05,7.18-0.66,14.53-1.04,21.79c-0.03,5.59-0.01,11.19-0.01,16.78c-0.17,2.98,0.38,6.07-1.25,8.84c-0.59,0.82-1.32,0.98-2.2,0.48
	c0,0,0.02,0,0.02,0C196.82,100.91,196.81,99.5,196.8,98.08z"/>
<path class="st47" d="M688.13,80.8c-1.75-16.01-2.5-32.1,0.58-47.93c1.65-8.47,8.74-12.85,16.89-15.08
	c29.12,0.04,58.24,0.08,87.36,0.12c2.4,0,4.8,0.01,7.2,0.01c2.84,0.36,4.36,2.03,4.37,4.83c0.07,10.38,0.06,20.76,0.05,31.14
	c0,1.91-0.87,3.22-2.89,3.53c-1.78-4.02-0.53-8.22-0.71-12.33c-0.68-17.4-0.68-17.4-18.12-17.4c-24.64,0-49.28,0.03-73.92-0.01
	c-14.78-0.03-15.87,0.93-17.25,15.67c-0.06,0.85-0.19,1.69-0.35,2.53c-1.73,4.97-0.83,10.12-1.01,15.2
	C689.42,67.63,692.43,74.62,688.13,80.8z"/>
<path class="st45" d="M648.91,17.99c2.96,2.12,2.9,5.28,2.91,8.43c0.03,8.87,0.09,17.74,0.14,26.61c0.83,1.32,0.63,2.79,0.64,4.23
	c0.02,33.54,0.01,67.07,0,100.61c0,1.44,0.17,2.91-0.57,4.25c-0.3,1.52-0.06,3.21-1.38,4.41c-3.22-2.86-2.38-6.66-2.38-10.26
	c-0.34-5.38-0.31-10.76-0.01-16.14c-0.38-7.22-0.37-14.43-0.01-21.65c-0.35-6.81-0.41-13.61,0.01-20.42
	c-0.33-8.2-0.48-16.4-0.01-24.59c-0.36-7.62-0.42-15.25,0.01-22.86c-0.25-4.09-0.21-8.2-0.16-12.3c0.05-4.16-1.69-6.23-6.01-6.22
	c-7.49,0.02-14.97-0.02-22.46,0.01c-3.75,0.02-5.68,1.61-6.16,5.49c-1.01,8.15-2.31,16.26-1.37,24.52
	c0.33,8.1-0.78,16.18-0.06,24.27c0.33,8.66-0.68,17.32-0.06,25.98c-0.23,7.29,0.04,14.59-0.43,21.88c-0.78,1.52-0.86,3.96-3.68,2.85
	c-2.91-4.07-1.92-8.76-1.97-13.23c-0.08-6.94-0.29-13.89,0.15-20.83c0.27-1.86,0.84-3.6,2.04-5.09c0.1-23.87,0.2-47.74,0.32-71.6
	c0.02-3.07-0.65-6.43,2.86-8.32C623.81,18,636.36,17.99,648.91,17.99z"/>
<path class="st45" d="M564.57,17.97c0.97,1.05,1.95,2.09,2.92,3.14c1.4,2.24,0.72,4.72,0.73,7.08c0.06,20.31-0.4,40.63,0.19,60.93
	c0.38,13,1.56,25.98,1.23,39c-0.07,2.89,0.21,5.81-0.54,8.66c-0.31,0.9-0.84,1.66-1.57,2.28c-0.99,0.21-1.78-0.11-2.35-0.95
	c-2.46-6.05-1.11-12.35-1.26-18.56c-0.39-6.25-0.32-12.5-0.02-18.76c-0.41-9.05-0.42-18.1,0-27.15c-0.37-8.2-0.26-16.41-0.08-24.59
	c0.74-18.09,0.74-18.1-17.38-17.98c-4.1,0.03-8.2,0.13-12.29-0.1c-3.76-0.2-5.29,1.45-5.27,5.06c0.02,4.34-0.08,8.67,0.2,13.03
	c-1.2,16.38-2.19,32.75-1.45,49.18c-0.23,11.59-0.35,23.17,0.1,34.75c-0.31,8.44-0.23,16.89-0.3,25.33
	c-0.02,2.84,0.42,5.89-2.16,8.08c-2.04-3.05-1.29-6.52-1.31-9.81c-0.11-18.04-0.1-36.08-0.13-54.12c-1.09-1.67-1.12-3.47-0.64-5.34
	c0.05-23.42-0.04-46.84,0.07-70.26c0.01-3.32-1.19-7.42,3.68-8.83C539.48,18.02,552.03,18,564.57,17.97z"/>
<path class="st48" d="M361.1,18.43c12.34-0.15,24.68-0.24,37.01-0.48c5.46-0.1,6.33,3.31,6.34,7.61
	c0.02,14.28,0.04,28.57,0.06,42.85c0.02,10.03,0.03,10.03,10.14,8.94c0.61,0.74,0.67,1.53,0.18,2.36
	c-4.52,3.73-8.72,3.38-12.63-0.96c-1.75-9.69-3.28-19.41-2.58-29.31c-0.11-4.33,0.02-8.67-0.04-13.01
	c-0.11-7.61-0.45-8.21-8.26-8.31c-7.21-0.09-14.44-0.02-21.66,0.07c-3.51,0.04-4.74,1.63-4.86,4.76
	c-0.22,5.54,0.02,11.09-0.12,16.65c0.41,8.27,0.36,16.52-0.02,24.78c0.31,6.06,0.34,12.12-0.08,18.17
	c-0.07,1.73-0.22,3.45-1.24,4.95c-0.58,0.79-1.32,0.97-2.21,0.53c-0.03-26.17-0.05-52.34-0.08-78.5
	C361.15,19.17,361.17,18.8,361.1,18.43z"/>
<path class="st49" d="M432.05,44.22c3.03-8.72,8.06-16.47,11.91-24.8c8.89-2.72,18-0.69,26.99-1.25c4.04-0.25,8.11-0.13,12.17-0.17
	c2.81,1.58,3.4,3.87,1.95,6.63c-2.98,5.66-5.12,11.78-9.03,16.95c-3.77-4.49,1.68-7.97,1.34-12.72c-10.07-0.9-20.19-0.35-30.26-0.07
	c-4.25,0.12-5.25,4.44-7.23,7.43C437.83,39.35,437.77,44.63,432.05,44.22z"/>
<path class="st21" d="M36.76,146.06c-0.85-5.63,1.34-7.66,7.2-7.4c10.63,0.46,21.29,0.13,31.94,0.13c0.84,0.8,0.96,1.67,0.25,2.62
	c1.66,2.6,4.31,1.68,6.59,1.71c7.96,0.1,15.93,0.09,23.89,0.02c5.2-0.04,10.58,1.03,14.95-3.46c1.05-1.07,3.65-0.83,5.54-0.85
	c8.21-0.08,16.43,0.33,24.61-0.16c5.87-0.35,8,1.8,7.17,7.39C118.2,146.06,77.48,146.06,36.76,146.06z"/>
<path class="st50" d="M119.67,61.7c0.01,3.4,0.02,6.81,0.03,10.21c0,6.3,0,12.59,0,18.89c0,5.82,0,11.63-0.01,17.45
	c0,6.79-0.01,13.57-0.01,20.36c-0.61,3.39,1.19,7.12-1.46,10.22c-2.11-1.79-2.07-4.29-2.08-6.69c-0.09-21.8-0.08-43.6-0.01-65.4
	c0.01-1.94,0.08-3.89,1.08-5.65c0.58-0.94,1.39-1.21,2.43-0.82C119.64,60.75,119.65,61.23,119.67,61.7z"/>
<path class="st1" d="M119.64,60.27c-0.51,0.02-1.02,0.04-1.54,0.06c-0.4,0.2-0.8,0.39-1.2,0.59c-0.44,0.03-0.89,0.06-1.33,0.09
	c-9.75-0.26-19.51-0.03-29.26-0.14c-3.06-0.03-6.25,0.38-8.79-2.01c-0.5-0.01-1-0.02-1.51-0.03c4.62-3.02,9.76-1.18,14.64-1.4
	c7.41-0.33,14.85-0.07,22.27-0.1C115.63,57.31,118.29,57.27,119.64,60.27z"/>
<path class="st51" d="M692.63,96.51C692.5,96.08,692.63,96.95,692.63,96.51c-1.17-3.34-5.51-7.25-2.7-11.57
	c3.27-2.78,7.26-2.41,11.1-2.4c15.02,0.04,30.04-0.3,45.06,0.17c1.43,0.04,2.84,0,4.23-0.25c1.89-0.33,3.83-0.37,5.73-0.1
	c6.88,0.98,13.09,4.47,19.77,6.22c3.46,0.91,6.77,2.33,10.22,3.24c3.2,0.56,6.69,0.33,9.17,2.92c1.7,1.07,3.29,2.06,4.99,3.12
	c3.57,0.74,5.81,2.85,7.09,5.97c0.64,1.43,1.28,2.85,1.92,4.28c-0.41,0.3-1.04,0.67-1.29,0.44c-9.41-8.37-20.66-4.9-31.37-4.94
	c-1.92-0.01-3.88,0.06-5.5-1.27c-15.05,4.83-36.75,1.41-48.77,8.71c-2.76,0.1,46.24,4.28-8.7-0.64c-6.43-2.17-13.59-7.33-15.45-7.65
	c-1.53-0.91,3.03,0.55,1.5-0.36C696.88,100.93,693.52,100.17,692.63,96.51z"/>
<path class="st44" d="M705.53,108.26c12.17,2.17-84.75-32.04,94.62-7.9c4.26,0.57,6.1,6.35,10.63,7.83
	c2.98,3.47,3.9,7.83,3.99,12.07c0.31,13.92,0.17,27.86,0.17,41.79c0,1.69-0.21,3.37-1.47,4.69c-0.06-2.53-0.12-5.06-0.18-7.59
	c0-5.81,0-11.63-0.01-17.44c-3.02-3.49-2.21-7.76-2.2-11.77c0-5.17-2.46-7.47-7.42-7.67c-5.06-0.21-10.11-0.09-15.17-0.07
	c-2.55,0.01-5.44,0.79-7.02-2.29C781.06,112.78,714.87,112.68,705.53,108.26z"/>
<path class="st2" d="M850.98,102.48c0.15-0.99,0.29-1.97,0.44-2.96c0.36-0.01,0.73-0.02,1.09-0.04c1.14,0.84,1.64,2.06,1.97,3.38
	c0.66,5.23,0.42,10.47,0.25,15.72c0.33,5.25,0.31,10.51,0.01,15.76c0.28,5.65,0.35,11.29-0.01,16.94c0.13,4.62,0.24,9.23-0.12,13.85
	c-0.15,1.26-0.42,2.47-1.11,3.56c-0.53,0.8-1.24,1-2.12,0.63C851.24,147.03,851.11,124.76,850.98,102.48z"/>
<path class="st52" d="M851.38,169.31c0.37,0,0.73,0,1.1-0.01c2.88,3.34,2.85,6.76,0.3,10.26c-0.03,0.41-0.08,0.81-0.15,1.22
	C849.62,177.24,851.52,173.17,851.38,169.31z"/>
<path class="st53" d="M977.51,175.11c-0.3,1.57-0.6,3.13-0.9,4.7c0.01,0.45-0.15,0.84-0.48,1.15c-10.27-0.01-20.55-0.03-30.82-0.03
	c-2.86,0-5.76,0.26-8.31-1.5c-1.33-5.43-1.15-10.87-0.13-16.32c2.18-1.91,4.89-2.11,7.53-2c10.33,0.45,20.76-1.54,30.98,1.33
	C978.75,166.22,975.49,171.11,977.51,175.11z"/>
<path class="st14" d="M1015.56,167.78c-0.02-11.6-0.03-23.21-0.05-34.81c0.89-0.43,1.62-0.24,2.2,0.56
	c1.96,3.61,1.3,7.52,1.32,11.35c0.18,3.49,0.43,6.99-2.12,9.9c-0.07,4.48-0.14,8.96-0.21,13.45
	C1016.29,168.16,1015.91,168.01,1015.56,167.78z"/>
<path class="st5" d="M1181.14,170.93c-0.45-4.9-2-9.7-1.34-14.7c2.27-3.39,5.76-2.92,9.13-2.91c34.85,0.01,69.69,0.01,104.54,0.01
	c9.88,0,9.87,0,9.91,9.69c0.01,1.69,0.06,3.39,0.1,5.08c0.07,1.26-0.37,2.27-1.43,2.97c-0.35-3.72-2.7-4.68-6.05-4.67
	c-35.82,0.04-71.63-0.03-107.45,0.08c-5.8,0.02-6.77,2.36-3.49,7.21c1.07,1.58,2.24,3.1,3.36,4.65
	C1184.68,177.16,1182.37,174.58,1181.14,170.93z"/>
<path class="st44" d="M937,163.52c0,5.3,0.01,10.61,0.01,15.91c-0.05,0.48-0.07,0.96-0.08,1.44c-2.58-2.04-1.5-4.92-1.51-7.43
	c-0.07-16.19-0.12-32.39,0.12-48.57c0.07-4.58-1.15-6.54-6.08-6.37c-9.41,0.32-18.85,0.33-28.27,0c-5.06-0.18-6.76,1.48-6.66,6.59
	c0.29,15.7,0.19,31.42,0.15,47.12c-0.01,2.57,0.8,5.36-1.2,7.65c-3.28-2.93-1.9-6.87-2.29-10.43c0.02-6.27,0.02-12.55-0.01-18.82
	c0.17-7.7-0.37-15.32-1.47-22.99c-0.76-5.33-3.1-6.92-7.97-6.84c-6.74,0.12-13.49,0.09-20.23-0.01c-3.12-0.05-6.32,0.06-8.84-2.32
	c-0.01-5.34-0.01-10.68-0.02-16.02c1.28-2.76,3.72-2.53,6.18-2.55c36.85-0.24,73.71,0.18,110.56-0.33c5.49-0.08,8.01,2.27,7.55,7.9
	c-0.28,3.36-0.01,6.75-0.08,10.12c-1.23,4.1-4.71,3.61-7.78,3.62c-7.75,0.04-15.5,0.23-23.24,0c-5-0.15-7.08,1.93-6.92,6.87
	c0.18,5.56-0.13,11.14,0.27,16.71C938.68,151.06,940.95,157.66,937,163.52z"/>
<path class="st27" d="M893.14,169.37c0.11,3.5,0.22,6.99,0.33,10.49c-0.46,0.45-0.93,0.9-1.4,1.35c0,0-0.38-0.38-0.38-0.38
	c-2.61-3.47-2.37-7.13-0.72-10.88C891.53,169.12,892.25,168.93,893.14,169.37z"/>
<path class="st54" d="M1016.91,154.78c0-3.39,0-6.79,0-10.18c2.08-1.97,4.7-2.43,7.39-2.4c24.61,0.23,49.19-2.15,73.81-0.95
	c10.45,1.67,20.97,0.56,31.46,0.91c3.78,0.13,7.73-0.44,10.89,2.45c0,3.39,0,6.79,0,10.18
	C1099.27,154.79,1058.09,154.79,1016.91,154.78z"/>
<path class="st55" d="M1016.91,47.17c0-2.91-0.13-5.82,0.02-8.72c0.44-8.44,3.77-11.62,12.03-11.65
	c34.39-0.1,68.77-0.07,103.16-0.43c5.94-0.06,5.15,5.61,8.32,7.7c2.84,21.73,0.92,43.56,1.35,65.34c-1.51-1.09-1.22-2.73-1.3-4.26
	c-4.43-7.44-1.83-15.53-2.19-23.35c-0.54-4.82-0.41-9.67-0.27-14.49c0.17-5.65-2.41-7.7-7.85-7.67
	c-12.33,0.07-24.65,0.02-36.98,0.01c-21.75-0.02-43.51,0.03-65.26-0.03C1024.12,49.61,1020.12,50.06,1016.91,47.17z"/>
<path class="st56" d="M1016.91,47.17c38.54,0,77.07,0.15,115.61-0.15c6.45-0.05,8.7,1.75,8.09,8.17
	c-0.52,5.53-0.12,11.14-0.13,16.71c-4.44,3.58-9.72,2.13-14.68,2.35c-5.07,0.22-10.16,0.16-15.23,0.04
	c-4.89-0.11-6.93,1.98-6.97,6.9c-0.04,4.72,1.12,9.77-2.35,13.96c-0.77,5.31,1.6,10.91-1.48,16.01c-3.06-3.96-1.97-8.98-3.45-13.34
	c-0.69-9.38-0.08-18.79-0.36-28.18c-0.23-7.49-1.02-8.44-8.39-8.43c-8.66,0.01-17.35-0.71-25.97,0.55c-0.69,0.29-1.39,0.57-2.06,0.9
	c-2.48,2.55-0.5,7.31-4.5,9.11c-12.64,1.44-25.27,2.56-37.83-0.65c-1.61-2.09-1.28-4.29-0.34-6.52
	C1016.89,58.79,1016.9,52.98,1016.91,47.17z"/>
<path class="st57" d="M1101.25,95.15c0-5.81,0.2-11.64-0.06-17.44c-0.2-4.41,1.43-5.99,5.87-5.9c11.14,0.23,22.28,0.08,33.43,0.09
	c0,7.75,0.01,15.5,0.01,23.25C1127.41,95.15,1114.33,95.15,1101.25,95.15z"/>
<path class="st58" d="M1098.33,143.15c-27.17-0.99-54.26,2.34-81.42,1.46c-0.01-3.88-0.02-7.76-0.03-11.64
	c-0.93-1.78-1.14-3.5,0.39-5.08c12.65-2.94,25.35-2.32,38.06-0.47c3.95,2.29,1.85,7.07,4.14,10.04c1.37,1.56,3.16,2.17,5.17,2.14
	c10.11-0.16,20.23,0.58,30.32-0.45c1.49-0.35,2.95-1.1,4.53-0.45c0.58,0.03,1.16,0.07,1.74,0.1
	C1102.14,141.48,1100.12,142.23,1098.33,143.15z"/>
<path class="st40" d="M1101.26,131.52c-0.05-17.46-0.05-17.46,17.1-17.46c2.88,0,5.76,0,8.64,0c13.54,0,13.54,0,13.5,13.87
	c0,1.2-0.02,2.4-0.03,3.6c-1.66,1.58-3.7,2.22-5.91,2.3c-9.12,0.33-18.25,0.33-27.38,0
	C1104.96,133.75,1102.92,133.08,1101.26,131.52z"/>
<path class="st58" d="M1101.26,131.52c13.07,0,26.14,0.01,39.21,0.01c0,4.36,0,8.72,0,13.08c-11.26,0-22.51-0.02-33.77,0
	c-2.88,0.01-5.76,0.12-8.36-1.47c0.97-1.46,1.94-2.91,2.91-4.37C1101.25,136.36,1101.25,133.94,1101.26,131.52z"/>
<path class="st59" d="M891.84,169.32c-0.05,3.83-0.09,7.67-0.14,11.5c-10.64,0.04-21.28,0.06-31.93,0.15c-2.45,0.02-4.84-0.09-7-1.4
	c-0.1-3.42-0.2-6.84-0.3-10.26c0.06-0.96,0.12-1.93,0.17-2.89c0.71-0.65,1.48-1.45,2.39-1.54c12.12-1.13,24.24-2.21,36.28,0.68
	C892.64,166.65,892.73,167.92,891.84,169.32z"/>
<path class="st60" d="M650.33,156.24c0.1,3.43,0.21,6.86,0.31,10.28c-0.5,1.03-1,2.07-1.5,3.11c-1.44-3.38-4.4-3.23-7.35-3.23
	c-35.51,0.02-71.02,0.02-106.54-0.01c-2.47,0-4.81,0.25-6.98,1.48c-3.91-3.79-2.3-8.07-1.11-12.32c2.29-1.69,4.98-1.79,7.64-1.8
	c35.81-0.1,71.62-0.12,107.42,0.01C645.15,153.77,648.07,153.99,650.33,156.24z"/>
<path class="st61" d="M486.24,181.04c-13.06-0.09-26.13-0.19-39.19-0.28c-0.06-7.69-0.12-15.38-0.19-23.06
	c1.09-0.97,2.32-1.91,3.76-1.96c11.66-0.39,23.35-1.87,34.92,0.94c3.86,3.64,0.86,8.67,2.57,12.75c-0.1,3.82,0.98,7.72-0.7,11.45
	C487.04,181,486.64,181.06,486.24,181.04z"/>
<path class="st26" d="M526.83,156.24c0.59,3.86-1.4,8.05,1.44,11.63c0.44,2.04,0.88,4.09,1.32,6.13c-2.76-1.78-3.67-4.62-4.32-7.6
	c0.08-11.16,0.16-22.31,0.24-33.47c1.95-4.48-1.15-9.67,1.94-14c12.91-1.97,25.81-3.54,38.56,0.95c0.04,6.29,0.07,12.57,0.11,18.86
	c-2.43,2.67-5.72,2.31-8.82,2.38c-6.54,0.15-13.09,0.21-19.62,0.01c-5.51-0.17-8.94,1.35-8.55,7.66
	C529.3,151.47,528.8,154.13,526.83,156.24z"/>
<path class="st62" d="M402.01,180.04c-0.08-5.51-0.17-11.02-0.25-16.53c-2.98-4.37-3.29-8.73,0.02-13.1
	c3.24,9.47,0.54,19.24,1.44,28.83C402.81,179.51,402.41,179.77,402.01,180.04z"/>
<path class="st57" d="M487.49,93.81c0.01,25.17,0.03,50.34,0.04,75.52c-2.75-3.6-0.79-7.78-1.42-11.64
	c-3.93-5.43-2.05-11.58-2.19-17.49c0.2-6.83-1.98-13.91,2.17-20.31c0-4.85,0-9.7,0-14.54c-0.41-0.88-0.31,0.35-0.41-0.57
	c-1.18-10.62-8.39-10.35-16.66-10.27c-34.13,0.3-68.27-0.09-102.41,0.27c-1.48,0.02-2.91,0.02-4.08-1.07c0-6.3,0.01-12.6,0.01-18.9
	c2.24-2.7,5.44-3.11,8.55-3.08c8.41,0.08,16.84,0.49,25.22-0.27c6.12-0.55,5.92,3.96,6.93,7.68c3.87,1.57,7.74,1.54,11.61,0
	c2.23-6.06,6.68-8.39,12.99-8.2c7.74,0.23,15.5,0.06,23.24,0.11c2.59,0.02,5.59,0.61,6.02,3.09c0.95,5.49,4.69,5.04,8.55,5.19
	c7.92,0.31,14.54,3.24,19.14,9.98C485.68,90.8,486.59,92.31,487.49,93.81z"/>
<path class="st14" d="M362.52,93.7c11.09-2.87,22.39-1.01,33.57-1.27c21.7-0.5,43.43-0.15,65.14-0.15c5.27,0,10.54,0.13,15.8-0.06
	c6.72-0.24,10.53,2.01,9.09,9.5c-0.22,1.16-0.04,2.41-0.05,3.61c-41.18,0-82.36,0-123.54,0c-1.17-2.42-1.34-4.86-0.1-7.31
	C362.48,96.59,362.5,95.14,362.52,93.7z"/>
<path class="st63" d="M401.77,150.41c-0.01,4.37-0.01,8.73-0.02,13.1c-13.07,0-26.14,0-39.2,0c-1.31-6.92-1.15-13.84-0.06-20.77
	c7.47-4,15.53-1.7,23.3-1.99c5.36-0.19,11.12-1.48,15.96,2.4C401.76,145.58,401.76,148,401.77,150.41z"/>
<path class="st64" d="M486.09,119.89c0,6.78,0,13.57,0.01,20.35c-1.66,1.56-3.7,2.23-5.92,2.31c-9.13,0.33-18.27,0.33-27.4,0
	c-2.21-0.08-4.26-0.74-5.92-2.31c0-4.56,0.17-9.14-0.06-13.69c-0.25-5.02,1.97-6.83,6.86-6.74
	C464.47,120.02,475.28,119.88,486.09,119.89z"/>
<path class="st54" d="M446.86,140.25c13.08,0,26.16,0,39.24-0.01c0,5.81,0.01,11.63,0.01,17.44c-13.08,0-26.17,0-39.25,0.01
	C446.86,151.88,446.86,146.06,446.86,140.25z"/>
<path class="st62" d="M401.75,143.16c-13.07,0.01-26.13,0.01-39.2,0.02c-1.01-1.09-0.7-2.45-0.76-3.74
	c0.53-3.88-1.17-7.98,1.2-11.68c12.98-2.17,25.94-3.62,38.77,0.85C401.75,133.45,401.75,138.31,401.75,143.16z"/>
<path class="st40" d="M401.75,128.6c-13.07,0-26.15,0-39.22,0c-1.19-3.87-1.22-7.75,0.02-11.62c9.11,0,18.22-0.01,27.32-0.01
	C401.76,116.97,401.76,116.97,401.75,128.6z"/>
<path class="st2" d="M362.55,116.98c-0.01,3.87-0.01,7.75-0.02,11.62c-0.03,3.87-0.06,7.74-0.09,11.61
	c-0.4,0.72-0.82,0.69-1.24,0.02c-0.02-14.07-0.05-28.13-0.07-42.2c0.44,0.01,0.88,0.01,1.33,0c0.03,2.44,0.06,4.88,0.1,7.31
	C362.55,109.22,362.55,113.1,362.55,116.98z"/>
<path class="st57" d="M361.2,140.23c0.42,0,0.83,0,1.24-0.02c0.04,0.99,0.07,1.98,0.11,2.97c0,6.78-0.01,13.55-0.01,20.33
	c-0.03,0.97-0.07,1.93-0.1,2.9c-0.42,0.01-0.84,0.01-1.25,0.01C361.2,157.68,361.2,148.96,361.2,140.23z"/>
<path class="st65" d="M323.21,80.61c0.66,5.79-1.24,11.75,1.24,17.41c0.06,22.79,0.13,45.57,0.2,68.36
	c-0.91,1.52-1.82,3.05-2.74,4.57c-0.64-0.48-1.06-1.11-1.29-1.87c-0.18-0.76-0.23-1.53-0.17-2.31c0.64-3.8,0.76-7.64,0.69-11.49
	c-0.31-3.72-0.16-7.43-0.06-11.14c-0.36-5.61-0.32-11.21-0.01-16.81c-0.38-5.3-0.21-10.62-0.17-15.92c0.03-4.47-1.71-6.69-6.39-6.63
	c-7.24,0.09-14.49,0.08-21.73,0c-4.65-0.05-6.45,2.15-6.45,6.62c0.01,5.31,0.19,10.62-0.19,15.94c-0.52,3.6,2,8.45-4.02,9.78
	c-1.41-1.54-1.56-3.47-1.63-5.41c-0.58-15.9,0.26-31.75,1.59-47.58c0.12-1.46,0.59-2.83,1.58-3.97
	C296.88,77.08,310.08,76.34,323.21,80.61z"/>
<path class="st60" d="M321.62,169.37c0.1,0.53,0.19,1.05,0.29,1.58c-1.22,3.57-3.55,6.09-7.1,7.44c0,0-0.37-0.44-0.37-0.44
	C314.95,173.52,316.66,170.08,321.62,169.37z"/>
<path class="st59" d="M321.62,169.37c-2.39,2.86-4.79,5.72-7.18,8.58c-9.9,4.5-20.45,2.51-30.75,3.13c-3.69,0-7.38-0.01-11.06-0.02
	c-18.25,1.33-36.53,0.73-54.78,0.36c-7.77-0.16-13.96-4.79-17.25-12.37c0.01-1.02,0.47-1.78,1.36-2.28c3.4-1.73,7.09-1.42,10.7-1.43
	c32.47-0.04,64.93-0.06,97.4,0.03c4.02,0.01,8.34-0.82,11.71,2.49C321.72,168.37,321.67,168.87,321.62,169.37z"/>
<path class="st66" d="M781.48,119.9c7.4-0.01,14.81,0.02,22.21-0.03c6.46-0.05,10.7,1.8,9.71,9.57c-0.52,4.03-0.1,8.18-0.1,12.27
	c-9.4,0-18.81,0.03-28.21-0.04c-2.32-0.02-4.9,0.71-6.75-1.53C781.56,133.73,781.56,126.82,781.48,119.9z"/>
<path class="st67" d="M196.81,102.33c0.43,0.07,0.85,0.15,1.27,0.24c2.76,2.43,2.12,5.74,2.15,8.8c0.1,11.34,0.03,22.68,0.05,34.01
	c-0.07,5.41,0.06,10.83-0.11,16.24c-0.15,1.86-0.46,3.64-2.12,4.83c-1.76-1.76-1.41-4.03-1.41-6.16
	C196.67,140.98,196.75,121.65,196.81,102.33z"/>
<path class="st68" d="M198.05,166.46c0.07-1.48,0.14-2.96,0.21-4.43c0.61-0.43,1.21-0.42,1.82,0.01c1.38,1.78,1.4,3.77,0.93,5.84
	c0.01,0.48,0.05,0.96,0.12,1.44c0.02,0.9,0.03,1.8,0.04,2.7C199.1,170.75,198.85,168.45,198.05,166.46z"/>
<path class="st38" d="M1262.78,138.79c0.03-13.56,0.05-27.13,0.08-40.69c0.42-0.02,0.83-0.04,1.24-0.04
	c0.01,6.31,0.01,12.61,0.02,18.92c0,6.3,0,12.6-0.01,18.9C1263.67,136.85,1263.23,137.82,1262.78,138.79z"/>
<path class="st69" d="M803.08,45.71c-0.12,3.94,0.74,8-1.38,11.71c-0.09,0.35-0.17,0.7-0.25,1.06c-4.95,1.87-10.08,2.38-15.34,2.46
	c-17.77,0.25-35.56-0.74-53.31,0.57c-0.92,0.16-1.83,0.17-2.75,0.08c-10.26-0.77-20.53-0.15-30.8-0.4c-3.31-0.08-6.75,0.33-9.6-2.02
	c-0.98-4.49-1.11-8.98,0.06-13.46c0-0.48,0-0.97,0-1.45c2.3-2.17,5.2-2.46,8.12-2.47c32.16-0.1,64.32-0.15,96.47,0.04
	C797.7,41.84,801.16,42.14,803.08,45.71z"/>
<path class="st70" d="M893.3,77.71c0.58-0.06,1.15-0.12,1.73-0.18c13.37-0.01,26.73-0.02,40.1-0.03c0.59,0.06,1.18,0.12,1.77,0.18
	c-0.48,4.61-4.19,4.87-7.42,4.98c-9.57,0.3-19.15,0.3-28.71,0C897.52,82.56,893.84,82.29,893.3,77.71z"/>
<path class="st55" d="M1016.88,64.6c0.01,1.95,0.02,3.9,0.04,5.84c2.71,3.49,2.58,7.2,0.84,11.02c-0.57,0.82-1.31,1.02-2.22,0.61
	c-0.01-5.82-0.01-11.63-0.02-17.45C1015.96,64.62,1016.42,64.61,1016.88,64.6z"/>
<path class="st71" d="M976.17,118.43c0-3.87-0.1-7.74,0.03-11.61c0.11-3.27-1.67-5.75-4.49-5.39c-8.49,1.1-16.96,0.19-25.43,0.51
	c-9.72,0.36-19.47,0.29-29.2,0.33c-13.94,0.05-27.89,0-41.83,0.03c-7.54,0.01-15.07,0.09-22.61,0.14c-0.04-0.98-0.08-1.96-0.13-2.94
	c0.04-4.83,0.09-9.66,0.13-14.49c4.88-2.73,10.32-2.45,15.56-2.41c32.89,0.27,65.77,0.04,98.65-0.08c2.89-0.01,5.83-0.05,8.5,1.39
	c3.43,3.77,0.11,8.69,2.15,12.7c0,11.62-0.01,23.25-0.01,34.87C971.68,127.67,973.91,123.05,976.17,118.43z"/>
<path class="st52" d="M976.18,84.97c-35.98,0-71.97,0.1-107.95-0.12c-5.2-0.03-10.39,2.67-15.58,0.14c0-4.85,0-9.69,0-14.54
	c2.47-2.39,5.62-2.4,8.73-2.45c6.69-0.1,13.37-0.09,20.06-0.02c10.09,0.1,10.17,0.2,11.85,9.71c0,0,0.02,0.02,0.02,0.02
	c1.44,1.8,3.42,2.78,5.62,2.8c10.8,0.09,21.59,0.09,32.39,0c2.2-0.02,4.18-0.99,5.59-2.82c0.02-2.89,0.05-5.79,0.07-8.68
	c2.04-1.99,4.63-2.4,7.3-2.46c8.14-0.19,16.28-0.29,24.42,0.02c7.33,0.28,8.25,1.29,8.15,8.5C976.8,78.36,977.63,81.76,976.18,84.97
	z"/>
<path class="st26" d="M976.17,118.43c0.59,4.34-1.29,8.92,1.33,13.05c0.01,14.54,0.01,29.09,0.02,43.64
	c-2.63-3.62-0.76-7.75-1.34-11.61c-2.61-2.76-2.03-6.25-2.09-9.55c-0.2-10.12-0.33-10.34-10.67-10.1
	c-6.71,0.15-13.41,0.5-20.12,0.39c-2.15-0.04-4.33,0.1-6.3-1.05c-0.02-6.26-0.03-12.53-0.06-18.79c-0.02-3.89,1.65-5.3,5.75-5.36
	C953.84,118.87,965.04,120.16,976.17,118.43z"/>
<path class="st70" d="M976.18,84.97c0-16,0-16-15.97-16c-7.75,0-15.5,0.01-23.24,0.02c0-7.27,0-14.54,0-21.81
	c1.64-1.59,3.69-2.26,5.9-2.34c9.13-0.34,18.26-0.33,27.39,0c2.22,0.08,4.25,0.76,5.92,2.31c1.69,16.45,1.65,32.94,1.33,49.44
	C974.9,92.97,976.74,88.84,976.18,84.97z"/>
<path class="st55" d="M976.18,47.16c-13.07,0.01-26.14,0.02-39.21,0.03c-0.01-3.62,0.44-7.32-0.15-10.85
	c-1.01-6.07,1.63-7.87,7.17-7.68c9.13,0.3,18.29,0.71,27.41,0.3c3.99-0.18,4.67,1.48,4.73,4.44
	C976.24,37.98,976.17,42.57,976.18,47.16z"/>
<path class="st55" d="M893.21,61.69c-0.39-0.6-3.37,31.3-3.48,30.66c-1.84-11.28-5.07-14.86-16.71-14.85
	c-8.66,0-9.39,3.29-18.04,3.3c-3.75-54.54-2.58-51.09,16.26-51.09c0.96,0,1.93,0,2.89,0c18.75,0,18.77,0,19.14,18.97
	C893.34,53.02,893.23,57.36,893.21,61.69z"/>
<path class="st2" d="M484.78,89.3c-6.61-6.15-13.98-10.2-23.46-8.76c-1.07,0.16-3.22-0.38-3.28-0.83c-1.53-10.5-10-5.56-15.4-6.66
	c-4.58-0.93-9.53,0.18-14.3-0.07c-5.69-0.3-10.26,1.34-13.49,6.17c-0.07-0.6-0.13-1.19-0.2-1.79c2.88-5.24,5.76-10.49,8.63-15.73
	c1.74-1.44,2.81-3.45,3.4-5.46c2.85-9.59,9.38-12.33,18.79-11.35c6.45,0.68,13.03-0.24,19.52,0.33c6.01,0.53,7.04,2.53,4.56,8.03
	c-3.07,6.8-6.98,13.19-9.59,20.21c-1.53,4.24,0.91,4.37,4.23,4.73C472.48,79.01,481.02,79.89,484.78,89.3z"/>
<path class="st37" d="M459.96,73.38c0.52-7.01,5.06-12.35,7.77-18.44c3.25-7.28,3.15-7.72-4.53-7.77c-7.7-0.05-15.44,0.42-23.1-0.15
	c-6.08-0.45-9.36,1.85-11.5,7.3c-1.08,2.75-1.8,6.16-5.32,7.3c2.18-6.18,5.14-11.97,8.77-17.41c4.86-2.77,5.49-8.26,7.87-12.57
	c1.66-3,3.54-5.31,7.01-5.35c11.18-0.13,22.37-0.05,33.74-0.05c-0.35,6.31-5.41,9.91-4.64,15.34
	C471.4,52.55,466.22,63.24,459.96,73.38z"/>
<path class="st69" d="M691.15,86.43c0.95,2.94,1.9,5.89,2.85,8.83c-4.48-3.8-5.69-8.92-5.87-14.46c0.09-6.84,0.18-13.68,0.27-20.51
	c0.86-0.47,1.57-0.29,2.13,0.52c1.85,3.51,1.28,7.31,1.28,11.04C691.89,76.71,692.3,81.61,691.15,86.43z"/>
<path class="st7" d="M199.64,44.26c0-2.42-0.11-4.84,0.02-7.25c0.41-7.71,5.15-11.74,12.8-11.71c30.7,0.11,61.39,0.05,92.09,0.05
	c15.94,0,18.69,2.79,18.66,18.93c-2.74,2.56-6.19,2.49-9.57,2.5c-34.81,0.06-69.62,0.06-104.43,0
	C205.82,46.76,202.37,46.81,199.64,44.26z"/>
<path class="st72" d="M199.64,44.26c41.19,0.01,82.38,0.01,123.57,0.02c0,6.3,0,12.6,0,18.9c-2.77,2.54-6.24,2.3-9.6,2.35
	c-6.28,0.08-12.57,0.2-18.84-0.02c-5.54-0.19-8.86,1.44-8.48,7.69c0.16,2.67-0.34,5.32-2.3,7.42c-0.48,18.91-2.35,37.8-1.3,56.74
	c0.4,2.01,0.58,3.8-2.39,2.26c-2.99-6.45-1.3-13.29-1.59-19.95c-0.24-5.53-0.16-11.08-0.01-16.62c0.32-1.77,0.26-3.56,0.22-5.34
	c-0.84-11.24,0.5-22.54-0.78-33.75c-0.68-1.63-1.71-3.02-3.61-2.98c-9.96,0.2-19.96-1.08-29.86,0.78c-0.52,0.52-1.02,1.05-1.44,1.66
	c-1.74,6.96-0.37,14.01-0.81,20.99c-0.19,3.1,0.53,6.35-1.59,9.12c-0.74,0.58-1.51,0.62-2.32,0.12c-3.26-5.4-1.47-11.33-1.83-17.02
	c0.86-18.14,0.32-14.81-14.01-15.06c-5.3-0.09-10.6,0.06-15.89-0.05c-2.89-0.06-5.88,0.04-7.67-2.94c-0.17-1.42-0.51-2.87,0.51-4.14
	C199.63,51.04,199.63,47.65,199.64,44.26z"/>
<path class="st73" d="M283.98,80.61c-0.03-17.46-0.03-17.46,17.42-17.45c7.27,0,14.53,0.01,21.8,0.01c0,5.81,0.01,11.63,0.01,17.44
	C310.14,80.61,297.06,80.61,283.98,80.61z"/>
<path class="st68" d="M198.16,146.06c-0.02-14.5-0.05-29-0.08-43.49c0.1-2.96,0.21-5.91,0.31-8.87c0.91-0.38,1.62-0.14,2.14,0.7
	c1.17,1.94,1.13,4.11,1.24,6.26c0.37,9.11,0.39,18.22,0.03,27.34c0.08,5.11,0.4,10.22-0.33,15.32c-0.2,0.85-0.56,1.62-1.06,2.33
	C199.78,146.38,199.02,146.52,198.16,146.06z"/>
<path class="st7" d="M199.62,54.43c0.01,1.46,0.01,2.91,0.02,4.37c3.4,4.49,2.05,9.58,1.85,14.53c-0.17,0.83-0.5,1.61-0.95,2.33
	c-0.55,0.78-1.28,1-2.17,0.67C198.83,69.03,196.56,61.58,199.62,54.43z"/>
<path class="st74" d="M198.37,76.33c0.42-0.05,0.83-0.08,1.25-0.08c3.56,5.82,3.56,11.63,0,17.45c-0.41,0-0.83,0.01-1.24,0.01
	C198.39,87.91,198.38,82.12,198.37,76.33z"/>
<path class="st37" d="M803.08,45.71c-2.84-1.8-6.02-1.45-9.14-1.45c-34.75,0-69.49,0-104.24,0c0.01-2.89-0.22-5.82,0.09-8.68
	c0.73-6.65,5.7-10.3,12.68-10.28c29.42,0.1,58.85,0.04,88.27,0.05c12.37,0,12.37,0,12.37,12.4
	C803.12,40.4,803.09,43.05,803.08,45.71z"/>
<path class="st37" d="M689.7,60.25c-0.43,0-0.86,0.01-1.29,0.03c0.39-4.86-1.57-9.93,1.29-14.58c0,4.36,0,8.73,0.01,13.09
	c0.37,0.32,0.49,0.65,0.37,0.97C689.95,60.09,689.82,60.25,689.7,60.25z"/>
<path class="st54" d="M526.83,156.24c-0.03-17.46-0.03-17.45,17.75-17.46c7.18,0,14.36-0.02,21.54-0.04c0,0,0,0.01,0,0.01
	c0.8,1.2,1.58,2.51,3.25,2.45c11.47-0.38,22.94,0.22,34.4-0.34c1.16-0.06,2.24-0.79,3.3-1.38c0.76-0.39,1.55-0.66,2.37-0.85
	c12.36-1.62,24.74-0.64,37.1-0.29c1.45,0.04,2.69,0.91,3.77,1.91c0,5.33,0.01,10.66,0.01,15.99
	C609.17,156.24,568,156.24,526.83,156.24z"/>
<path class="st57" d="M650.32,73.38c0.01,8.23,0.01,16.47,0.02,24.7c-9.03,2.18-18.18,0.48-27.26,0.78
	c-8.91,0.29-8.88,0.05-10.14,9.05c-0.27,1.95,0.17,4.62-3.11,4.67c0-8.72,0-17.45,0-26.17c1.03-1.81,0.6-3.79,0.63-5.69
	c0.13-8.9,0.66-9.58,9.25-9.79c7.5-0.19,15.01-0.12,22.52,0C645.13,70.97,648.06,71.12,650.32,73.38z"/>
<path class="st75" d="M650.32,73.38c-10.33-0.01-20.67,0.28-30.99-0.16c-6.03-0.26-9.27,1.09-8.22,7.82
	c0.29,1.83,0.38,3.89-1.3,5.37c0-8.24-0.01-16.48-0.01-24.72c0.32-0.39,0.56-0.81,0.59-1.27c0.84-12.7,0.83-12.69,13.98-12.75
	c6-0.03,12-0.02,18,0c2.9,0.01,5.82-0.05,7.96,2.44C650.33,57.87,650.33,65.63,650.32,73.38z"/>
<path class="st44" d="M609.82,112.58c2.63-3.46,1.08-7.44,1.26-11.16c0.12-2.51,0.48-4.32,3.34-4.27c11.98,0.24,24-1.34,35.93,0.94
	c-0.01,6.79-0.02,13.57-0.02,20.36c-2.51,2.39-5.71,2.27-8.82,2.31c-6.49,0.1-12.98,0.19-19.46-0.01c-5.42-0.17-8.77,1.29-8.71,7.52
	c0.02,2.36,0.23,5.57-3.5,6.11C609.82,127.11,609.82,119.84,609.82,112.58z"/>
<path class="st76" d="M609.82,134.38c1.88-1.71,1.33-4,1.33-6.1c0.01-10.71-0.9-9.83,10.34-9.86c9.61-0.02,19.22,0.01,28.82,0.02
	c0,7.27,0.01,14.54,0.01,21.81c-14.08-0.04-28.15-0.08-42.23-0.12c0.12-0.96,0.23-1.91,0.35-2.87
	C608.91,136.3,609.36,135.34,609.82,134.38z"/>
<path class="st55" d="M650.34,50.11c-11.36-0.23-22.72-0.55-34.08-0.63c-3.22-0.02-5.42,1.45-5.15,5.37c0.16,2.3,0.79,4.89-1.3,6.84
	c-0.79-9.16,0.82-18.2,1.31-27.3c0.18-3.36,1.4-4.74,4.77-4.7c9.88,0.09,19.76,0.14,29.64-0.02c3.89-0.06,5.04,1.71,4.93,5.27
	C650.28,39.99,650.36,45.05,650.34,50.11z"/>
<path class="st77" d="M526.83,119.88c-0.58,4.34,1.29,8.93-1.32,13.06c-0.01-11.63-0.02-23.26-0.04-34.88
	c1.4-6.71,0.43-13.49,0.58-20.24c0.07-3.23,0.48-6.08,4.25-6.36c11.1-0.84,22.22-1.37,33.3,0.36c0.93,0.14,1.69,0.92,2.4,1.58
	c0.02,9.2,0.03,18.39,0.05,27.59c-2.77,2.55-6.23,2.31-9.6,2.36c-7.01,0.11-14.02,0.01-21.02,0.08c-4.2,0.04-6.15,1.9-6.2,6.14
	C529.19,113.13,529.56,116.89,526.83,119.88z"/>
<path class="st78" d="M566,73.39c-10.59-0.02-21.19,0.32-31.76-0.18c-6.28-0.3-7.68,2.14-7.58,7.9c0.1,5.62,1.61,11.48-1.19,16.94
	c-0.35-16.98-0.16-33.95,1.36-50.89c1.66-1.55,3.7-2.23,5.91-2.31c9.12-0.33,18.25-0.34,27.38,0c2.21,0.08,4.26,0.73,5.89,2.34
	C566.01,55.92,566.01,64.66,566,73.39z"/>
<path class="st79" d="M526.83,119.88c-0.02-18.91-0.02-18.91,18.88-18.91c6.78,0,13.56,0,20.34,0.01
	c-0.01,6.3-0.03,12.61-0.04,18.91C552.95,119.88,539.89,119.88,526.83,119.88z"/>
<path class="st55" d="M566.01,47.19c-13.06-0.01-26.12-0.02-39.18-0.03c0.42-5.95-2.58-13.88,1.3-17.28
	c3.28-2.87,11.02-0.64,16.79-0.71c0.93-0.01,1.86-0.32,2.8-0.34C566.29,28.38,566.29,28.39,566.01,47.19z"/>
<path class="st26" d="M569.06,140c13.03,2.27,26.07,2.15,39.11,0.08c-0.15,2.56-1.83,3.07-4,3.06c-10.87-0.02-21.75-0.02-32.62,0
	c-3.04,0.01-5.21-0.97-5.42-4.4c0.43,0.01,0.86,0.04,1.29,0.06C567.96,139.21,568.51,139.61,569.06,140z"/>
<path class="st2" d="M403.24,79.14c-1.37-5.57-5.13-6.3-10.21-5.66c-10.11,1.26-20.41-1.11-30.5,1.33c0-8.72,0.01-17.44,0.01-26.17
	c1.65-1.58,3.69-2.25,5.9-2.33c9.13-0.34,18.27-0.33,27.4,0c2.22,0.08,4.25,0.76,5.92,2.32C402.25,58.79,402.75,68.97,403.24,79.14z
	"/>
<path class="st55" d="M401.76,48.62c-13.07,0.01-26.15,0.01-39.22,0.02c0-6.27,0.01-12.54-0.02-18.82
	c-0.01-2.41,0.49-4.62,3.44-4.37c11.02,0.95,22.03,0.38,33.05,0.24c2.92-0.04,2.71,2.21,2.73,4.1
	C401.79,36.07,401.76,42.34,401.76,48.62z"/>
<path class="st52" d="M691.15,86.43c-2.91-4.6-0.82-9.71-1.45-14.54c2.1-1.96,4.73-2.2,7.42-2.26c3.85-0.08,7.78,0.43,11.55-0.12
	c15.7-2.29,28.92,5.63,42.96,10.12c1.71,0.55,3.8,1.3,3.51,3.9c-2.62,1.6-5.53,1.47-8.43,1.46c-15.71-0.02-31.41,0-47.12-0.02
	C696.68,84.96,693.77,84.83,691.15,86.43z"/>
<path class="st15" d="M755.14,83.52c-18.22-8.5-37-14.22-57.48-11.68c-2.61,0.32-5.3,0.05-7.95,0.05c0-3.88,0-7.76,0-11.64
	c0-0.48,0-0.97,0-1.45c11.24,0,22.48-0.04,33.72,0.03c2.52,0.02,5.37-0.8,7.24,1.89c0.29,0.6,0.42,1.22,0.38,1.88
	c-0.32,2.31-0.19,4.5,1.64,6.26c5.75,5.23,13.34,6.45,20.23,9.01c9.66,3.6,19.54,6.64,29.16,10.38c2.43,0.95,5.15,1.41,6.63,3.95
	c0.02,0.49,0.05,0.98,0.07,1.47C777.11,91.79,766.54,86.27,755.14,83.52z"/>
<path class="st80" d="M891.84,169.32c0-0.97,0-1.94,0-2.91c-0.6-0.76-1.24-1.51-1.53-2.44c-3.12-9.71-3.11-9.71-13.55-9.73
	c-5.55-0.01-11.11,0.07-16.66-0.06c-2.68-0.06-5.33-0.29-7.42-2.29c0-5.82,0-11.63,0-17.45c1.85-1.84,4.21-2.32,6.67-2.38
	c8.71-0.2,17.42-0.23,26.13,0.01c4.88,0.13,7.6,2.02,7.18,7.56c-0.27,3.54-0.78,7.24,0.53,10.77c-0.01,6.32-0.02,12.64-0.04,18.97
	C892.71,169.34,892.27,169.32,891.84,169.32z"/>
<path class="st81" d="M893.18,150.4c-1.86-1.73-1.32-4-1.33-6.11c-0.01-10.72,0.9-9.84-10.35-9.86c-9.61-0.02-19.23,0.01-28.84,0.02
	c0-5.33,0-10.67,0-16c10.81-0.01,21.62,0.26,32.41-0.13c5.51-0.2,6.84,1.81,6.92,7.05C892.12,133.7,893.96,141.99,893.18,150.4z"/>
<path class="st27" d="M852.67,151.89c10.16-0.01,20.35,0.42,30.48-0.17c7.06-0.41,9.78,1.93,8.74,8.89
	c-0.29,1.89-0.04,3.86-0.04,5.8c-13.06,0-26.12,0-39.18,0C852.66,161.57,852.66,156.73,852.67,151.89z"/>
<path class="st82" d="M936.99,143.18c12.05-2.15,24.21-1.25,36.33-1.3c3.06-0.01,2.81,2.79,2.83,4.94
	c0.05,5.56,0.02,11.12,0.03,16.68c-13.06,0.01-26.12,0.01-39.18,0.02C937,156.74,936.99,149.96,936.99,143.18z"/>
<path class="st18" d="M1016.91,128.61c-0.01,1.45-0.02,2.9-0.03,4.35c-0.46,0-0.91,0.01-1.37,0.01c0-11.63-0.01-23.27-0.01-34.9
	c0.91-0.44,1.65-0.24,2.23,0.59c1.85,3.26,1.29,6.82,1.33,10.31C1018.84,115.57,1020.97,122.43,1016.91,128.61z"/>
<path class="st56" d="M1016.89,98.06c-0.46,0-0.93,0.01-1.39,0.01c0.01-5.33,0.02-10.66,0.03-15.99c0.45-0.01,0.9-0.02,1.36-0.02
	c2.84,2.87,2.18,6.48,2.11,9.96C1018.93,94.26,1018.8,96.47,1016.89,98.06z"/>
<path class="st18" d="M1016.91,92.25c-0.01-3.4-0.02-6.8-0.03-10.19c0.01-3.87,0.02-7.74,0.03-11.62
	c13.07,0.01,26.14,0.01,39.21,0.02c2.64,7.37,1.95,14.78,0.31,22.22c-8.02,3.98-16.6,1.58-24.91,1.98
	C1026.6,94.89,1021.3,95.89,1016.91,92.25z"/>
<path class="st83" d="M1057.64,60.27c0.01,26.16,0.01,52.33,0.02,78.49c-2.79-3.04-0.9-6.78-1.51-10.15
	c-4.12-6.38-1.96-13.44-2.17-20.24c0.06-5.46-1.55-11.14,2.15-16.11c0-7.26,0-14.53,0-21.79
	C1056.75,67.08,1054.81,63.32,1057.64,60.27z"/>
<path class="st9" d="M1056.12,108.25c0.01,6.78,0.01,13.57,0.02,20.35c-13.08,0-26.15,0-39.23,0c0-6.78,0-13.57,0.01-20.35
	c1.66-1.57,3.69-2.25,5.91-2.33c9.13-0.33,18.26-0.33,27.39,0C1052.43,106.01,1054.47,106.67,1056.12,108.25z"/>
<path class="st54" d="M199.62,146.03c-0.01-0.48-0.01-0.96,0-1.44c2.95-2.68,6.63-2.34,10.2-2.44c10.27-0.3,20.57,0.65,30.81-0.83
	c25.08-1.32,50.12,1.18,75.19,0.87c2.68-0.03,5.31,0.41,7.37,2.41c0,3.88,0,7.76,0,11.63c-2.51,2.39-5.69,2.48-8.84,2.48
	c-35.55,0.08-71.1,0.1-106.65-0.01c-2.66-0.01-5.34-0.11-7.65-1.75C198.13,153.4,198.69,149.72,199.62,146.03z"/>
<path class="st60" d="M199.65,156.24c41.18,0,82.36,0,123.54,0c-0.12,3.92,0.79,7.96-1.42,11.62c-40.26,0-80.51,0.01-120.77,0.01
	c-1.92-1.58-1.23-3.79-1.4-5.79C198.58,160.13,198.56,158.18,199.65,156.24z"/>
<path class="st23" d="M283.98,127.15c0-6.25,0.16-12.5-0.06-18.75c-0.15-4.15,1.01-6.18,5.63-6.05c9.37,0.26,18.75,0.26,28.12,0
	c4.64-0.13,5.75,1.95,5.6,6.08c-0.22,6.24-0.08,12.5-0.09,18.75c-1.65,1.59-3.71,2.22-5.91,2.29c-9.12,0.32-18.25,0.33-27.37,0
	C287.68,129.38,285.65,128.71,283.98,127.15z"/>
<path class="st84" d="M283.98,127.15c13.07,0.01,26.14,0.01,39.2,0.02c0,5.81,0,11.63,0.01,17.44c-27.64,0.83-55.2-2.5-82.84-1.47
	c-0.82-1.04-0.82-2.11-0.11-3.2c0.7-0.41,1.45-0.61,2.26-0.61c0.4,0.05,0.79,0.1,1.19,0.15c11.64,0.24,23.28,0.31,34.92-0.07
	c0.83,0,1.6,0.24,2.3,0.7c1.31-0.45,1.61-1.56,1.78-2.75C285.1,134.21,283.5,130.55,283.98,127.15z"/>
<path class="st21" d="M199.65,156.24c-0.02,1.95-0.03,3.89-0.05,5.84c-0.45-0.02-0.9-0.04-1.35-0.06
	c-0.03-5.32-0.06-10.64-0.09-15.96c0.49-0.01,0.97-0.02,1.46-0.03C199.63,149.44,199.64,152.84,199.65,156.24z"/>
<path class="st18" d="M199.63,93.69c0-5.82,0-11.63,0-17.45c0-0.48,0-0.97,0.01-1.45c1.67-1.55,3.7-2.24,5.92-2.32
	c9.14-0.33,18.27-0.33,27.41,0c2.22,0.08,4.25,0.76,5.92,2.33c0.01,6.29,0.01,12.59,0.02,18.88c1.64,2.21,1.81,4.39-0.16,6.52
	c-13.08,2.54-26.14,3.7-39.1-0.67C199.63,97.58,199.63,95.64,199.63,93.69z"/>
<path class="st74" d="M238.88,74.8c-13.08,0-26.17-0.01-39.25-0.01c0-5.33,0.01-10.66,0.01-15.99c10.96,1.85,22.04,0.69,33.03,0.71
	c5.99,0.01,6.38,2.23,6.24,6.59C238.81,68.99,238.88,71.9,238.88,74.8z"/>
<path class="st68" d="M240.12,93.73c0.04,15.02,0.08,30.04,0.12,45.05c-5.41-2.17-3.05-6.89-3.53-10.68
	c-0.55-7.1-0.24-14.21-0.18-21.31c0.02-2.64,0.43-5.21,2.35-7.26c0-1.95,0.01-3.9,0.01-5.85C239.31,93.69,239.71,93.71,240.12,93.73
	z"/>
<path class="st17" d="M238.88,99.53c0,9.69,0,19.38,0,29.08c-1.67,1.56-3.7,2.23-5.92,2.31c-9.14,0.33-18.27,0.33-27.41,0
	c-2.22-0.08-4.25-0.76-5.92-2.32c0-9.69,0-19.38,0.01-29.08C212.72,99.53,225.8,99.53,238.88,99.53z"/>
<path class="st21" d="M199.63,128.6c13.08,0,26.17,0,39.25,0c0.52,3.38-1.18,7.06,1.36,10.18c0.12,0.4,0.18,0.81,0.2,1.22
	c-0.03,1.05-0.06,2.09-0.09,3.14c-3.91,2.91-8.38,1.25-12.56,1.37c-9.38,0.27-18.78,0.08-28.16,0.08
	C199.62,139.26,199.63,133.93,199.63,128.6z"/>
<path class="st69" d="M730.49,61.68c-0.02,2.43-0.04,4.87-0.06,7.3C728.28,66.53,728.25,64.09,730.49,61.68z"/>
<path class="st14" d="M1056.12,108.25c-13.07,0-26.14,0-39.21,0.01c-0.01-3.4-0.02-6.8-0.03-10.2c0.01-1.94,0.01-3.87,0.02-5.81
	c13.07,0,26.14,0,39.21,0C1056.12,97.59,1056.12,102.92,1056.12,108.25z"/>
<g>
</g>
<g>
</g>
<g>
</g>
<g>
</g>
<g>
</g>
<g>
</g>
</svg>
