<?xml version="1.0" encoding="utf-8"?>
<!-- Generator: Adobe Illustrator 25.3.1, SVG Export Plug-In . SVG Version: 6.00 Build 0)  -->
<svg version="1.1" id="Camada_1" xmlns="http://www.w3.org/2000/svg" xmlns:xlink="http://www.w3.org/1999/xlink" x="0px" y="0px"
	 viewBox="0 0 1920 1080" style="enable-background:new 0 0 1920 1080;" xml:space="preserve">
<style type="text/css">
	.st0{fill:#B4E064;}
	.st1{fill:#B9E466;}
	.st2{fill:#B0DD63;}
	.st3{fill:#A8D65E;}
	.st4{fill:#B3E064;}
	.st5{fill:#B4E065;}
	.st6{fill:#A9D760;}
	.st7{fill:#B0DC63;}
	.st8{fill:#B7E365;}
	.st9{fill:#6FA642;}
	.st10{fill:#75AB44;}
	.st11{fill:#A7D65E;}
	.st12{fill:#A2D25B;}
	.st13{fill:#A0D05A;}
	.st14{fill:#95C655;}
	.st15{fill:#8DC051;}
	.st16{fill:#7CB148;}
	.st17{fill:#88BC4F;}
	.st18{fill:#84B74C;}
	.st19{fill:#9BCB58;}
	.st20{fill:#AFDC62;}
	.st21{fill:#A8D75E;}
	.st22{fill:#AEDB62;}
	.st23{fill:#ACDA60;}
	.st24{fill:#A2D15B;}
	.st25{fill:#D6D1C9;}
	.st26{fill:#6BA23F;}
	.st27{fill:#669E3D;}
	.st28{fill:#5F9839;}
	.st29{fill:#639B3B;}
	.st30{fill:#7AAF47;}
	.st31{fill:#5B9437;}
	.st32{fill:#88BB4E;}
	.st33{fill:#82B64B;}
	.st34{fill:#9ECD5A;}
	.st35{fill:#C63855;}
	.st36{fill:#AC373E;}
</style>
<g>
	<path class="st0" d="M825.69,283.47c7.34-2.2,14.72-4.3,22.02-6.64c3.4-1.09,4.88-0.34,5.23,3.39c0.69,7.27-0.03,14.64,1.6,21.84
		c0.66,0.83,1.19,1.74,1.37,2.8c0.89,9.72-0.37,11.02-9.76,11.32c-7.02,0.22-13.91-1.24-20.89-1.19c-0.97-0.16-1.94-0.19-2.92-0.18
		c-7.26,0.54-7.6,1.03-6.78,8.39c0.73,6.54,1.76,13.11-0.45,19.59c-0.45,0.53-1.02,0.71-1.69,0.53c-1.55-1.47-1.53-3.42-1.63-5.33
		c0.12-2.72,0.36-5.46-0.62-8.1c-0.16-0.59-0.26-1.18-0.32-1.79c-0.42-3.85-0.18-7.73-0.37-11.59c-0.25-5.13,1.72-7.39,6.84-6.76
		c8.62,1.07,17.31,0.01,25.91,1.46c2.38,0.4,6.6,1.68,6.91-1.94c0.38-4.45-4.11-3.09-6.74-3.2c-12.51-0.54-25.04-0.25-37.56-0.22
		c-6.11,0.02-6.53,0.58-6.13,6.83c0.35,5.51,1.41,10.97,0.97,16.53c-0.1,6.57,1.46,13.03,1.26,19.59c-0.08,2.53,0.22,5.13-1.39,7.38
		c-0.59,0.52-1.21,0.55-1.85,0.1c-2.77-5.13-1.69-10.87-2.14-16.27c-0.77-9.16-1.09-18.39-1.55-27.6
		c-0.47-5.32,1.92-10.49,0.81-15.85c-0.39-2.96,1.19-4.13,3.87-4.89c7.19-2.04,14.31-4.34,21.45-6.54
		C822.66,284.57,824.17,284.02,825.69,283.47z"/>
	<path class="st1" d="M1296.38,284.24c10.78-7.3,22.41-13.19,33.57-19.86c7.39-4.42,14.8-8.8,22.2-13.2
		c0.23-0.55,0.57-0.66,1.04-0.27c0.37,0.01,0.74,0,1.1-0.04c0.49-0.33,0.83-0.23,0.99,0.36c3.08,16.91,6.17,33.83,9.25,50.74
		c0.22,0.6,0.07,1.08-0.47,1.43c-2.79-0.52-3-2.91-3.56-4.99c-0.72-2.66-1-5.42-1.79-8.07c-0.86-2.87-3-3.61-5.62-3.03
		c-2.67,0.6-1.75,2.8-1.64,4.53c0.24,3.76,2.21,7.53-0.18,11.25c-0.91,0.56-1.58,0.12-2.2-0.52c-1.31-1.87-1.9-4.05-1.78-6.24
		c0.3-5.4-2.05-8.18-7.49-8.3c-1.48-1.01-3.13-0.92-4.8-0.8c-11.25,0.76-22.4-1.2-33.62-1.16
		C1299.54,286.08,1297.66,285.89,1296.38,284.24z"/>
	<path class="st0" d="M1296.38,284.24c13.15-0.42,26.21,1.92,39.37,1.24c2.04-0.11,4.09-0.11,5.23,2.09
		c-0.19,1.18-1.03,1.76-2.01,2.21c-1.95,0.55-3.87,1.17-5.5,2.45c-6.42,4.35-13.8,6.72-20.69,10.1c-2.45,1.27-5.08,2.13-7.53,3.39
		c-1.31,0.68-2.61,1.4-3.98,1.94c-3.75,1.46-4.8,4.07-4.06,7.92c2.06,10.69,3.95,21.41,5.87,32.12c0.48,2.66,1.44,5.47-0.98,7.81
		c-2.61-0.51-2.58-2.82-2.96-4.65c-1.49-7.09-3.14-14.15-4.18-21.33c-0.47-4.37-1.65-8.62-2.45-12.94
		c-0.62-3.38-1.97-6.72,0.15-9.94c-2.05-1.06-3.72-0.67-5.35-0.73c-3.17-0.11-4.2,1.44-3.69,4.49c0.68,3.98,1.39,7.95,1.94,11.94
		c0.31,2.3,1.02,4.78-1.35,6.58c-2.64-0.9-2.59-3.39-2.96-5.43c-1.13-6.3-2.54-12.56-3.38-18.91c0.01-2.67,1.31-5.33,0.04-8.01
		c0.79-5,6.57-4.37,8.78-7.78c0.9-0.03,1.72-0.23,2.21-1.09C1291.38,286.56,1293.88,285.4,1296.38,284.24z"/>
	<path class="st2" d="M799.08,328.72c-0.38-7.14-0.75-14.29-1.15-21.43c-0.15-2.73,0.43-3.38,3.7-3.28
		c14.79,0.46,29.62,0.54,44.41,0.14c4.94-0.13,6.36,1.77,6.91,6c0.31,2.38-0.65,3.09-2.64,2.99c-10.44-0.51-20.91-0.76-31.3-1.75
		c-6.02-0.58-7.01-0.19-6.73,5.7c0.18,3.86,0.04,7.74,0.05,11.61C807.92,331.35,803.5,331.35,799.08,328.72z"/>
	<path class="st3" d="M799.08,328.72c4.42-0.01,8.84-0.01,13.26-0.02c0,0.37,0,0.74,0,1.11c1.44,2.44-0.36,5.33,1.09,7.76
		c0.01,1.85,0.02,3.69,0.02,5.54c2.8,6.13,3.75,12.4,1.55,18.94c-4.11,2.58-8.45,1.85-12.81,0.91c-1.52-0.54-1.27-2.2-2.02-3.23
		c-0.03-1.06-0.06-2.12-0.08-3.18C801.04,347.22,798.73,338.02,799.08,328.72z"/>
	<path class="st2" d="M814.63,343.1c1.97,8.04,0.38,16.39,2.1,24.46c0.04,4.78,0.09,9.57,0.13,14.35c-0.13,1.3-0.65,1.66-1.73,0.74
		c-1.4-2.26-1.08-4.8-1.14-7.27c0.15-3.03,0.33-6.06-0.57-9.03c-0.26-1.62,0-3.12,1.12-4.39c0.71-6.35-1.08-12.54-1.09-18.85
		C813.84,343.1,814.24,343.1,814.63,343.1z"/>
	<path class="st2" d="M813.43,337.56c-2.06-2.35-0.69-5.18-1.09-7.76C814.42,332.15,813.04,334.98,813.43,337.56z"/>
	<path class="st4" d="M955.47,302.18c0.37,0.02,0.73-0.04,1.07-0.19c9.87-6.95,20.8-11.32,32.66-13.48c2.87,1,5.83,0.57,8.76,0.58
		c59.53,0.09,119.06-0.14,178.6,0.14c1.51,0.01,2.92-0.31,4.35-0.58c9.18,0.7,13.58,4.53,15.28,13.28c0.06,0.99,0.06,1.98,0.03,2.98
		c-0.09,1.75-0.28,3.47-2.04,4.45c-2.17,0.76-4.39,0.23-6.59,0.22c-63.79-0.42-127.57-1.82-191.37-1.12
		c-11.43,0.13-22.83,1.12-34.27,1.05c-3.69-0.03-7.39-0.04-10.85-1.62c-0.8-0.52-1.74-0.95-1.52-2.18
		C950.72,303.15,953.54,303.42,955.47,302.18z"/>
	<path class="st5" d="M1364.21,303.17c0.21,1.17-0.08,2.49,1.08,3.35c0.99,0.64,1.59,1.61,1.8,2.69c1.75,8.84,4.11,17.6,4.33,26.67
		c0.08,3.47-0.14,7.16-4.37,8.6c-3.08-3.64,1.11-7.3-0.02-10.94c-1.24-6.29-2.49-12.59-3.76-18.88c-0.54-2.64-0.95-5.06-4.76-4.4
		c-3.61,0.63-2.98,2.98-2.78,5.38c0.29,3.48,1.37,6.85,1.51,10.34c0.17,4-1.38,5.12-4.74,3.73c-0.4-7.76-2.12-15.36-3-23.06
		c0.08-1.29,0.39-2.48,1.42-3.37c0.68-4.45-1.03-8.68-1.22-13.05c-0.08-1.75-2.19-4.59,1.32-4.53c2.95,0.05,7.3-2.72,8.81,2.47
		c0.96,3.31,1.59,6.74,2.17,10.14C1362.32,300.18,1362.73,301.89,1364.21,303.17z"/>
	<path class="st6" d="M1302.33,355.29c0.69,2.61,1.37,5.23,2.06,7.84c0.86,2.66,0.97,5.33,0.19,8.02c-0.89,1.25-1.79,2.51-3.65,1.91
		c-1.49-3-0.13-6.1-0.25-9.16c-0.14-3.83-1.24-6.35-5.58-6.49c-2.17-0.07-4.42-0.36-5.76-2.53c-2.6-7.44-2.51-15.38-4.25-22.98
		c-0.51-2.25,0.14-4.57,2.71-5.32c3.25-0.95,6.54-1.31,8.82,2.12C1298.19,337.63,1299.18,346.69,1302.33,355.29z"/>
	<path class="st7" d="M1296.64,328.7c-2.16-1.37-4.59-1.09-6.97-1.11c-3.57-0.02-4.48,2.11-3.93,5.1
		c1.37,7.55,2.87,15.08,4.31,22.62c0.77,1.49,1.37,2.92-1.13,3.29c-2.15-9.8-3.42-19.74-4.54-29.7c0.47-6.7-1.47-13.13-2.67-19.57
		c-0.84-4.49,0.57-5.27,4.31-5.03c1.65,0.11,3.32-0.04,4.98,0.03c1.6,0.07,3.67-0.64,4.59,1.06c1.09,2.02-1.44,2.07-2.31,3.03
		c-1.11,1.23-0.42,2.36-0.15,3.6C1294.34,317.56,1295.48,323.13,1296.64,328.7z"/>
	<path class="st1" d="M1338.85,288.82c-1.61,1.37-3.37,2.36-5.6,2.12C1334.75,289.26,1336.67,288.69,1338.85,288.82z"/>
	<path class="st8" d="M1093.84,271.96c19.81,0.22,39.37,2.65,58.69,6.98c0.92,1.04,2.16,0.95,3.38,0.92
		c8.84,3.42,18.27,5.3,26.61,10.03c-3.02,0.96-6.1,1.15-9.26,1.14c-56.67-0.04-113.33-0.04-170-0.01c-5.34,0-10.67,0.13-15.91-1.16
		c10.71-4.66,22.13-6.96,33.29-10.12c1.22,0.12,2.44,0.22,3.39-0.81c1.28-1.86,3.33-2.27,5.3-2.65c16.33-3.13,32.77-5.41,49.41-5.88
		c2.53-0.07,5.22-0.39,7.38,1.55C1088.71,271.96,1091.28,271.96,1093.84,271.96z"/>
	<path class="st9" d="M826.79,585.79c-0.05-0.62-0.11-1.25-0.16-1.87c-0.33-2.1-3.83-3.39-2.12-5.76c1.88-2.62,5.15-2.49,8.14-2.46
		c21.77,0.25,43.54,0.85,65.3,0.56c10.31-0.14,20.6-1.57,30.92-0.29c2.98,0.89,3.81,3.63,5.08,5.97c1.45,2.68,2.05,5.81,4.24,8.11
		c6.16,13.51,8.16,27.91,8.8,42.53c0.33,7.71,0.06,15.48-1.3,23.13c-0.42,2.35-0.74,4.75-2.5,6.59c-0.62,0.33-1.17,0.23-1.65-0.29
		c-1.88-3.54,0.13-7.1-0.05-10.65c0.39-4.86,1.3-9.68,1.11-14.59c-0.2-5.85-1.18-11.63-1.79-17.43c-0.62-4.74-1.44-9.45-2.6-14.1
		c-0.73-2.94-2.31-4.16-5.5-4.08c-29.61,0.74-59.24,0.76-88.86,0.75c-8.92,0-9.43,0.58-8.69,9.39c0.23,2.75,1.07,5.43,0.97,8.21
		c0.91,5.65,2.8,11.07,3.91,16.68c0.14,0.87,0.13,1.73-0.06,2.59c-0.16,0.56-0.44,1.06-0.85,1.47c-2.75,0.11-2.35-1.79-2.23-3.51
		c-0.19-1.53-0.05-3.15-1.18-4.43c-4.38-5.14-3.99-11.68-4.94-17.74c-0.9-5.81-1.77-11.7-1.32-17.62
		C829.77,592.89,826.42,589.8,826.79,585.79z"/>
	<path class="st10" d="M929.81,576.97c-4.5,1.66-9.04-0.39-13.5,0.05c-13.36,1.34-26.77,1.39-40.13,0.93
		c-11.9-0.41-23.82,0.64-35.73-0.7c-3.07-0.34-6.37,0.17-9.64-0.05c-5.01-0.34-5.83,1.39-4.17,6.71c-2.55-1.72-3.28-4.87-5.42-6.91
		c-1.52-2.82-2.86-5.75-5.35-7.91c-0.44-1.42-0.89-2.83-1.33-4.24c-1.87-2.97-3.41-6.16-5.72-8.85l0.07,0.09
		c-3.14-6.23-2.53-7.16,4.38-7.86c6.58-0.66,11.74,0.69,14.63,7.5c1.63,3.84,4.52,7.07,6.83,10.58c1.27,1.94,2.58,3.25,4.63,0.86
		c3.29-3.75,7.75-5.2,12.23-7.05c20.16-8.31,41.3-6.04,62.21-6.42c1.93-0.04,3.74,0.58,4.96,2.06c4.56,5.57,8.72,11.42,11.5,18.12
		C930.67,574.91,930.71,576.05,929.81,576.97z"/>
	<path class="st11" d="M887.78,364.14c-0.02-2.6-0.03-5.19-0.05-7.79c0.8-2.4,1.88-4.65,3.49-6.62c3.74-4.25,7.2-8.81,12.42-11.46
		c6.89-2.05,13.93-0.69,20.86-0.68c16.91,0.04,33.83,0.32,50.74,0.15c3.14-0.03,6.25,0.35,9.36,0.66c1.48,0.15,3.06,0.57,3.29,2.39
		c0.21,1.69-0.96,2.72-2.32,3.42c-4.41,2.28-9.15,3.93-13.12,7c-3.77,3.78-8.77,5.77-12.98,8.93c-0.85,0.53-1.75,0.98-2.64,1.43
		c-0.87,0.47-1.71,0.98-2.47,1.61c-2.84,1.68-4.76,5.06-8.69,4.71c-0.48-0.33-0.69-0.79-0.68-1.37c0.35-2.3,2.64-3.4,3.92-5.75
		c-6.1-0.96-11.82-0.96-17.37-0.31c-8.11,0.95-16.21,0.83-24.32,0.87c-2.8,0.01-5.54,0.13-7.97,1.75c-1.69,0.72-3.84-0.75-5.3,1.12
		c-1.21,0.86-2.38,1.87-4.04,1.26C889.21,365.04,888.49,364.59,887.78,364.14z"/>
	<path class="st12" d="M897.61,363.03c1.38-1.54,2.06-3.58,5-3.38c14.83,1.02,29.6-1.54,44.44-1.01c1.76,0.06,4.22-0.81,5.01,1.17
		c0.9,2.27-1.82,2.66-3.13,3.74c-1.41,1.17-2.89,2.28-3.55,4.1c0.44,1.09-0.12,1.93-0.7,2.76c-0.79,0.98-1.67,1.88-2.52,2.81
		c-3.75,3.81-7.5,7.61-11.32,11.34c-2.01,1.95-4.2,3.64-7.08,4.02c-3.6,0.47-6.31-0.36-6.25-5.23c-5.53,8.84-9.72,17.86-13.59,27.06
		c-0.83,1.98-0.88,4.98-4.29,4.75c-1.58-2.41-0.25-4.63,0.53-6.84c2.09-5.93,4.96-11.52,7.82-17.09c1.4-2.73,1.13-3.87-2.35-3.99
		c-5.15-0.17-10.29,0.23-15.44-0.21c-3.89-0.33-6.42,1.37-8.04,5.24c-3.07,7.32-5.94,14.7-8.4,22.25c-0.61,1.82-1.04,3.73-2.44,5.17
		c-0.55,0.26-1.07,0.2-1.55-0.18c2.96-14.4,8.98-27.61,15.82-40.5c0.69-1.3,1.41-2.58,2.12-3.87c1.42-2.19,2.84-4.38,4.27-6.57
		c0-2.22,1.58-3.51,2.91-4.95C895.7,363.03,896.53,362.46,897.61,363.03z"/>
	<path class="st13" d="M812.02,390.68c-8.94,7.21-18.52,12.82-30.58,12.26c-4.62-0.22-8.88-1.19-11.29-5.64
		c-2.47-4.57-0.56-8.59,1.99-12.4c4.4-6.57,11.21-9.88,18.03-13.15c3.5,0.34,6.39-2.15,9.82-2.1c1.79-2.34-0.23-5.31,1.28-7.7
		c4.43,0,8.86,0,13.28,0c0,1.48,0.01,2.95,0.01,4.43c1.46,2.82-0.38,6.04,1.08,8.87c0.05,2.65,0.09,5.3,0.14,7.95
		C816.39,386.63,813.91,388.51,812.02,390.68z"/>
	<path class="st14" d="M871.07,419.58c0.38-1.84,0.77-3.69,1.15-5.53c2.14-1.99,4.6-2.56,7.56-2.43c4.38,0.19,8.79,0.14,13.19,0.05
		c5.8-0.11,7.59,2.2,6.13,7.91c-0.72,2.83-2.18,5.48-2.03,8.51c0.05,1.5-0.16,2.97-0.48,4.43c-0.58,1.67-0.81,3.42-1.25,5.13
		c-0.78,2.05-0.4,4.27-0.97,6.35c-4.12,18.38-2.6,37.04-2.85,55.61c-0.03,2.57,0.27,5.17-0.62,7.67c-0.32,0.63-0.82,1.05-1.5,1.27
		c-0.68-0.19-1.18-0.6-1.49-1.23c-0.91-2.19-0.56-4.51-0.67-6.79c0.09-2.88,0.03-5.74-0.91-8.52c-0.73-6.65-0.57-13.31-0.2-19.97
		c1.26-7.45,0.74-15.09,2.21-22.52c0.73-3.68-0.93-4.98-4.47-4.93c-19.54,0.27-15.74-2.52-18.45,15.24
		c-0.67,4.38-0.02,8.85-0.83,13.23c-1.18,7.99-0.1,16.05-0.78,24.05c-0.15,2.06,0.21,4.26-1.7,5.8c-0.34-0.81-0.69-1.62-1.03-2.43
		c-0.18-17.41,0.06-34.8,2.28-52.11c1.33-2.04-0.25-4.53,1.02-6.58c0.04-0.37,0.09-0.74,0.13-1.12c0.3-0.01,0.6-0.03,0.9-0.06
		c0.89-5.11,1.84-10.21,3.17-15.22C869.1,423.38,868.85,420.91,871.07,419.58z"/>
	<path class="st15" d="M770.03,447.55c13.78,7.93,16.51,15.06,11.56,30.84c-0.65,2.06-0.07,3.47,0.9,5.1
		c1.58,2.66,3.79,4.96,4.6,8.06c-0.48,0.41-1.02,0.53-1.64,0.39c-0.82-0.34-1.49-0.88-2.02-1.59c-2.8-4.22-6.65-8.04-4.84-13.93
		c0.68-2.21-0.88-3-2.77-3.03c-9.18-0.17-18.37-0.12-27.55-0.03c-2.22,0.02-2.89,1.13-2.21,3.25c0.44,1.37,1.01,2.84-0.36,4.09
		c-8.12-9.52-5.64-24,5.32-31.05c1.23-0.79,2.55-1.47,3.82-2.19c1.83-0.38,3.84,0.15,5.49-1.1c1.43-0.02,2.87-0.03,4.3-0.05
		C766.23,447.56,768.56,445.73,770.03,447.55z"/>
	<path class="st16" d="M823.34,547.17c3.03,7.08,7.93,13.04,11.8,19.62c1.67,2.84,3.22,0.98,4.81-0.07c0.56,0.42,0.6,0.88,0.11,1.39
		c-1.62,3.31-3.58,3.35-5.6,0.43c-2.7-3.91-5.42-7.83-7.85-11.91c-4.66-7.82-5.74-8.4-14.63-6.68c-1.42,0.27-2.84,0.53-4.4,0.81
		c0.45,1.85,0.87,3.58,1.29,5.32c-7.81-10.53-14.56-21.75-21.03-33.13c-2.39-5.43-1.53-6.46,4.16-7.4
		c7.53-1.23,12.49,1.32,15.9,8.18c3.09,6.22,7.32,11.8,11.4,17.44c0.34,0.46,0.59,0.97,0.76,1.51
		C820.3,544.8,821.74,546.04,823.34,547.17z"/>
	<path class="st17" d="M745.7,480.69c-0.01-0.37,0.06-0.76-0.05-1.1c-2.75-7.92-2.75-7.92,6.12-7.92c8.47,0,16.95,0.02,25.42-0.01
		c2.46-0.01,5.37,0.63,3.68,3.48c-3.11,5.28-0.08,8.61,2.45,12.41c0.59,0.88,0.87,1.97,1.3,2.96c-4.44,3.2-9.97,0.59-14.6,2.76
		c-0.56,0.12-1.12,0.11-1.68,0c-2.37-2.47-5.83-2.11-8.69-3.3c-0.17-0.2-0.34-0.41-0.51-0.61c-1.25-1.19-2.87-0.93-4.38-1.12
		c-1.49-1.06-3.52-1.32-4.54-3.07c-1.64-1.4-3.18-2.9-4.53-4.59L745.7,480.69z"/>
	<path class="st18" d="M768.98,493.03c4.6-4.69,10.44-1.61,15.65-2.51c0.37,0.37,0.74,0.74,1.11,1.11
		c4.44,4.04,6.41,9.83,10.15,14.36c0.32,0,0.63-0.02,0.95-0.07c2.98,1.21,4.01,4.15,5.59,6.52c5.38,8.04,10.19,16.45,15.57,24.5
		c1.09,1.63,2.4,3.35,1.24,5.54c-5.19-4.25-7.59-10.55-11.47-15.75c-0.76-1.02-1.24-2.24-1.93-3.31c-3.87-6-9.44-8.03-16.26-6.25
		c-3.99,1.04-1.45,3.77-1.74,5.77c-4.34-6.42-8.69-12.85-13.03-19.27c-0.51-1.56-0.88-3.19-2.52-4.05
		C769.05,498.5,768.02,496.27,768.98,493.03z"/>
	<path class="st15" d="M862.11,502.91c0.07-1.92,0.14-3.85,0.2-5.77c0.73-0.28,1.3-0.09,1.72,0.58c1.57,8.95,1.68,18.01,1.88,27.06
		c-0.27,1.02-0.67,1.96-1.61,2.57c-1.58-4.76-1.35-9.78-2.18-14.66C862.12,509.43,862.11,506.17,862.11,502.91z"/>
	<path class="st19" d="M871.07,419.58c-1.89,7.01-3.78,14.03-5.67,21.04c0.05-2.2,0.1-4.39,0.16-6.59c2.04-4.65,1.68-10,4.2-14.52
		C870.2,419.54,870.63,419.56,871.07,419.58z"/>
	<path class="st17" d="M795.89,505.99c-4.47-4.02-7.08-9.35-10.15-14.36c0.45-0.03,0.9-0.06,1.35-0.09c2.15,2.98,4.3,5.97,6.45,8.95
		C794.32,502.33,795.1,504.16,795.89,505.99z"/>
	<path class="st16" d="M808.8,556c3.15,2.15,4.95,5.17,5.72,8.85c-0.35-0.05-0.7-0.08-1.05-0.07
		C812.29,561.65,809.5,559.38,808.8,556z"/>
	<path class="st0" d="M801.26,361.95c-0.5,2.56,1.17,5.47-1.28,7.7c0.06-3.31,0.12-6.62,0.19-9.93
		C801.01,360.23,801.22,361.05,801.26,361.95z"/>
	<path class="st3" d="M815.63,375.24c-2.13-2.74-0.63-5.92-1.08-8.87C816.71,369.11,815.21,372.3,815.63,375.24z"/>
	<path class="st20" d="M1218.23,329.74c-0.09,0.39-0.17,0.78-0.26,1.18c-3.15,0.57-4.64-1.84-6.28-3.71
		c-1.96-2.24-4.24-3.41-7.22-3.4c-22.96,0.13-45.92-0.47-67.75,0.41c5.49,0.85,12.51,0.19,17.17,6.49
		c-0.62,0.88-1.53,1.15-2.54,1.23c-13.1-2.91-26.05-6.45-39.51-7.64c-7.37-0.65-14.72-0.14-22.06-0.63c-0.96-0.02-1.91-0.02-2.87,0
		c-21.31,0.12-42.19,3.4-62.79,8.66c-1.24,0.09-2.39,0.51-3.54,0.93c-3.09,0.94-6.12,2.14-9.31,2.7c-1.84,0.32-3.94,1.24-5.23-1.16
		c0.76-2.25,2.77-2.8,4.69-3.43c8.05-2.66,16.22-4.89,23.81-6.41c-34.73-0.38-70.21,0.46-105.68-0.36c-1.86-0.04-3.65,0.54-5.49,0.4
		c-2.35-0.6-1.85-2.32-0.74-3.25c7.91-6.56,16.33-12.34,26.16-15.73c0.27-0.09,0.64,0.26,0.92,0.52c15.46,2.58,30.93,0.03,46.4,0.02
		c39.3-0.03,78.61-0.6,117.89,0.2c24.78,0.51,49.56,0.75,74.34,0.94c2.17,0.02,4.34,0.65,6.5,1c0.81-0.68,1.75-0.7,2.57-0.18
		c7.97,5.14,15.36,10.91,20.47,19.11C1218.3,328.26,1218.4,328.98,1218.23,329.74z"/>
	<path class="st21" d="M1366.6,344.45c-2.47,5.45-7.65,7.86-12.23,10.96c-0.67,0.53-1.32,1.11-2.28,0.95
		c-3.39,0.71-6.75,1.83-10.17,2.05c-8.79,0.56-12.96-5.8-8.95-13.57c3.6-6.97,9.4-11.52,16.84-13.96c6.3,0.61,12.87-0.96,18.86,2.25
		C1369.53,337.2,1367.29,340.68,1366.6,344.45z"/>
	<path class="st22" d="M1368.67,333.14c-6.42,0.37-12.72-0.23-18.86-2.25c0.82-1.07,2.04-1.19,3.24-1.37
		c3.13,0.41,3.26-1.13,2.73-3.68c-0.9-4.29-1.39-8.65-2.18-12.97c-0.36-1.96-0.58-4.5,1.96-3.88c2.88,0.71,7.32-3.75,8.64,2.1
		C1365.86,318.41,1367.2,325.79,1368.67,333.14z"/>
	<path class="st23" d="M1153.52,331.27c-3.85-4.4-9.82-3.44-14.52-5.72c-1.58-0.77-3.44-0.97-6.12-1.69
		c11.23-2.61,21.59-1.71,31.9-1.79c12.53-0.09,25.06,0.15,37.59-0.11c4.91-0.1,9.02,0.32,11.56,5.29c0.77,1.51,2.66,2.46,4.04,3.66
		c0.63,2.32,3.4,2.45,4.45,4.34c7.07,10.34,12,21.75,16.8,33.24c0.66,0.89,1.58,1.59,2.01,2.66c1.41,4.79,4.06,9.33,2.98,14.63
		c-0.27,0.52-0.7,0.84-1.28,0.95c-3.07-0.97-2.28-3.98-3.21-6.09c-2-7.08-4.76-13.89-7.59-20.66c-2.26-5.83-5.39-11.21-8.54-16.6
		c-1.91-3.27-4.54-4.76-8.2-4.08c-5.27,0.99-10.57,1.01-15.88,0.91c-2.39-0.05-4.31,0.63-5.63,2.69c-3.68,1.01-5.17-2.13-7.08-4.04
		c-3.43-3.45-6.56-5.1-11.55-2.37c-6.1,3.33-12.12,0.81-17.83-2.04c-1.14-0.6-2.37-1.04-3.44-1.8
		C1153.56,332.26,1153.41,331.81,1153.52,331.27z"/>
	<path class="st24" d="M1288.91,358.6c1.3-0.78,1.07-2.08,1.13-3.29c13.41,1.9,14.16,3.11,11.17,17.98c1.2,3.92-2.31,5.25-4.2,7.37
		c-1.79,2.02-4.15,3.43-6.62,4.59c-1.86,0.62-3.57,1.59-5.39,2.34c-1.7,0.68-3.49,1.04-5.26,1.45c-5.12,1.18-9.99,0.78-13.5-3.49
		c-3.53-4.29-2.14-8.89,0.24-13.29c0.81-1.62,2.04-2.82,3.69-3.58C1275.81,364.17,1281.65,360.06,1288.91,358.6z"/>
	<path class="st15" d="M745.69,480.6c2.09,0.96,3.63,2.46,4.53,4.59C747.9,484.45,746.34,482.97,745.69,480.6z"/>
	<path class="st25" d="M770.03,447.55c-1.78-0.49-3.82,0.09-5.39-1.27C766.53,446.32,768.67,445.27,770.03,447.55z"/>
	<path class="st26" d="M834.58,620.22c-0.27-5.3-1.54-10.5-1.27-15.88c0.16-3.11,1.21-4.23,4.27-4.14
		c4.96,0.16,9.94,0.05,14.91,0.04c24.78-0.04,49.56-0.12,74.34-0.09c3.75,0,8.45-3.01,10.99-0.08c3.44,3.97,2.99,10,4.13,15.16
		c0.27,1.23,0.05,2.57,0.06,3.86c-1.85,1.98-4.33,1.86-6.71,1.89c-30.77,0.39-61.53,1.79-92.31,1.14
		C840.07,622.05,837.02,622.43,834.58,620.22z"/>
	<path class="st27" d="M834.58,620.22c35.82,0.74,71.62-1.12,107.43-1.13c1.48,5.82,2.28,11.73,2.16,17.75
		c-2.08,1.97-4.72,1.9-7.29,1.91c-30.21,0.05-60.43,0.05-90.64,0c-2.58,0-5.2,0.03-7.29-1.91
		C837.49,631.29,836.04,625.76,834.58,620.22z"/>
	<path class="st28" d="M857.58,674.91c-3.82-3.44-6.82-7.47-8.81-12.22c-0.81-3.29-4.16-5.66-3.4-9.52
		c1.97-1.78,4.43-1.68,6.81-1.63c27.67,0.57,55.32-1.05,82.99-0.77c2.71,0.03,5.6-0.57,7.91,1.57c-0.4,2.97-0.8,5.94-1.19,8.9
		c-0.62,4.46,0.3,9.63-5.41,11.77c-20.84-0.3-41.68,0.49-62.51-0.04C868.4,672.84,862.9,673.11,857.58,674.91z"/>
	<path class="st29" d="M943.08,652.35c-31.23-0.58-62.45,1.73-93.69,0.6c-1.26-0.05-2.54,0.32-3.8,0.5
		c-3.91-1.62-3.04-5.95-4.88-8.76c-1.05-1.61-1.11-3.72-1.65-5.6c-0.03-0.75-0.07-1.5-0.1-2.26c35.07,0,70.15,0,105.22,0.01
		C944.89,642.08,943.16,647.16,943.08,652.35z"/>
	<path class="st30" d="M840.06,568.11c-0.04-0.46-0.08-0.93-0.11-1.39c1.9-3.25,5-4.64,8.46-5.61c6.15-1.73,12.27-3.57,19.59-5.72
		c-5.14-1.96-9.3-1.4-13.34-1.51c-3.76-0.09-4.11-1.56-2.24-4.34c2.64-3.94,4.85-8.27,9.48-10.39c3.2-1.28,4.42-3.3,3.36-6.89
		c-0.56-1.91-1.16-4.36,1.02-6.07c7.83-1.55,15.68-1.22,23.53-0.28c2.2,0.79,2.4,2.88,3.08,4.7c0.66,1.76,0.48,4.06,2.83,4.85
		c2.3,0.73,4.47,1.76,6.58,2.92c7.95,4.4,13.65,11.2,19.26,18.1c2.13,3.25,4.21,6.54,6.53,9.67c0.33,0.43,0.6,0.89,0.86,1.36
		c2.66,5.19,5.31,10.39,7.23,15.9c0.76,2.17,2.11,4.36,0.57,6.75c-3.61-3.72-4.14-9.06-6.94-13.2c-2.19-7.62-7.26-13.56-11.65-19.88
		c-1.06-1.52-2.54-2.07-4.73-2.02c-12.34,0.27-24.7-0.07-37.04,0.32c-8.14,0.25-15.52,4.26-23.39,5.96
		C848.01,562.42,843.67,564.51,840.06,568.11z"/>
	<path class="st27" d="M839.05,639.08c2.71,4.55,3.1,10.15,6.53,14.36c0.24,3.36,3.37,5.73,3.19,9.24
		c-4.93-6.71-7.96-14.26-9.97-22.28C838.88,639.97,838.97,639.53,839.05,639.08z"/>
	<path class="st29" d="M942.17,662.61c-0.1,4.67-2.93,8.52-3.88,12.93c-0.19,0.93-0.75,1.39-1.7,1.4c-0.45-0.35-0.75-0.79-0.92-1.33
		c-0.21-1.59,0.4-2.7,1.89-3.33c1.44-3.68,2.89-7.36,4.33-11.04C941.98,661.71,942.08,662.16,942.17,662.61z"/>
	<path class="st31" d="M937.56,672.29c-0.38,1.11-0.76,2.22-1.13,3.32c-0.46,2.55-1.35,4.98-2.03,7.47
		c-5.89,9.54-13.85,15.77-25.59,15.9c-3,0.02-5.99,0.05-8.99,0.07c-3.22,0.28-6.45,0.62-8.72-2.45c-1.15-0.64-2.3-1.29-3.45-1.93
		c-0.28-0.23-0.54-0.48-0.83-0.7c-5.52-4.12-5.52-4.12-0.11-8.18c1.97-2.08,3.93-4.16,6.54-5.45c0.43-0.27,0.92-0.44,1.24-0.8
		c-1.39-0.37-2.44,0.63-3.68,0.74c-3.66-0.01-7.29,0.45-10.73,1.51c-5.7,1.76-11.01,1.36-16.16-1.6c-2.92-0.8-4.65-3.03-6.34-5.29
		c1.55-3.08,4.31-3.73,7.42-3.73c22.6,0,45.19,0.01,67.79-0.02C934.5,671.16,936.07,671.48,937.56,672.29z"/>
	<path class="st28" d="M863.92,680.21c9.64,4.73,18.81-0.68,28.2-1.3c0.11,0.21,0.23,0.42,0.34,0.63c-0.07,0.49-0.29,0.89-0.7,1.19
		c-1.31,0.58-2.6,1.34-4.06,0.41c-3.18,0.63-6.36,1.25-9.53,1.9C873.02,684.1,868.1,684.05,863.92,680.21z"/>
	<path class="st32" d="M865.55,527.11c0.05,1.95,0.01,3.88,0.61,5.82c1.15,3.7-0.31,5.87-4.25,6.23c4.93-3.1,1.86-7.82,2.39-11.81
		c0.07-0.82,0.14-1.64,0.21-2.46C866.26,524.97,866.29,525.86,865.55,527.11z"/>
	<path class="st23" d="M903.02,339.7c5.45-6.16,12-11,18.79-15.54c3.67-2.38,7.65-1.04,11.56-1.06c25.48-0.17,50.95,0.48,76.43-0.31
		c8.65-0.27,17.33,0.23,25.99,0.35c1.68,0.02,3.33,0.05,5.39,1.86c-6.68,1.67-12.95,2.95-19.04,4.83
		c-5.34,1.65-11.22,1.94-15.79,5.75c-0.19,2.09-1.99,2.53-3.45,3.13c-9.21,3.75-18.43,7.46-27.32,11.94
		c-1.45,0.73-3.02,1.51-4.69,0.43c3.26-4.39,8.67-5.18,13.02-7.75c1.17-0.69,3.33-0.5,2.81-2.57c-0.4-1.57-2.19-0.92-3.38-0.97
		c-12.45-0.49-24.9-0.31-37.35-0.11c-7.16,0.11-14.38-1.15-21.48-0.6C917.32,339.64,910.11,337.7,903.02,339.7z"/>
	<path class="st19" d="M900.03,415.43c-1.28,4.44-1.73,9.17-4.54,13.08c-0.36-4.02,1.67-7.46,2.76-11.11
		c0.74-2.48,0.02-4.62-2.45-4.28c-7.85,1.08-15.8-1.09-23.58,0.93c2.98-7.72,6.02-15.43,8.91-23.19c1.19-3.17,2.69-5.31,6.64-5.19
		c6.8,0.21,13.63-0.19,20.43-0.02c2.68,0.07,3.63,1.45,2.12,4.36c-3.06,5.88-5.76,11.95-8.47,18.01
		C900.81,410.35,899.66,412.73,900.03,415.43z"/>
	<path class="st33" d="M865.55,527.11c-0.35-0.74-0.69-1.48-1.04-2.22c-0.42-9.24-1.77-18.44-1.19-27.72
		c-0.07-2.06,1.6-2.49,2.96-2.57c6.96-0.38,13.96-1.33,20.84,0.67c1.66,1.21,0.94,3.01,1.12,4.59c0.26,2.42-0.56,4.92,0.55,7.28
		c0.01,0.37,0.02,0.74,0.03,1.11c1.43,6.21,2.05,12.51,2.15,18.87C882.5,527.11,874.02,527.11,865.55,527.11z"/>
	<path class="st15" d="M863.31,472.78c-0.45-9.02,0.95-17.88,2.18-26.76c0.32-2.34,1.26-3.18,3.49-3.17
		c6.25,0.05,12.5,0.02,18.75,0.01c1.88,0,3.7,0.58,3.09,2.73c-2.4,8.55-1.13,17.51-3.13,26.08c-1.84,1.78-4.17,2.49-6.57,2.16
		C875.2,473.03,869.12,475.21,863.31,472.78z"/>
	<path class="st32" d="M863.31,472.78c8.07-1.67,16.3,0.16,24.39-1.1c0,7.02,0.01,14.04,0.01,21.06c0.76,1.11,0.74,2.23-0.02,3.33
		c-6.41,0-12.81-0.04-19.22,0.02c-1.76,0.02-3.71-0.56-5.16,1.09c-0.34,0-0.67-0.01-1.01-0.03
		C862.79,489.03,860.9,480.81,863.31,472.78z"/>
	<path class="st15" d="M890.97,527.12c-0.72-6.29-1.43-12.58-2.15-18.87c0.34,0,0.68,0,1.02,0c1.1,7.81,2.28,15.61,3.27,23.44
		c0.27,2.14,1.02,3.85,2.53,5.3C890.02,535.62,892.07,530.62,890.97,527.12z"/>
	<path class="st15" d="M887.69,496.06c0.01-1.11,0.01-2.22,0.02-3.33c2.03,2.37,0.73,5.18,1.02,7.78c-0.35,0.52-0.69,0.49-1.02-0.02
		C887.7,499.02,887.7,497.54,887.69,496.06z"/>
	<path class="st32" d="M887.7,500.49c0.34,0,0.68,0.01,1.02,0.02c0.02,2.21,0.04,4.42,0.06,6.63
		C886.85,505.18,888.03,502.71,887.7,500.49z"/>
	<path class="st3" d="M1206.83,365.45c-2.45-6.4-6.79-11.75-9.99-17.73c-0.83-1.75-2.14-3.13-3.41-4.55c0,0-0.01,0.1-0.01,0.1
		c-1.15-3.52-0.05-4.84,3.8-4.67c6.75,0.31,13.52,0.21,20.23-1.01c2.5-0.45,4.61,0.2,6.04,2.67c3.67,6.32,7.77,12.41,10,19.47
		c-5.68,3.33-11.89,1.11-17.83,1.61c-3.06,0.26-5.95,0.28-7.21,3.75C1207.99,365.59,1207.45,365.7,1206.83,365.45z"/>
	<path class="st24" d="M1207.88,365.52c-1.25-4.14-0.12-6.07,4.61-5.87c6.99,0.29,14,0.08,21,0.08c3.22,6.79,5.81,13.8,7.73,21.07
		c-2.67,2.32-5.92,1.34-8.96,1.55c-3.75,0.26-7.58-0.49-11.4,0.57c1.05,4.05,7.19,4.34,5.89,9.38c-1.02-0.55-2.05-1.09-3.07-1.64
		c-5.94-1.56-9.46-5.86-12.09-10.99c-1.41-2.74-2.37-5.71-3.5-8.58C1207.48,369.25,1207.06,367.41,1207.88,365.52z"/>
	<path class="st34" d="M1226.75,392.29c-0.88-3.19-3.96-4.16-6.06-6.14c-1.22-1.16-3.66-2.06-2.81-4.2
		c0.71-1.79,2.92-1.13,4.52-1.14c6.27-0.05,12.54-0.01,18.82-0.01c0.38,1.84,0.76,3.69,1.14,5.53c3.24,6.91,3.32,14.54,4.89,21.83
		c0.59,2.72-0.83,3.34-3.03,1.55C1238.4,403.9,1232.58,398.09,1226.75,392.29z"/>
	<path class="st24" d="M1244.22,409.7c3.4,0.86,2.53-1.27,2.17-3.08c-1.35-6.76-2.69-13.53-4.04-20.3c0.41-0.01,0.82-0.03,1.23-0.04
		c2.8,8.61,3.8,17.51,4.69,26.82C1245.58,412.97,1244.91,411.33,1244.22,409.7z"/>
	<path class="st35" d="M902.15,442.88c1.55-3.13,1.91-6.54,2.27-9.94c1.38-7.08,6.14-11.84,11.05-16.66
		c11.38-11.17,24.37-20.15,37.71-28.7c1.68-1.43,3.15-3.24,5.71-3.01c15.72,4.62,30.56,11.39,45.28,18.47
		c7.83,4.85,16.07,9,23.94,13.79c8.68,5.28,17.02,11.01,25.03,17.24c1.5,1.42,3.06,2.78,4.85,3.84c2.3,1.85,4.8,3.46,6.88,5.57
		c3.87,3.93,3.54,5.83-1.41,8.2c-14.38,6.88-27.72,15.37-39.7,25.93c-1.25,0.88-2.59,1.63-3.63,2.78
		c-6.44,5.97-12.02,12.7-17.45,19.56c-1.43,1.55-2.45,3.39-3.7,5.08c-10.31,14.99-18.01,31.06-20.49,49.3
		c-0.92,5.79-0.8,11.57-0.07,17.35c3.6,25.43,19.24,40.34,42.49,48.6c1.1,0.43,2.23,0.71,3.38,0.96
		c14.39,4.15,29.16,5.48,44.03,6.11c2.02,0.09,4.04,0.1,6.03,0.51c10.91,1.62,21.89,0.35,32.82,0.71c3.27,0.11,6.59,0.29,9.78-0.79
		c12.03-0.52,24.01-1.85,36.03-2.54c2.54,0.1,5.08,0.15,7.54-0.71c17.47-2.34,34.95-4.64,52.15-8.65c2.11-0.49,4.28-1.28,6.44-0.12
		c1.22,0.11,2.39,0.02,3.32-0.93c1.68-2,4.15-2.23,6.43-2.9c17.42-5.15,34.32-11.28,48.27-23.59c3.74-3.3,5.93-2.56,6.86,2.31
		c1.77,9.3,1.44,18.72,0.31,28.07c-0.51,4.26,0.26,8.99-3.25,12.52c-1.27,1.32-0.93,2.97-0.92,4.55c0.83,4.85-1.65,8.97-3.27,13.14
		c-7.92,20.32-20.72,37.09-37.79,50.62c-1.47,1.07-2.72,2.39-4.07,3.6c-4.15,2.44-7.09,6.99-12.53,7.17
		c-1.53,0.97-3.07,1.94-4.6,2.91c-0.46,2.33-2.51,2.99-4.23,3.97c-18.09,10.35-37.31,17.87-57.51,22.93
		c-1.48,0.2-2.87,0.71-4.28,1.18c-19.06,4.88-38.36,8.28-58.04,9.28c-1.47,0.08-2.92,0.33-4.36,0.6c-0.98,0.19-1.97,0.25-2.96,0.32
		c-20.13,0.57-40.24,0.65-60.23-2.36c-1.83-0.39-3.6-1.16-5.54-0.99c-21.33-2.78-42.14-7.55-61.73-16.74
		c-1.7-0.98-3.58-1.54-5.36-2.35c-9.78-4.74-18.89-10.49-27.04-17.73c-1.51-1.34-3.14-2.59-4.12-4.38
		c-1.06-1.93-1.16-3.59,1.74-3.77c1.93-0.44,3.41-1.56,4.61-3.08c7.26-7.27,13.59-15.28,18.89-24.09
		c6.07-11.86,6.97-24.77,7.06-37.67c0.16-22.27-4.69-43.6-13.87-63.85c-8.13-17.92-18.76-33.94-36.46-43.97
		c-3-1.7-2.91-4.51-3.27-7.16c-3.57-26.3-4.1-52.58,0.92-78.79C902.19,444,902.13,443.43,902.15,442.88z"/>
	<path class="st35" d="M1151.48,363.08c1.23,1.23,2.85,1.01,4.36,1.21c4.19,2.06,8.58,3.49,13.14,4.44
		c2.71,0.94,5.61,1.21,8.27,2.35c19.04,8.31,36.68,18.67,50.59,34.5c8.05,8.6,15.24,17.89,22.06,27.48c1.13,1.83,2.26,3.66,3.4,5.48
		c4.29,2.62,5.6,7.2,7.14,11.46c1.08,2.98-0.9,3.56-3.39,2.63c-1.74-0.65-3.21-1.81-4.76-2.8c-7.03-4.46-14.52-8.02-22.16-11.29
		c-1.41-0.77-3.03-0.93-4.53-1.44c-2.17-1.02-4.44-1.65-6.85-1.78c-7.6-2.88-15.45-4.66-23.52-5.45c-4.25-0.42-7.65-2.32-10.54-5.39
		c-8.22-8.71-17.46-16.29-26.74-23.81c-11.03-8.95-22.32-17.53-34.24-25.27c-1.97-1.28-4.29-2.24-5.29-4.66
		c-8.34-6.3-17.84-10.68-28-16.51C1112.13,354.11,1131.83,358.37,1151.48,363.08z"/>
	<path class="st35" d="M1201.21,504.81c-4.35,7.07-8.66,14.16-13.07,21.19c-3.94,6.27-9.35,8.09-14.31,4.94
		c-5.08-3.22-5.95-8.67-2.21-15.04c2.05-3.49,4.18-6.91,5.5-10.76c1.82-1.4,1.41-3.82,2.54-5.55c3.02-5.08,5.88-10.27,9.19-15.16
		c6.28-9.27,16.67-14.48,27.81-10.49c2.15,0.7,4.31,1.37,5.64,3.42c9.33,5.69,18.64,11.41,27.99,17.07
		c2.82,1.71,5.63,3.39,7.67,6.06c0.3,2.18,0.59,4.35,0.89,6.53c0,0,0,0.05,0,0.05c-0.64,1.52-0.8,3.29-2.23,4.41
		c-4.6,4.25-9.25,3.82-14.45,0.8c-5.3-3.08-9.99-7.37-16.25-8.66c-1.62-1.94-4.11-2.46-6.14-3.73c-0.86-0.29-1.82-0.45-2.49-1.05
		c-4.41-3.94-8.65-3.79-12.78,0.41C1203.09,500.91,1201.8,502.65,1201.21,504.81z"/>
	<path class="st35" d="M1188.29,567.13c1.29-1.77,2.64-3.49,3.84-5.32c6.21-9.46,13.91-9.15,19.16,0.8
		c-0.41,2.54-0.82,5.07-1.22,7.61c0.38,1.8-0.54,3.2-1.43,4.59c-5.91,9.28-11.52,18.76-17.81,27.8
		c-8.18,11.76-21.37,14.68-33.8,7.71c-1.42-0.87-2.84-1.73-4.25-2.63c-8.66-5.55-17.31-11.11-25.96-16.67
		c-8.69-5.58-9.08-13.44-1.15-20.26c2.94-1.22,5.92-1.46,8.95-0.37c5.91,2.71,11.1,6.65,16.71,9.89c0.63,0.41,1.23,0.86,1.83,1.32
		c1.19,0.89,2.53,1.54,3.83,2.24c3.13,1.93,6.27,3.85,9.34,5.87c3.17,2.09,5.32,1.45,7.38-1.54c3.87-5.6,7.1-11.61,11.06-17.14
		C1185.75,569.57,1186.64,568,1188.29,567.13z"/>
	<path class="st28" d="M936.63,677.08c-0.48,2.23-1.55,4.1-3.37,5.51c0.11-2.75,1.38-4.98,3.17-6.97
		C936.49,676.1,936.56,676.59,936.63,677.08z"/>
	<path class="st28" d="M892.12,678.91c1.41-1.59,3.37-1.38,4.94-0.89c2.26,0.71,1.21,1.56-0.31,2.06c-1.37-0.79-3.04-0.17-4.42-0.92
		L892.12,678.91z"/>
	<path class="st35" d="M1019.67,360.95c1.88-0.22,3.87,0.13,5.54-1.13c13.18-2.66,26.52-4.08,39.88-5.47
		c7.3-0.76,13.83,0.57,20.03,4.24c1.09,1.42,2.82,1.52,4.32,2.1c6.96,3.85,13.91,7.69,20.87,11.54c2.99-0.07,5.21,1.73,7.47,3.25
		c14.67,9.89,29.42,19.68,42.64,31.53c0.97,0.87,2.17,1.4,3.17,2.22c3.56,3.43,7.66,6.26,11.1,9.8c1.95,2.01,5.54,3.87,4.23,6.99
		c-1.17,2.78-4.87,1.68-7.53,1.76c-4.93,0.15-9.89-0.25-14.75,0.93c-0.59,0.09-1.18,0.13-1.77,0.15c-0.59,0.03-1.18,0.04-1.77,0.04
		c-3.22,0.06-6.48-0.34-9.62,0.76c-10.33,1.8-20.77,3.02-30.93,5.76c-2.52,0.4-4.96,1.14-7.42,1.78c-1.81,0.52-3.76,0.4-5.49,1.27
		c-3.22,1.29-6.54,2.25-9.89,3.15c-1.28,0.37-2.56,0.72-3.79,1.21c-0.68,0.27-1.43,0.4-2.06,0.75c-6.46,3.68-12.18,3.02-17.15-2.74
		c-0.83-0.96-2.03-1.55-3.01-2.38c-1.74-1.51-3.18-3.39-5.37-4.36c-12.04-9.81-24.87-18.45-38.55-25.81
		c-14.86-9.14-30.94-15.67-47.02-22.24c-2.46-1-6.19-1.31-6.38-4.52c-0.2-3.55,3.7-4.11,6.19-5.44c3.91-2.09,8.11-3.57,12.27-5.1
		c2.98-1.18,6.22-1.36,9.25-2.38c3.26-0.48,6.34-1.46,9.17-3.18C1008.75,363.94,1014.21,362.45,1019.67,360.95z"/>
	<path class="st36" d="M713.71,1074.6c0.41-0.01,0.82-0.02,1.24-0.04c0.15,1.94,3.37,4.57-1.23,5.43
		C715.32,1078.2,713.77,1076.4,713.71,1074.6z"/>
	<path class="st23" d="M1193.44,343.17c2.02,0.86,3.44,2.16,3.41,4.55C1195.28,346.52,1193.84,345.23,1193.44,343.17z"/>
	<path class="st25" d="M1256.62,511.47c0.74-1.47,1.49-2.94,2.23-4.41C1259.19,509.08,1258.83,510.74,1256.62,511.47z"/>
	<path class="st35" d="M1076.17,498.31c4.4,0.03,8.79,0.05,13.19,0.08c1.81,0.75,3.62,1.49,5.42,2.24c0.62,0.51,1.72,0.1,2.07,1.11
		c0.93,1.14,2.03,2,3.55,2.19c1.14,0.02,2.23,0.31,3.14,0.95c10.11,7.11,20.68,13.59,30.42,21.22c5.18,4.07,6.11,12.03,2.53,16.97
		c-3.66,5.06-10.91,6.48-16.81,2.85c-10.07-6.19-19.52-13.3-29.34-19.86c-1.2-1.08-2.49-2.04-3.92-2.81
		c-4.06-2.91-6.34-0.49-8.5,2.71c-6.7,9.91-13.53,19.74-20.46,29.5c-2.85,4.01-6.19,7.42-11.65,7.27
		c-9.88-0.28-15.1-9.64-10.16-18.71c4.41-8.09,10.33-15.22,15.45-22.87c2.66-3.97,5.31-7.97,8.22-11.77
		c1.29-1.7,2.23-3.92,4.79-4.24c2.15-1.54,4.31-3.08,6.46-4.61C1072.43,499.79,1074.3,499.05,1076.17,498.31z"/>
</g>
</svg>
