<?xml version="1.0" encoding="utf-8"?>
<!-- Generator: Adobe Illustrator 25.3.1, SVG Export Plug-In . SVG Version: 6.00 Build 0)  -->
<svg version="1.1" id="Camada_1" xmlns="http://www.w3.org/2000/svg" xmlns:xlink="http://www.w3.org/1999/xlink" x="0px" y="0px"
	 viewBox="0 0 800 800" style="enable-background:new 0 0 800 800;" xml:space="preserve">
<style type="text/css">
	.st0{fill:#020303;}
	.st1{fill:#333334;}
	.st2{fill:#7DB927;}
	.st3{fill:#7EB927;}
	.st4{fill:#989898;}
	.st5{fill:#656565;}
	.st6{fill:#646464;}
</style>
<g>
	<path class="st0" d="M134.04,578.37c-5.89,7.76-11.49,15.21-17.17,22.61c-20.23,26.37-41.23,52.07-65.29,75.11
		c-6.34,6.07-14.77,4.45-17.47-3.28c-0.55-1.59-0.67-3.21-0.25-4.79c4.21-15.92,8.89-31.7,13.78-47.43
		c11.88-38.25,23.82-76.48,35.75-114.71c12.53-40.14,25.13-80.25,37.57-120.42c3.91-12.62,8.43-25.1,10.66-38.19
		c0.93-5.43,1.32-10.9,0.59-16.4c-1.27-9.46-6.69-13.83-16.24-13c-12.08,1.04-26.08,12.3-29.8,23.91c-0.87,2.71-0.75,5.35-0.08,8.1
		c1.29,5.31-1.21,10.06-6.01,11.79c-4.99,1.8-9.95-0.34-12.42-5.46c-3.57-7.4-2.9-14.94,0.18-22.16
		c7.88-18.44,21.67-30.51,41.22-34.87c24.16-5.39,41.94,9.06,43.08,34.18c0.51,11.24-1.78,22.12-4.85,32.82
		c-11.63,40.54-24.7,80.65-37.3,120.9c-13.49,43.11-26.9,86.24-40.35,129.36c-1.54,4.94-3.1,9.88-4.71,15
		c2.27,0.23,2.9-1.58,3.88-2.67c17.27-19.11,32.55-39.8,47.98-60.38c4.04-5.39,8.13-10.75,12.19-16.13
		c2.72-3.6,6.07-6.14,10.83-5.18c4.69,0.94,6.85,4.44,8.21,8.79c8.89,28.59,17.88,57.16,26.86,85.73c0.54,1.73,1.25,3.41,2.71,5.1
		c1.39-4.46,2.81-8.92,4.17-13.38c10.49-34.24,20.97-68.48,31.46-102.72c1.03-3.36,2.7-6.42,4.35-9.51
		c7.58-14.17,25.03-15.06,34.14-10.06c11.51,6.32,16.23,22.01,10.34,34.26c-1.32,2.74-3.14,5.09-5.51,7.01
		c-4.21,3.4-9.5,3.31-13.28-0.23c-3.86-3.62-4.26-8.76-0.76-13.15c1.39-1.75,2.4-3.42,2.21-5.71c-0.18-2.12-0.72-4.02-2.99-4.7
		c-2.25-0.67-4.42-0.67-6.18,1.32c-1.7,1.92-2.7,4.21-3.44,6.59c-8.64,28.02-17.24,56.05-25.83,84.09c-0.22,0.71-0.39,1.46-0.42,2.2
		c-0.78,18.33,17.07,32.44,34.71,27.56c2.65-0.73,2.42-2.12,2-4.17c-2.59-12.72-2.4-25.27,2.19-37.61
		c7.23-19.44,26.3-30.21,45.57-25.62c18.13,4.32,25.52,23.37,14.99,38.72c-4.93,7.19-11.96,12.35-18.15,18.32
		c-4.94,4.77-10.02,9.4-15.2,13.9c-2.31,2.01-1.66,3.04,0.52,4.38c6.53,3.99,13.69,4.38,21,3.8c4.74-0.37,9.34-1.6,13.93-2.81
		c1.32-0.35,2.12-0.86,2.42-2.38c3.27-16.7,9.36-32.6,14.33-48.8c10.72-34.95,21.91-69.76,32.19-104.84
		c1.58-5.39,5.99-8.23,11.4-7.26c5.14,0.92,8.35,5.07,7.82,10.62c-0.51,5.37-2.44,10.45-4.02,15.56
		c-13.36,43.15-26.84,86.26-40.23,129.39c-0.81,2.61-1.32,5.33-1.74,8.03c-0.45,2.94,1.13,4.09,3.97,3.9
		c2.84-0.2,5.29-1.45,7.65-2.86c6.58-3.94,12.18-9.11,17.78-14.28c1.47-1.35,1.14-2.82,1.09-4.45
		c-0.62-20.91,5.66-38.94,22.77-51.98c14.2-10.82,35.97-11.39,49.66-1.79c2.79,1.96,5.22,4.29,6.97,7.23
		c2.81,4.7,1.92,10.24-1.99,13.15c-4.51,3.36-9.74,2.76-13.65-1.58c-6.18-6.84-19.47-7.83-28.34-1.87
		c-9.33,6.27-13.91,15.57-15.32,26.37c-2.36,18.16,9.38,31.51,28.02,32.51c13.3,0.71,24.5-4.52,35.24-11.63
		c5.69-3.76,10.69-7.34,7.18-15.21c-2.69-37.22,31.6-63.95,66.46-51.77c6.84,2.39,12.79,6.3,17.71,11.56
		c2.22,2.37,3.42,2.89,5.96,0.13c7.34-7.94,16.47-12.82,27.28-14.4c9.21-1.35,16.86,1.32,22.33,8.98c1.71,2.39,2.7,2.26,4.86,0.6
		c7.09-5.43,15.11-8.67,24.11-9.27c7.85-0.53,14.25,2.36,18.9,8.62c1.74,2.34,2.88,2.25,5.03,0.67c5.38-3.97,11.36-6.73,17.92-8.2
		c14.46-3.25,26.74,4.86,29.24,19.46c1.74,10.13,0.04,20.14-1.16,30.18c-1.53,12.76-4.48,25.33-4.9,38.22
		c-0.04,1.23-0.01,2.47-0.01,3.87c1.77,0.03,2.45-1.31,3.31-2.21c5.31-5.63,10.48-11.39,15.87-16.95c1.88-1.94,2.21-3.62,1.47-6.29
		c-4.92-17.78-3.5-34.89,6.5-50.76c9.78-15.52,29.44-21.5,45.6-14.08c14.32,6.58,19.02,23.65,10.04,36.59
		c-4.82,6.95-11.54,12.07-17.57,17.84c-5.23,5-10.61,9.86-16.09,14.6c-2.19,1.89-1.99,2.97,0.36,4.37c6.77,4.02,14.1,4.85,21.7,3.86
		c3.82-0.5,7.6-1.45,11.36-2.34c6.15-1.45,11.4,1.18,12.8,6.55c1.55,5.95-1.67,10.97-8.03,12.61c-12.89,3.32-25.8,4.54-38.78,0.44
		c-4.58-1.45-8.9-3.49-12.49-6.62c-2.68-2.34-4.24-1.7-6.35,0.7c-4.45,5.06-9.19,9.87-13.78,14.81c-3.47,3.74-7.61,6.43-12.45,8.03
		c-9.46,3.13-17.6-0.68-21.13-9.97c-3.03-7.96-2.73-16.2-1.48-24.4c2.41-15.79,4.63-31.61,6.24-47.5c0.31-3.02,0.1-5.97-0.69-8.9
		c-0.63-2.33-2.11-3.12-4.47-2.93c-9.24,0.77-21.29,11.6-22.67,20.65c-2.59,17.06-7.16,33.68-11.05,50.44
		c-1.33,5.72-6.88,8.85-12.4,7.37c-5.04-1.35-8.03-6.82-6.67-12.54c2.72-11.54,5.69-23.02,8.28-34.58
		c1.69-7.54,3.37-15.13,3.28-22.93c-0.1-8.56-3.68-11.07-11.36-7.38c-10.29,4.94-17.4,12.68-19.39,24.41
		c-2.59,15.27-6.62,30.22-10.29,45.25c-1.29,5.29-6.12,8.23-11.4,7.29c-5.07-0.9-8.63-5.67-7.64-11.12
		c1.18-6.5,2.94-12.89,4.42-19.33c2.42-10.58,5.41-21.04,6.72-31.85c0.5-4.09,0.83-8.23,0.02-12.31c-0.74-3.73-2.48-5.05-6.11-4.3
		c-10.04,2.08-16.67,8.52-21.33,17.3c-0.72,1.36-0.08,2.7,0.11,4.03c2.71,19.14-3.12,35.39-18.31,47.16
		c-15.52,12.02-33.07,13.72-51.3,6.11c-5.13-2.14-9.44-5.57-13.36-9.48c-4.14-4.14-4.14-4.13-8.99-0.56
		c-12.37,9.12-25.78,15.98-41.4,16.8c-17.24,0.9-32.67-3.73-44.48-17.12c-1.86-2.11-2.88-1.79-4.7-0.17
		c-6.26,5.58-12.76,10.85-20.57,14.19c-9.9,4.22-19.45,4.19-28.22-2.78c-1.49-1.19-2.49-0.62-4-0.14
		c-16.08,5.15-32.18,7.08-48.11-0.62c-3.75-1.81-7.01-4.36-9.85-7.37c-1.74-1.84-3.3-2.26-5.88-1.43
		c-14.34,4.61-28.29,4.06-41.45-4.02c-3.54-2.18-6.49-5.04-9.3-8.08c-0.7-0.75-1-2.41-2.35-1.98c-1.13,0.36-1.04,1.88-1.37,2.91
		c-2.5,7.71-5.05,15.41-7.37,23.18c-1.44,4.84-4.34,7.81-9.4,8.33c-4.31,0.44-7.86-2.07-10.06-7.44
		c-6.59-16.06-12.07-32.52-17.29-49.06c-5.37-17.01-10.61-34.07-15.93-51.1C134.89,580.13,134.53,579.49,134.04,578.37z"/>
	<path class="st1" d="M513.13,473.59c-13.35,0.15-24.72-4.58-33.96-14.09c-2.63-2.7-4.22-2.24-6.75-0.06
		c-7.34,6.31-15.18,11.93-25.05,13.53c-9.2,1.49-17.14-1.11-23.05-8.47c-1.85-2.31-3.15-2.07-5.2-0.59
		c-5.72,4.14-11.87,7.31-19.03,8.27c-6.52,0.87-12.53-0.38-17.66-4.4c-2.72-2.13-5.16-2.34-8.28-1.46c-9.6,2.69-19.39,3.49-29.3,2.1
		c-8.13-1.14-15.4-4.33-21.51-9.77c-2.25-2-3.8-1.86-6.1-0.23c-8.31,5.89-17.13,10.72-27.41,12.35c-13.5,2.13-25.32-5.4-28.75-18.53
		c-2.29-8.77-2.16-17.54,0.33-26.26c3.98-13.92,8-27.83,11.97-41.75c1.05-3.7,0.75-3.93-2.97-3.17
		c-14.58,2.99-28.78,7.39-43.12,11.26c-1.83,0.49-2.65,1.56-3.19,3.24c-7.36,23.2-14.8,46.37-22.09,69.59
		c-2.04,6.51-6.97,9.78-12.96,8.08c-4.95-1.4-7.97-7.3-6.17-13.14c5.37-17.41,11.02-34.74,16.49-52.12
		c10.47-33.21,20.91-66.43,31.34-99.66c0.67-2.15,1.13-4.35,1.1-6.62c-0.04-3.42-0.85-4.08-4.09-2.73c-3.56,1.48-6.98,2.96-7.1,7.97
		c-0.1,4.21-4.21,7.83-8.34,8.41c-4.2,0.59-8.66-2.05-10.49-6.3c-1.72-3.98-1.72-7.96,0.09-11.97c5.4-11.94,21.62-20.53,34.52-18.22
		c10.58,1.9,17.02,12.32,15.31,24.69c-1.43,10.34-5.13,20.05-8.12,29.96c-3.32,10.99-6.83,21.92-10.21,32.89
		c-0.31,1.01-1.24,2.15-0.27,3.14c0.82,0.84,1.9,0.08,2.81-0.19c13.55-3.97,27.26-7.31,41.23-9.41c2.59-0.39,3.83-1.47,4.55-4.03
		c5.76-20.55,11.67-41.05,17.49-61.59c1.61-5.69,6.59-9.05,11.79-7.8c5.42,1.3,8.45,6.19,7.23,12.08
		c-3.08,14.81-7.96,29.13-12.1,43.65c-8.57,30-17.3,59.96-25.91,89.95c-1.44,5.01-1.47,10.07,0.09,15.13
		c0.83,2.7,2.43,3.79,5.2,3.81c3.76,0.03,7.11-1.22,10.39-2.8c1.69-0.81,3.31-1.75,4.92-2.71c8.8-5.27,8.59-5.25,7.02-15.18
		c-2.44-15.45-1.46-30.45,7.66-43.89c7.07-10.42,17.19-16.25,29.57-17.76c14.62-1.78,28.12,7.99,30.84,21.94
		c1.27,6.53-0.87,12.32-4.34,17.72c-2.65,4.13-6.2,7.47-9.77,10.81c-7.93,7.42-15.76,14.95-23.72,22.34
		c-1.83,1.7-1.66,2.66,0.39,3.9c7.02,4.24,14.65,4.33,22.49,3.74c8.25-0.62,12.52-3.85,14.95-12.8
		c7.16-26.36,15.99-52.26,24.06-78.38c6.7-21.7,13.29-43.44,19.85-65.19c1.76-5.83,6.39-9.02,11.78-7.77
		c5.53,1.29,8.85,6.5,7.35,12.38c-3.67,14.4-8.35,28.5-12.76,42.69c-10.66,34.33-21.37,68.64-32.05,102.97
		c-0.3,0.95-0.53,1.93-0.73,2.9c-1.24,5.94,1.49,8.71,6.87,5.86c10.99-5.81,21.29-12.03,25.28-25.69
		c10.11-34.62,21.27-68.93,31.97-103.38c3.03-9.77,5.92-19.59,8.81-29.41c1.66-5.63,6.4-8.7,11.62-7.4
		c5.43,1.36,8.74,6.4,7.42,12.05c-2.72,11.68-6.66,23.01-10.21,34.46c-11.29,36.36-22.65,72.69-33.94,109.05
		c-0.77,2.49-1.32,5.08-1.74,7.66c-0.45,2.78,0.77,4.24,3.75,4.15c1.92-0.06,3.7-0.42,5.39-1.33c5.74-3.11,10.92-6.99,15.73-11.4
		c1.38-1.26,1.63-2.5,1.19-4.31c-7.11-29.47,12.3-57.42,42.37-61.07c25.45-3.09,49.07,13.98,54.12,39.12
		c5.08,25.26-9.85,49.99-34.52,57.11c-2.63,0.76-5.33,1.33-8.04,1.75C517.39,473.54,515.25,473.48,513.13,473.59z"/>
	<path class="st2" d="M222.79,220.3c-6.21,6.88-11.62,13.05-17.24,19.03c-2.99,3.17-6.63,5.75-9.48,9.03
		c-6.83,7.87-24.98,4.32-29.36-7.54c-2.09-5.67-2.59-11.39-1.21-17.28c4.15-17.75,9.86-35.08,14.65-52.65
		c1.13-4.15,1.19-4.02-2.89-3.27c-14.52,2.68-28.49,7.46-42.78,11.01c-2.21,0.55-2.94,1.93-3.52,3.83
		c-6.19,20.42-13.01,40.65-18.58,61.26c-1.25,4.62-3.67,7.95-8.67,8.63c-7.01,0.96-12.48-5.2-10.71-12.45
		c1.81-7.39,4.06-14.67,6.32-21.94c12.6-40.65,25.26-81.27,37.88-121.91c0.78-2.5,1.53-5.02,1.6-7.68c0.1-3.65-0.72-4.31-4.2-2.9
		c-3.76,1.52-7.1,3.24-7.21,8.36c-0.08,3.94-3.93,7.24-7.88,7.96c-3.95,0.71-8.03-1.22-10.15-4.87c-3.09-5.32-2.51-10.7,0.58-15.64
		c6.66-10.66,16.75-15.98,29.05-16.55c10.44-0.49,18.48,7.65,19.41,18.4c0.68,7.91-1.24,15.34-3.58,22.76
		c-4.94,15.71-9.76,31.46-14.6,47.21c-0.31,1.02-1.27,2.25-0.34,3.14c0.91,0.87,2.11-0.12,3.14-0.42
		c13.08-3.77,26.22-7.37,39.76-9.05c3.93-0.49,5.37-2.48,6.34-5.98c5.59-20.21,11.36-40.36,17.07-60.53
		c1.45-5.13,6.56-8.35,11.49-7.27c5.3,1.16,8.88,6.37,7.52,11.98c-2.28,9.46-4.9,18.84-7.61,28.19
		c-10.55,36.44-21.21,72.85-31.77,109.29c-0.78,2.7-2.68,6.74-0.65,8.02c2.01,1.27,4.12-2.73,5.97-4.57
		c13.15-13.07,23.94-28.1,35.21-42.73c4.65-6.03,9.18-12.15,13.92-18.11c4.39-5.51,10.31-6.3,14.99-2.18
		c2.62,2.31,3.66,5.17,3.11,8.72c-1.48,9.53-6.13,17.92-9.68,26.68c-4.28,10.57-6.22,21.53-6.92,32.8
		c-0.04,0.71-0.34,1.63,0.58,1.95c0.84,0.3,1.36-0.47,1.84-1c1.6-1.74,3.15-3.54,4.74-5.3c3.63-4.02,9.14-4.52,13.45-1.23
		c4.04,3.08,4.92,8.57,1.95,13.07c-3.35,5.07-7.62,9.25-12.88,12.33c-13.31,7.77-28.84-0.75-29.38-16.23
		C221.89,230.21,222.48,225.74,222.79,220.3z"/>
	<path class="st3" d="M568.91,548.92c-26.35,0-52.71,0.28-79.05-0.08c-27.47-0.37-54.94-0.23-82.41-0.36
		c-5.89-0.03-10.07-4.04-10.17-9.67c-0.1-5.73,3.85-9.83,9.88-9.91c9.99-0.13,19.98-0.1,29.97-0.1
		c95.66,0.01,191.33,0.03,286.99,0.02c7.51,0,14.97-0.53,22.12-3.18c11.28-4.18,17.71-14.71,15.98-26.62
		c-1.17-8.06-7-12.2-13.9-14.78c-8.69-3.25-17.39-4.02-25.94,1.15c-4.77,2.88-10.42,1.1-13.08-3.37c-2.9-4.86-1.74-10,3.06-13.45
		c8.64-6.21,18.49-7.37,28.62-6.21c14.43,1.65,27.28,6.82,35.4,19.68c12.66,20.05,4.52,48.08-16.75,59.18
		c-10.02,5.23-20.76,6.88-31.86,7.08C674.81,549.28,621.86,549.04,568.91,548.92z"/>
	<path class="st4" d="M408.59,251.89c-34.84,0-69.68-0.02-104.52,0.03c-3.51,0-6.66-0.49-9.22-3.18c-4.8-5.04-3.24-12.72,3.21-15.42
		c2.49-1.04,5.12-1.01,7.74-1.01c66.93-0.01,133.87-0.02,200.8-0.02c8.41,0,16.7-0.58,24.64-3.73
		c11.18-4.43,15.56-13.73,14.95-25.11c-0.45-8.52-6.48-13.29-13.96-15.93c-8.68-3.06-17.38-4.19-25.99,0.95
		c-4.69,2.8-10.52,1.16-12.96-2.86c-2.95-4.87-1.79-10.34,3.11-13.75c9.9-6.88,20.97-7.52,32.35-5.47
		c13.38,2.42,25.01,7.87,32.12,20.29c12.13,21.19,1.38,51.06-21.44,59.77c-8.84,3.38-18,5.25-27.44,5.28
		c-34.46,0.1-68.93,0.04-103.39,0.04C408.59,251.81,408.59,251.85,408.59,251.89z"/>
	<path class="st2" d="M276.74,137.49c-0.04,8-6.34,14.35-14.24,14.36c-7.76,0.01-14.31-6.57-14.31-14.37
		c0.01-7.84,6.5-14.33,14.32-14.32C270.44,123.18,276.77,129.55,276.74,137.49z"/>
	<path class="st5" d="M499.95,661.46c-16.37-0.02-29.78-13.43-29.78-29.79c0-16.31,13.48-29.69,29.89-29.68
		c16.35,0,29.86,13.52,29.77,29.8C529.75,648.19,516.36,661.48,499.95,661.46z"/>
	<path class="st6" d="M261.48,636.8c-3.84-13.22,2.97-29.63,13.84-34.25c2.86-1.22,5.84-1.44,8.82-0.97c2.52,0.4,4.96,1.44,5.94,4
		c1.02,2.66-0.34,4.9-2.2,6.72c-3.39,3.31-6.87,6.54-10.36,9.76C272.24,626.94,266.93,631.79,261.48,636.8z"/>
	<path class="st5" d="M722.43,637.95c-1.16-11.78,0.01-21.94,7.73-30.29c3.82-4.13,8.8-6.13,14.51-5.56
		c2.91,0.29,5.89,1.23,6.95,4.29c1.1,3.18-1.05,5.44-3.19,7.44c-6.74,6.31-13.51,12.59-20.27,18.88
		C726.52,634.23,724.87,635.72,722.43,637.95z"/>
	<path class="st5" d="M513.75,394.7c16.38,0.05,29.76,13.5,29.65,29.8c-0.11,16.21-13.78,29.6-30.11,29.51
		c-16.15-0.09-29.57-13.5-29.63-29.6C483.59,407.88,497.01,394.64,513.75,394.7z"/>
	<path class="st5" d="M327.48,424.38c-3.81-10.91,1.44-27.05,10.47-32.89c4.42-2.86,9.27-3.74,14.29-1.89
		c4.35,1.61,5.46,5.58,2.22,8.87C345.82,407.26,337.05,415.93,327.48,424.38z"/>
</g>
</svg>
